%FSLAX44Y44*%
%MOMM*%
G71*
G01*
G75*
G04 Layer_Physical_Order=2*
G04 Layer_Color=16711680*
%ADD10R,1.3000X1.5000*%
%ADD11O,0.6000X1.5000*%
%ADD12R,2.8000X2.1000*%
%ADD13R,2.0000X0.6100*%
G04:AMPARAMS|DCode=14|XSize=1.145mm|YSize=0.55mm|CornerRadius=0.1375mm|HoleSize=0mm|Usage=FLASHONLY|Rotation=270.000|XOffset=0mm|YOffset=0mm|HoleType=Round|Shape=RoundedRectangle|*
%AMROUNDEDRECTD14*
21,1,1.1450,0.2750,0,0,270.0*
21,1,0.8700,0.5500,0,0,270.0*
1,1,0.2750,-0.1375,-0.4350*
1,1,0.2750,-0.1375,0.4350*
1,1,0.2750,0.1375,0.4350*
1,1,0.2750,0.1375,-0.4350*
%
%ADD14ROUNDEDRECTD14*%
G04:AMPARAMS|DCode=15|XSize=1.145mm|YSize=0.55mm|CornerRadius=0.1375mm|HoleSize=0mm|Usage=FLASHONLY|Rotation=0.000|XOffset=0mm|YOffset=0mm|HoleType=Round|Shape=RoundedRectangle|*
%AMROUNDEDRECTD15*
21,1,1.1450,0.2750,0,0,0.0*
21,1,0.8700,0.5500,0,0,0.0*
1,1,0.2750,0.4350,-0.1375*
1,1,0.2750,-0.4350,-0.1375*
1,1,0.2750,-0.4350,0.1375*
1,1,0.2750,0.4350,0.1375*
%
%ADD15ROUNDEDRECTD15*%
G04:AMPARAMS|DCode=16|XSize=0.3mm|YSize=0.75mm|CornerRadius=0.075mm|HoleSize=0mm|Usage=FLASHONLY|Rotation=90.000|XOffset=0mm|YOffset=0mm|HoleType=Round|Shape=RoundedRectangle|*
%AMROUNDEDRECTD16*
21,1,0.3000,0.6000,0,0,90.0*
21,1,0.1500,0.7500,0,0,90.0*
1,1,0.1500,0.3000,0.0750*
1,1,0.1500,0.3000,-0.0750*
1,1,0.1500,-0.3000,-0.0750*
1,1,0.1500,-0.3000,0.0750*
%
%ADD16ROUNDEDRECTD16*%
G04:AMPARAMS|DCode=17|XSize=0.3mm|YSize=0.75mm|CornerRadius=0.075mm|HoleSize=0mm|Usage=FLASHONLY|Rotation=0.000|XOffset=0mm|YOffset=0mm|HoleType=Round|Shape=RoundedRectangle|*
%AMROUNDEDRECTD17*
21,1,0.3000,0.6000,0,0,0.0*
21,1,0.1500,0.7500,0,0,0.0*
1,1,0.1500,0.0750,-0.3000*
1,1,0.1500,-0.0750,-0.3000*
1,1,0.1500,-0.0750,0.3000*
1,1,0.1500,0.0750,0.3000*
%
%ADD17ROUNDEDRECTD17*%
%ADD18R,0.6000X1.0500*%
%ADD19R,1.4000X0.2800*%
%ADD20O,0.4000X2.1500*%
%ADD21O,0.4000X2.1500*%
%ADD22R,3.2000X1.8000*%
%ADD23R,1.8000X1.6000*%
%ADD24R,1.5000X1.3000*%
%ADD25R,7.0000X4.0000*%
%ADD26R,2.8000X3.8000*%
%ADD27R,1.2000X0.7000*%
%ADD28R,2.6000X2.4000*%
%ADD29R,2.2000X2.0000*%
%ADD30R,1.6000X1.8000*%
%ADD31R,4.2400X3.8100*%
%ADD32R,4.2400X3.0000*%
%ADD33O,2.0000X0.4600*%
%ADD34R,6.4000X10.0000*%
%ADD35R,3.4000X3.1000*%
%ADD36R,1.5000X1.5000*%
%ADD37C,0.4000*%
%ADD38C,0.2000*%
%ADD39C,0.5080*%
%ADD40C,0.3000*%
%ADD41C,0.5000*%
%ADD42C,0.3810*%
%ADD43C,1.0000*%
%ADD44C,0.2794*%
%ADD45C,0.3556*%
%ADD46C,2.0000*%
%ADD47C,0.4572*%
%ADD48C,1.5000*%
%ADD49C,0.1778*%
%ADD50P,2.2627X4X270.0*%
%ADD51C,1.6000*%
%ADD52C,1.0000*%
G04:AMPARAMS|DCode=53|XSize=2.5mm|YSize=2mm|CornerRadius=0mm|HoleSize=0mm|Usage=FLASHONLY|Rotation=0.000|XOffset=0mm|YOffset=0mm|HoleType=Round|Shape=Octagon|*
%AMOCTAGOND53*
4,1,8,1.2500,-0.5000,1.2500,0.5000,0.7500,1.0000,-0.7500,1.0000,-1.2500,0.5000,-1.2500,-0.5000,-0.7500,-1.0000,0.7500,-1.0000,1.2500,-0.5000,0.0*
%
%ADD53OCTAGOND53*%

G04:AMPARAMS|DCode=54|XSize=2.5mm|YSize=2mm|CornerRadius=0mm|HoleSize=0mm|Usage=FLASHONLY|Rotation=270.000|XOffset=0mm|YOffset=0mm|HoleType=Round|Shape=Octagon|*
%AMOCTAGOND54*
4,1,8,-0.5000,-1.2500,0.5000,-1.2500,1.0000,-0.7500,1.0000,0.7500,0.5000,1.2500,-0.5000,1.2500,-1.0000,0.7500,-1.0000,-0.7500,-0.5000,-1.2500,0.0*
%
%ADD54OCTAGOND54*%

%ADD55C,2.0000*%
%ADD56R,2.0000X2.0000*%
%ADD57C,0.6000*%
%ADD58C,0.7500*%
%ADD59R,0.5500X1.0000*%
G36*
X1209000Y510000D02*
X1149000Y450000D01*
X1145331D01*
X1145815Y448825D01*
X814000Y120000D01*
X600000D01*
Y120000D01*
X271173Y448827D01*
X271659Y450000D01*
X270000D01*
Y450000D01*
X200000Y520000D01*
Y690000D01*
X350470D01*
Y683250D01*
X357470Y676250D01*
X376470D01*
X383470Y683250D01*
Y690000D01*
X482550D01*
Y683250D01*
X489550Y676250D01*
X508550D01*
X515550Y683250D01*
Y690000D01*
X1209000D01*
Y510000D01*
D02*
G37*
%LPC*%
G36*
X614000Y264000D02*
X604000D01*
Y255000D01*
X614000D01*
Y264000D01*
D02*
G37*
G36*
X572000Y267899D02*
X571049Y267710D01*
X569395Y266605D01*
X568290Y264951D01*
X568101Y264000D01*
X572000D01*
Y267899D01*
D02*
G37*
G36*
X888980Y272027D02*
X886370Y271683D01*
X883937Y270676D01*
X881848Y269073D01*
X880245Y266984D01*
X879238Y264551D01*
X878894Y261941D01*
X879238Y259330D01*
X880245Y256898D01*
X881848Y254809D01*
X883937Y253206D01*
X886370Y252198D01*
X888980Y251855D01*
X891591Y252198D01*
X894023Y253206D01*
X896112Y254809D01*
X897715Y256898D01*
X898723Y259330D01*
X899066Y261941D01*
X898723Y264551D01*
X897715Y266984D01*
X896112Y269073D01*
X894023Y270676D01*
X891591Y271683D01*
X888980Y272027D01*
D02*
G37*
G36*
X542000Y258000D02*
X533500D01*
Y250500D01*
X542000D01*
Y258000D01*
D02*
G37*
G36*
X552500D02*
X544000D01*
Y250500D01*
X552500D01*
Y258000D01*
D02*
G37*
G36*
X574000Y267899D02*
Y264000D01*
X577899D01*
X577710Y264951D01*
X576605Y266605D01*
X574951Y267710D01*
X574000Y267899D01*
D02*
G37*
G36*
X623000Y341500D02*
X606000D01*
Y322500D01*
X611441D01*
Y316500D01*
X606000D01*
Y297500D01*
X611441D01*
Y291500D01*
X606000D01*
Y273059D01*
X593872D01*
X593145Y274146D01*
X591244Y275416D01*
X589000Y275863D01*
X586757Y275416D01*
X584855Y274146D01*
X583584Y272243D01*
X583137Y270000D01*
X583584Y267757D01*
X584855Y265854D01*
X586757Y264584D01*
X589000Y264137D01*
X591018Y264539D01*
X591159Y264423D01*
D01*
X592000Y263733D01*
D01*
Y255000D01*
X602000D01*
Y264000D01*
X592558D01*
X592215Y265129D01*
D01*
X592189Y265215D01*
X593145Y265854D01*
X593872Y266941D01*
X618733D01*
X628837Y256837D01*
X629829Y256174D01*
X631000Y255941D01*
X631000Y255941D01*
X646030D01*
X646395Y255395D01*
X648049Y254290D01*
X650000Y253902D01*
X651951Y254290D01*
X653605Y255395D01*
X654710Y257049D01*
X655098Y259000D01*
X654710Y260951D01*
X653605Y262605D01*
X651951Y263710D01*
X650000Y264098D01*
X648049Y263710D01*
X646395Y262605D01*
X646030Y262059D01*
X632267D01*
X623000Y271326D01*
X623000Y272500D01*
X623000D01*
Y291500D01*
X617559D01*
Y297500D01*
X623000D01*
Y316500D01*
X617559D01*
Y322500D01*
X623000D01*
Y341500D01*
D02*
G37*
G36*
X714500Y284000D02*
X707000D01*
Y275500D01*
X714500D01*
Y284000D01*
D02*
G37*
G36*
X868000Y284500D02*
X851000D01*
Y265500D01*
X868000D01*
Y271296D01*
X869215Y271665D01*
X869395Y271395D01*
X871049Y270290D01*
X873000Y269902D01*
X874951Y270290D01*
X876605Y271395D01*
X877710Y273049D01*
X878098Y275000D01*
X877710Y276951D01*
X876605Y278605D01*
X874951Y279710D01*
X873000Y280098D01*
X871049Y279710D01*
X869395Y278605D01*
X869215Y278336D01*
X868000Y278704D01*
Y284500D01*
D02*
G37*
G36*
X519430Y274338D02*
X517479Y273950D01*
X515825Y272845D01*
X514720Y271191D01*
X514332Y269240D01*
X514720Y267289D01*
X515825Y265635D01*
X517479Y264530D01*
X519430Y264142D01*
X521381Y264530D01*
X523035Y265635D01*
X524140Y267289D01*
X524528Y269240D01*
X524140Y271191D01*
X523035Y272845D01*
X521381Y273950D01*
X519430Y274338D01*
D02*
G37*
G36*
X740410Y269258D02*
X738459Y268870D01*
X736805Y267765D01*
X735700Y266111D01*
X735680Y266012D01*
X734951Y265710D01*
X733000Y266098D01*
X731049Y265710D01*
X729395Y264605D01*
X729030Y264059D01*
X693000D01*
X693000Y264059D01*
X691830Y263826D01*
X690837Y263163D01*
X687644Y259970D01*
X687000Y260098D01*
X685049Y259710D01*
X683395Y258605D01*
X682290Y256951D01*
X681902Y255000D01*
X682290Y253049D01*
X683395Y251395D01*
X685049Y250290D01*
X687000Y249902D01*
X688951Y250290D01*
X690605Y251395D01*
X691710Y253049D01*
X692098Y255000D01*
X691970Y255644D01*
X694267Y257941D01*
X729030D01*
X729395Y257395D01*
X731049Y256290D01*
X733000Y255902D01*
X734951Y256290D01*
X736605Y257395D01*
X737710Y259049D01*
X737730Y259148D01*
X738459Y259450D01*
X740410Y259062D01*
X742361Y259450D01*
X744015Y260555D01*
X745120Y262209D01*
X745508Y264160D01*
X745120Y266111D01*
X744015Y267765D01*
X742361Y268870D01*
X740410Y269258D01*
D02*
G37*
G36*
X779780Y270318D02*
X777829Y269930D01*
X776175Y268825D01*
X775070Y267171D01*
X774682Y265220D01*
X775070Y263269D01*
X776175Y261615D01*
X777829Y260510D01*
X779780Y260122D01*
X780424Y260250D01*
X790030Y250644D01*
X789902Y250000D01*
X790290Y248049D01*
X791395Y246395D01*
X793049Y245290D01*
X795000Y244902D01*
X796951Y245290D01*
X798605Y246395D01*
X799710Y248049D01*
X800098Y250000D01*
X799710Y251951D01*
X798605Y253605D01*
X796951Y254710D01*
X795000Y255098D01*
X794356Y254970D01*
X784750Y264576D01*
X784878Y265220D01*
X784490Y267171D01*
X783385Y268825D01*
X781731Y269930D01*
X779780Y270318D01*
D02*
G37*
G36*
X614000Y236000D02*
X592000D01*
Y231921D01*
X591552Y231250D01*
X591018Y230812D01*
X589280Y231158D01*
X587329Y230770D01*
X585675Y229665D01*
X584570Y228011D01*
X584182Y226060D01*
X584570Y224109D01*
X585675Y222455D01*
X587329Y221350D01*
X589280Y220962D01*
X591018Y221308D01*
X591552Y220870D01*
X592000Y220199D01*
Y216000D01*
X614000D01*
Y236000D01*
D02*
G37*
G36*
X769000Y265098D02*
X767049Y264710D01*
X765395Y263605D01*
X764290Y261951D01*
X763902Y260000D01*
X764290Y258049D01*
X765395Y256395D01*
X767049Y255290D01*
X769000Y254902D01*
X769644Y255030D01*
X781941Y242733D01*
Y240283D01*
X781255Y239825D01*
X780150Y238171D01*
X779762Y236220D01*
X780150Y234269D01*
X781255Y232615D01*
X782909Y231510D01*
X784860Y231122D01*
X786811Y231510D01*
X788465Y232615D01*
X789570Y234269D01*
X789958Y236220D01*
X789570Y238171D01*
X788465Y239825D01*
X788059Y240096D01*
Y244000D01*
X788059Y244000D01*
X787826Y245170D01*
X787163Y246163D01*
X773970Y259356D01*
X774098Y260000D01*
X773710Y261951D01*
X772605Y263605D01*
X770951Y264710D01*
X769000Y265098D01*
D02*
G37*
G36*
X694420Y232229D02*
Y228330D01*
X698319D01*
X698130Y229281D01*
X697025Y230935D01*
X695371Y232040D01*
X694420Y232229D01*
D02*
G37*
G36*
X888980Y236106D02*
X886370Y235762D01*
X883937Y234755D01*
X882648Y233766D01*
X888980Y227434D01*
X895312Y233766D01*
X894023Y234755D01*
X891591Y235762D01*
X888980Y236106D01*
D02*
G37*
G36*
X692420Y232229D02*
X691469Y232040D01*
X689815Y230935D01*
X688710Y229281D01*
X688521Y228330D01*
X692420D01*
Y232229D01*
D02*
G37*
G36*
X577899Y262000D02*
X568101D01*
X568290Y261049D01*
X568911Y260120D01*
X568312Y259000D01*
X563500D01*
Y252489D01*
X559604Y248593D01*
X559389Y248550D01*
X557735Y247445D01*
X556630Y245791D01*
X556242Y243840D01*
X556630Y241889D01*
X557735Y240235D01*
X559389Y239130D01*
X561340Y238742D01*
X562518Y238976D01*
X563500Y238171D01*
Y232500D01*
X582500D01*
Y238079D01*
X583482Y238885D01*
X584200Y238742D01*
X586151Y239130D01*
X587805Y240235D01*
X588910Y241889D01*
X589298Y243840D01*
X588910Y245791D01*
X587805Y247445D01*
X586151Y248550D01*
X585936Y248593D01*
X582500Y252029D01*
Y259000D01*
X577688D01*
X577089Y260120D01*
X577710Y261049D01*
X577899Y262000D01*
D02*
G37*
G36*
X602000Y253000D02*
X592000D01*
Y244000D01*
X602000D01*
Y253000D01*
D02*
G37*
G36*
X614000D02*
X604000D01*
Y244000D01*
X614000D01*
Y253000D01*
D02*
G37*
G36*
X552500Y248500D02*
X544000D01*
Y241000D01*
X552500D01*
Y248500D01*
D02*
G37*
G36*
X678000Y250098D02*
X676049Y249710D01*
X674395Y248605D01*
X673290Y246951D01*
X672902Y245000D01*
X673290Y243049D01*
X674395Y241395D01*
X676049Y240290D01*
X678000Y239902D01*
X679951Y240290D01*
X681605Y241395D01*
X681970Y241941D01*
X707750D01*
X707760Y241889D01*
X708865Y240235D01*
X710519Y239130D01*
X712470Y238742D01*
X714421Y239130D01*
X716075Y240235D01*
X717180Y241889D01*
X717568Y243840D01*
X717180Y245791D01*
X716075Y247445D01*
X714421Y248550D01*
X712470Y248938D01*
X710519Y248550D01*
X709784Y248059D01*
X681970D01*
X681605Y248605D01*
X679951Y249710D01*
X678000Y250098D01*
D02*
G37*
G36*
X542000Y248500D02*
X533500D01*
Y241000D01*
X542000D01*
Y248500D01*
D02*
G37*
G36*
X724000Y284000D02*
X716500D01*
Y275500D01*
X724000D01*
Y284000D01*
D02*
G37*
G36*
X688000Y304000D02*
X680500D01*
Y295500D01*
X688000D01*
Y304000D01*
D02*
G37*
G36*
X588280Y301260D02*
X584381D01*
X584570Y300309D01*
X585675Y298655D01*
X587329Y297550D01*
X588280Y297361D01*
Y301260D01*
D02*
G37*
G36*
X678500Y304000D02*
X671000D01*
Y295500D01*
X678500D01*
Y304000D01*
D02*
G37*
G36*
X834000Y313500D02*
X817000D01*
Y307059D01*
X814000D01*
X812830Y306826D01*
X811837Y306163D01*
X809837Y304163D01*
X809174Y303171D01*
X808941Y302000D01*
X808941Y302000D01*
Y290970D01*
X808395Y290605D01*
X807290Y288951D01*
X806902Y287000D01*
X807290Y285049D01*
X808395Y283395D01*
X808704Y283189D01*
X808218Y282015D01*
X808000Y282059D01*
X808000Y282059D01*
X776970D01*
X776605Y282605D01*
X774951Y283710D01*
X773000Y284098D01*
X771049Y283710D01*
X769395Y282605D01*
X768290Y280951D01*
X767902Y279000D01*
X768290Y277049D01*
X769395Y275395D01*
X771049Y274290D01*
X773000Y273902D01*
X774951Y274290D01*
X776605Y275395D01*
X776970Y275941D01*
X806733D01*
X809837Y272837D01*
X809837Y272837D01*
X840857Y241817D01*
X840857Y241817D01*
X841849Y241154D01*
X843020Y240921D01*
X861463D01*
X862285Y238937D01*
X863888Y236848D01*
X865977Y235245D01*
X868409Y234238D01*
X871020Y233894D01*
X873630Y234238D01*
X876063Y235245D01*
X878152Y236848D01*
X879755Y238937D01*
X880762Y241370D01*
X881106Y243980D01*
X880762Y246591D01*
X879755Y249023D01*
X878152Y251112D01*
X876063Y252715D01*
X873630Y253723D01*
X871020Y254067D01*
X868409Y253723D01*
X865977Y252715D01*
X863888Y251112D01*
X862285Y249023D01*
X861463Y247039D01*
X844287D01*
X814163Y277163D01*
X814163Y277163D01*
X810331Y280995D01*
X810929Y282115D01*
X812000Y281902D01*
X813951Y282290D01*
X815605Y283395D01*
X815618Y283415D01*
X816815D01*
X818469Y282310D01*
X819420Y282121D01*
Y287020D01*
Y291919D01*
X818469Y291730D01*
X816815Y290625D01*
X816802Y290605D01*
X815957D01*
X815059Y291503D01*
Y300733D01*
X815267Y300941D01*
X817000D01*
Y294500D01*
X834000D01*
Y313500D01*
D02*
G37*
G36*
X844500Y323598D02*
X842549Y323210D01*
X840895Y322105D01*
X839790Y320451D01*
X839402Y318500D01*
X839790Y316549D01*
X840895Y314895D01*
X841164Y314715D01*
X840796Y313500D01*
X836000D01*
Y294500D01*
X853000D01*
Y313500D01*
X848204D01*
X847836Y314715D01*
X848105Y314895D01*
X849210Y316549D01*
X849598Y318500D01*
X849210Y320451D01*
X848105Y322105D01*
X846451Y323210D01*
X844500Y323598D01*
D02*
G37*
G36*
X594179Y301260D02*
X590280D01*
Y297361D01*
X591231Y297550D01*
X592885Y298655D01*
X593990Y300309D01*
X594179Y301260D01*
D02*
G37*
G36*
X713470Y302079D02*
Y298180D01*
X717369D01*
X717180Y299131D01*
X716075Y300785D01*
X714421Y301890D01*
X713470Y302079D01*
D02*
G37*
G36*
X588280Y307159D02*
X587329Y306970D01*
X585675Y305865D01*
X584570Y304211D01*
X584381Y303260D01*
X588280D01*
Y307159D01*
D02*
G37*
G36*
X711470Y302079D02*
X710519Y301890D01*
X708865Y300785D01*
X707760Y299131D01*
X707571Y298180D01*
X711470D01*
Y302079D01*
D02*
G37*
G36*
X632500Y306000D02*
X625000D01*
Y297500D01*
X632500D01*
Y306000D01*
D02*
G37*
G36*
X642000D02*
X634500D01*
Y297500D01*
X642000D01*
Y306000D01*
D02*
G37*
G36*
X600440Y294459D02*
Y290560D01*
X604339D01*
X604150Y291511D01*
X603045Y293165D01*
X601391Y294270D01*
X600440Y294459D01*
D02*
G37*
G36*
X518430Y288560D02*
X514531D01*
X514720Y287609D01*
X515825Y285955D01*
X517479Y284850D01*
X518430Y284661D01*
Y288560D01*
D02*
G37*
G36*
X524329D02*
X520430D01*
Y284661D01*
X521381Y284850D01*
X523035Y285955D01*
X524140Y287609D01*
X524329Y288560D01*
D02*
G37*
G36*
X825319Y286020D02*
X821420D01*
Y282121D01*
X822371Y282310D01*
X824025Y283415D01*
X825130Y285069D01*
X825319Y286020D01*
D02*
G37*
G36*
X642000Y291500D02*
X625000D01*
Y272500D01*
X642000D01*
Y276217D01*
X642982Y277023D01*
X643890Y276842D01*
X645841Y277230D01*
X647495Y278335D01*
X648600Y279989D01*
X648988Y281940D01*
X648600Y283891D01*
X647495Y285545D01*
X645841Y286650D01*
X643890Y287038D01*
X642982Y286857D01*
X642000Y287663D01*
Y291500D01*
D02*
G37*
G36*
X849000Y284500D02*
X832000D01*
Y279688D01*
X830880Y279089D01*
X829951Y279710D01*
X828000Y280098D01*
X826049Y279710D01*
X824395Y278605D01*
X823290Y276951D01*
X822902Y275000D01*
X823290Y273049D01*
X824395Y271395D01*
X826049Y270290D01*
X828000Y269902D01*
X829951Y270290D01*
X830880Y270911D01*
X832000Y270312D01*
Y265500D01*
X849000D01*
Y284500D01*
D02*
G37*
G36*
X598440Y288560D02*
X594541D01*
X594730Y287609D01*
X595835Y285955D01*
X597489Y284850D01*
X598440Y284661D01*
Y288560D01*
D02*
G37*
G36*
X520430Y294459D02*
Y290560D01*
X524329D01*
X524140Y291511D01*
X523035Y293165D01*
X521381Y294270D01*
X520430Y294459D01*
D02*
G37*
G36*
X598440D02*
X597489Y294270D01*
X595835Y293165D01*
X594730Y291511D01*
X594541Y290560D01*
X598440D01*
Y294459D01*
D02*
G37*
G36*
X518430D02*
X517479Y294270D01*
X515825Y293165D01*
X514720Y291511D01*
X514531Y290560D01*
X518430D01*
Y294459D01*
D02*
G37*
G36*
X604339Y288560D02*
X600440D01*
Y284661D01*
X601391Y284850D01*
X603045Y285955D01*
X604150Y287609D01*
X604339Y288560D01*
D02*
G37*
G36*
X821420Y291919D02*
Y288020D01*
X825319D01*
X825130Y288971D01*
X824025Y290625D01*
X822371Y291730D01*
X821420Y291919D01*
D02*
G37*
G36*
X672830Y154759D02*
Y150860D01*
X676729D01*
X676540Y151811D01*
X675435Y153465D01*
X673781Y154570D01*
X672830Y154759D01*
D02*
G37*
G36*
X708500Y159500D02*
X701000D01*
Y151000D01*
X708500D01*
Y159500D01*
D02*
G37*
G36*
X670830Y154759D02*
X669879Y154570D01*
X668225Y153465D01*
X667120Y151811D01*
X666931Y150860D01*
X670830D01*
Y154759D01*
D02*
G37*
G36*
X646700D02*
X645749Y154570D01*
X644095Y153465D01*
X642990Y151811D01*
X642801Y150860D01*
X646700D01*
Y154759D01*
D02*
G37*
G36*
X648700D02*
Y150860D01*
X652599D01*
X652410Y151811D01*
X651305Y153465D01*
X649651Y154570D01*
X648700Y154759D01*
D02*
G37*
G36*
X718000Y159500D02*
X710500D01*
Y151000D01*
X718000D01*
Y159500D01*
D02*
G37*
G36*
X708930Y169180D02*
X705031D01*
X705220Y168229D01*
X706325Y166575D01*
X707979Y165470D01*
X708930Y165281D01*
Y169180D01*
D02*
G37*
G36*
X722449D02*
X718550D01*
Y165281D01*
X719501Y165470D01*
X721155Y166575D01*
X722260Y168229D01*
X722449Y169180D01*
D02*
G37*
G36*
X674250Y162500D02*
X670500D01*
Y156500D01*
X674250D01*
Y162500D01*
D02*
G37*
G36*
X735500Y159500D02*
X728000D01*
Y151000D01*
X735500D01*
Y159500D01*
D02*
G37*
G36*
X745000D02*
X737500D01*
Y151000D01*
X745000D01*
Y159500D01*
D02*
G37*
G36*
X810000Y203087D02*
X805606Y202741D01*
X801321Y201712D01*
X797249Y200025D01*
X793491Y197722D01*
X790140Y194860D01*
X787278Y191509D01*
X784975Y187751D01*
X783288Y183679D01*
X782259Y179394D01*
X781913Y175000D01*
X782259Y170606D01*
X783288Y166321D01*
X784975Y162249D01*
X787278Y158491D01*
X790140Y155140D01*
X793491Y152277D01*
X797249Y149975D01*
X801321Y148288D01*
X805606Y147259D01*
X810000Y146913D01*
X814394Y147259D01*
X818679Y148288D01*
X822751Y149975D01*
X826509Y152277D01*
X829860Y155140D01*
X832722Y158491D01*
X835025Y162249D01*
X836712Y166321D01*
X837741Y170606D01*
X838087Y175000D01*
X837741Y179394D01*
X836712Y183679D01*
X835025Y187751D01*
X832722Y191509D01*
X829860Y194860D01*
X826509Y197722D01*
X822751Y200025D01*
X818679Y201712D01*
X814394Y202741D01*
X810000Y203087D01*
D02*
G37*
G36*
X718000Y149000D02*
X710500D01*
Y140500D01*
X718000D01*
Y149000D01*
D02*
G37*
G36*
X735500D02*
X728000D01*
Y140500D01*
X735500D01*
Y149000D01*
D02*
G37*
G36*
X708500D02*
X701000D01*
Y140500D01*
X708500D01*
Y149000D01*
D02*
G37*
G36*
X647790Y143941D02*
X647610D01*
X647566Y143500D01*
X645750D01*
Y130862D01*
X645365Y130605D01*
X644260Y128951D01*
X643872Y127000D01*
X644260Y125049D01*
X645365Y123395D01*
X647019Y122290D01*
X648970Y121902D01*
X650921Y122290D01*
X652575Y123395D01*
X653680Y125049D01*
X653708Y125192D01*
X653773Y125257D01*
X654777Y126759D01*
X655129Y128530D01*
X655129Y128530D01*
Y129500D01*
X655250D01*
Y143500D01*
X647834D01*
X647790Y143941D01*
D02*
G37*
G36*
X690025Y166388D02*
X688074Y166000D01*
X686420Y164895D01*
X685315Y163241D01*
X684927Y161290D01*
X685088Y160482D01*
X684282Y159500D01*
X682000D01*
Y140500D01*
X683923D01*
X684728Y139518D01*
X684512Y138430D01*
X684804Y136961D01*
X683684Y136363D01*
X681023Y139023D01*
X679866Y139797D01*
X678500Y140069D01*
X674250D01*
Y143500D01*
X671964D01*
X671920Y143941D01*
X671740D01*
X671696Y143500D01*
X664750D01*
Y129500D01*
X674250D01*
Y132931D01*
X677022D01*
X685477Y124477D01*
X686634Y123703D01*
X688000Y123431D01*
X738371D01*
X738395Y123395D01*
X740049Y122290D01*
X742000Y121902D01*
X743951Y122290D01*
X745605Y123395D01*
X746710Y125049D01*
X747098Y127000D01*
X746710Y128951D01*
X745605Y130605D01*
X743951Y131710D01*
X742000Y132098D01*
X740049Y131710D01*
X738395Y130605D01*
X738371Y130569D01*
X689478D01*
X687543Y132504D01*
X688141Y133624D01*
X689610Y133332D01*
X691561Y133720D01*
X693215Y134825D01*
X694320Y136479D01*
X694708Y138430D01*
X694492Y139518D01*
X695297Y140500D01*
X699000D01*
Y159500D01*
X695768D01*
X694962Y160482D01*
X695123Y161290D01*
X694735Y163241D01*
X693630Y164895D01*
X691976Y166000D01*
X690025Y166388D01*
D02*
G37*
G36*
X745000Y149000D02*
X737500D01*
Y140500D01*
X745000D01*
Y149000D01*
D02*
G37*
G36*
X670830Y148860D02*
X666931D01*
X667120Y147909D01*
X668225Y146255D01*
X669879Y145150D01*
X670830Y144961D01*
Y148860D01*
D02*
G37*
G36*
X600000Y203087D02*
X595606Y202741D01*
X591321Y201712D01*
X587249Y200025D01*
X583491Y197722D01*
X580140Y194860D01*
X577277Y191509D01*
X574975Y187751D01*
X573288Y183679D01*
X572259Y179394D01*
X571913Y175000D01*
X572259Y170606D01*
X573288Y166321D01*
X574975Y162249D01*
X577277Y158491D01*
X580140Y155140D01*
X583491Y152277D01*
X587249Y149975D01*
X591321Y148288D01*
X595606Y147259D01*
X600000Y146913D01*
X604394Y147259D01*
X608679Y148288D01*
X612751Y149975D01*
X616509Y152277D01*
X619860Y155140D01*
X622723Y158491D01*
X625025Y162249D01*
X626712Y166321D01*
X627741Y170606D01*
X628087Y175000D01*
X627741Y179394D01*
X626712Y183679D01*
X625025Y187751D01*
X622723Y191509D01*
X619860Y194860D01*
X616509Y197722D01*
X612751Y200025D01*
X608679Y201712D01*
X604394Y202741D01*
X600000Y203087D01*
D02*
G37*
G36*
X652599Y148860D02*
X648700D01*
Y144961D01*
X649651Y145150D01*
X651305Y146255D01*
X652410Y147909D01*
X652599Y148860D01*
D02*
G37*
G36*
X676729D02*
X672830D01*
Y144961D01*
X673781Y145150D01*
X675435Y146255D01*
X676540Y147909D01*
X676729Y148860D01*
D02*
G37*
G36*
X646700D02*
X642801D01*
X642990Y147909D01*
X644095Y146255D01*
X645749Y145150D01*
X646700Y144961D01*
Y148860D01*
D02*
G37*
G36*
X733060Y169180D02*
X729161D01*
X729350Y168229D01*
X730455Y166575D01*
X732109Y165470D01*
X733060Y165281D01*
Y169180D01*
D02*
G37*
G36*
X688000Y223500D02*
X680500D01*
Y215000D01*
X688000D01*
Y223500D01*
D02*
G37*
G36*
X888980Y224606D02*
X882648Y218274D01*
X883937Y217285D01*
X886370Y216277D01*
X888980Y215933D01*
X891591Y216277D01*
X894023Y217285D01*
X895312Y218274D01*
X888980Y224606D01*
D02*
G37*
G36*
X698319Y226330D02*
X688521D01*
X688710Y225379D01*
X689815Y223725D01*
X690026Y223585D01*
X690000Y223500D01*
X690000D01*
X690000Y223500D01*
Y210547D01*
X689173Y209720D01*
X688000Y210206D01*
Y213000D01*
X680500D01*
Y204500D01*
X682294D01*
X682780Y203327D01*
X676477Y197023D01*
X675703Y195866D01*
X675431Y194500D01*
Y186629D01*
X675395Y186605D01*
X674290Y184951D01*
X673902Y183000D01*
X674290Y181049D01*
X675395Y179395D01*
X677049Y178290D01*
X679000Y177902D01*
X680951Y178290D01*
X682605Y179395D01*
X683710Y181049D01*
X684098Y183000D01*
X683710Y184951D01*
X682605Y186605D01*
X682569Y186629D01*
Y193022D01*
X685677Y196130D01*
X686850Y195644D01*
Y188960D01*
X703850D01*
Y197460D01*
X699135D01*
X698372Y198390D01*
X693420D01*
Y200390D01*
X698319D01*
X698130Y201341D01*
X697025Y202995D01*
X696591Y203285D01*
X696960Y204500D01*
X707000D01*
Y214194D01*
X707979Y215000D01*
D01*
X707979Y215000D01*
X709930Y214612D01*
X711881Y215000D01*
X713535Y216105D01*
X714640Y217759D01*
X715028Y219710D01*
X714640Y221661D01*
X713535Y223315D01*
X711881Y224420D01*
X709930Y224808D01*
X707979Y224420D01*
X706602Y223500D01*
X698221D01*
X697623Y224620D01*
X698130Y225379D01*
X698319Y226330D01*
D02*
G37*
G36*
X713000Y213899D02*
X712049Y213710D01*
X710395Y212605D01*
X709290Y210951D01*
X709101Y210000D01*
X713000D01*
Y213899D01*
D02*
G37*
G36*
X715000D02*
Y210000D01*
X718899D01*
X718710Y210951D01*
X717605Y212605D01*
X715951Y213710D01*
X715000Y213899D01*
D02*
G37*
G36*
X881234Y232352D02*
X880245Y231063D01*
X879238Y228630D01*
X878894Y226020D01*
X879238Y223409D01*
X880245Y220977D01*
X881234Y219688D01*
X887566Y226020D01*
X881234Y232352D01*
D02*
G37*
G36*
X572000Y230500D02*
X563500D01*
Y223000D01*
X572000D01*
Y230500D01*
D02*
G37*
G36*
X582500D02*
X574000D01*
Y223000D01*
X582500D01*
Y230500D01*
D02*
G37*
G36*
X552500Y239000D02*
X533500D01*
Y222000D01*
X552500D01*
Y222000D01*
X553039Y222620D01*
D01*
X553039Y222620D01*
X554990Y222232D01*
X556941Y222620D01*
X558595Y223725D01*
X559700Y225379D01*
X560088Y227330D01*
X559700Y229281D01*
X558595Y230935D01*
X556941Y232040D01*
X556726Y232083D01*
X555064Y233744D01*
X553576Y234739D01*
X552500Y234953D01*
Y239000D01*
D02*
G37*
G36*
X896726Y232352D02*
X890395Y226020D01*
X896726Y219688D01*
X897715Y220977D01*
X898723Y223409D01*
X899066Y226020D01*
X898723Y228630D01*
X897715Y231063D01*
X896726Y232352D01*
D02*
G37*
G36*
X736600Y240048D02*
X734649Y239660D01*
X732995Y238555D01*
X731890Y236901D01*
X731502Y234950D01*
X731695Y233982D01*
X730889Y233000D01*
X727500D01*
Y216000D01*
X746500D01*
Y218995D01*
X747482Y219801D01*
X748030Y219692D01*
X749981Y220080D01*
X751635Y221185D01*
X752740Y222839D01*
X753128Y224790D01*
X752740Y226741D01*
X751635Y228395D01*
X749981Y229500D01*
X748030Y229888D01*
X747482Y229779D01*
X746500Y230585D01*
Y233000D01*
X742311D01*
X741505Y233982D01*
X741698Y234950D01*
X741310Y236901D01*
X740205Y238555D01*
X738551Y239660D01*
X736600Y240048D01*
D02*
G37*
G36*
X746500Y214000D02*
X738000D01*
Y206500D01*
X746500D01*
Y214000D01*
D02*
G37*
G36*
X716550Y175079D02*
X715599Y174890D01*
X713945Y173785D01*
X713535D01*
X711881Y174890D01*
X710930Y175079D01*
Y170180D01*
Y165281D01*
X711881Y165470D01*
X713535Y166575D01*
X713945D01*
X715599Y165470D01*
X716550Y165281D01*
Y170180D01*
Y175079D01*
D02*
G37*
G36*
X906941Y258122D02*
X892799Y243980D01*
X906941Y229838D01*
X911866Y234763D01*
X913039Y234277D01*
Y233365D01*
X823733Y144059D01*
X787367D01*
X763721Y167705D01*
X764090Y168920D01*
X765951Y169290D01*
X767605Y170395D01*
X768710Y172049D01*
X769098Y174000D01*
X769097Y174005D01*
X769995Y174903D01*
X770000Y174902D01*
X771951Y175290D01*
X773605Y176395D01*
X774710Y178049D01*
X775098Y180000D01*
X774710Y181951D01*
X773605Y183605D01*
X773059Y183970D01*
Y188733D01*
X782163Y197837D01*
X782826Y198829D01*
X783059Y200000D01*
X783059Y200000D01*
Y206030D01*
X783605Y206395D01*
X784710Y208049D01*
X785098Y210000D01*
X784710Y211951D01*
X783605Y213605D01*
X781951Y214710D01*
X780000Y215098D01*
X778049Y214710D01*
X776395Y213605D01*
X775635Y212467D01*
X774365D01*
X773605Y213605D01*
X771951Y214710D01*
X770000Y215098D01*
X768049Y214710D01*
X766395Y213605D01*
X765635Y212467D01*
X764365D01*
X763605Y213605D01*
X761951Y214710D01*
X760000Y215098D01*
X758049Y214710D01*
X756395Y213605D01*
X755290Y211951D01*
X754902Y210000D01*
X755290Y208049D01*
X756395Y206395D01*
X756941Y206030D01*
Y201267D01*
X747837Y192163D01*
X747174Y191171D01*
X746941Y190000D01*
X746941Y190000D01*
Y189390D01*
X746395Y189025D01*
X745290Y187371D01*
X744902Y185420D01*
X745290Y183469D01*
X746395Y181815D01*
X747205Y181274D01*
X746836Y180059D01*
X731366D01*
X731315Y180135D01*
X729661Y181240D01*
X727710Y181628D01*
X725759Y181240D01*
X724105Y180135D01*
X724065Y180075D01*
X722850Y180444D01*
Y185029D01*
X723832Y185835D01*
X724750Y185652D01*
X726701Y186040D01*
X728355Y187145D01*
X729460Y188799D01*
X729848Y190750D01*
X729460Y192701D01*
X728355Y194355D01*
X726701Y195460D01*
X724750Y195848D01*
X723832Y195665D01*
X722850Y196471D01*
Y197460D01*
X705850D01*
Y178460D01*
X721995D01*
X722801Y177478D01*
X722612Y176530D01*
X723000Y174579D01*
X724105Y172925D01*
X725759Y171820D01*
X727710Y171432D01*
X728152Y171520D01*
X728492Y171180D01*
X734060D01*
Y170180D01*
X735060D01*
Y165281D01*
X736011Y165470D01*
X737665Y166575D01*
X737870Y166882D01*
X739140D01*
X739345Y166575D01*
X740999Y165470D01*
X742950Y165082D01*
X744901Y165470D01*
X746555Y166575D01*
X747660Y168229D01*
X748048Y170180D01*
X747660Y172131D01*
X747199Y172821D01*
X747656Y173676D01*
X748912Y173862D01*
X755312Y167463D01*
X754943Y166247D01*
X753699Y166000D01*
X752045Y164895D01*
X750940Y163241D01*
X750552Y161290D01*
X750713Y160482D01*
X749907Y159500D01*
X747000D01*
Y140500D01*
X749963D01*
X750769Y139518D01*
X750552Y138430D01*
X750940Y136479D01*
X752045Y134825D01*
X753699Y133720D01*
X755650Y133332D01*
X757601Y133720D01*
X759255Y134825D01*
X760360Y136479D01*
X760748Y138430D01*
X760531Y139518D01*
X761337Y140500D01*
X764000D01*
Y157115D01*
X765173Y157601D01*
X783937Y138837D01*
X783937Y138837D01*
X784532Y138440D01*
X784929Y138174D01*
X786100Y137941D01*
X825000D01*
X825000Y137941D01*
X826171Y138174D01*
X827163Y138837D01*
X920163Y231837D01*
X920826Y232829D01*
X921059Y234000D01*
X920826Y235170D01*
X920163Y236163D01*
X920163Y236163D01*
X916714Y239612D01*
X921083Y243980D01*
X906941Y258122D01*
D02*
G37*
G36*
X718550Y175079D02*
Y171180D01*
X722449D01*
X722260Y172131D01*
X721155Y173785D01*
X719501Y174890D01*
X718550Y175079D01*
D02*
G37*
G36*
X642000Y229098D02*
X640049Y228710D01*
X638395Y227605D01*
X637290Y225951D01*
X636902Y224000D01*
X637290Y222049D01*
X638395Y220395D01*
X640049Y219290D01*
X642000Y218902D01*
X643951Y219290D01*
X645605Y220395D01*
X645970Y220941D01*
X647208D01*
X647577Y219726D01*
X647395Y219605D01*
X646290Y217951D01*
X645902Y216000D01*
X646290Y214049D01*
X647395Y212395D01*
X647941Y212030D01*
Y178970D01*
X647395Y178605D01*
X646290Y176951D01*
X645902Y175000D01*
X646290Y173049D01*
X647245Y171620D01*
X646646Y170500D01*
X646250D01*
Y156500D01*
X664750D01*
Y156500D01*
X664750Y156500D01*
Y156500D01*
Y156500D01*
D01*
D01*
X664750Y156500D01*
X668500D01*
Y163500D01*
X669500D01*
Y164500D01*
X674250D01*
Y169326D01*
X675000Y169941D01*
X693030D01*
X693395Y169395D01*
X695049Y168290D01*
X697000Y167902D01*
X698951Y168290D01*
X700605Y169395D01*
X701710Y171049D01*
X702098Y173000D01*
X701710Y174951D01*
X700605Y176605D01*
X699647Y177245D01*
X700016Y178460D01*
X703850D01*
Y186960D01*
X686850D01*
Y178460D01*
X693984D01*
X694353Y177245D01*
X693395Y176605D01*
X693030Y176059D01*
X676267D01*
X671059Y181267D01*
Y204500D01*
X678500D01*
Y214000D01*
Y223500D01*
X671000D01*
Y222188D01*
X670163Y223163D01*
Y223163D01*
X670163Y223163D01*
Y223163D01*
Y223163D01*
D01*
X667163Y226163D01*
X666171Y226826D01*
X665000Y227059D01*
X665000Y227059D01*
X645970D01*
X645605Y227605D01*
X643951Y228710D01*
X642000Y229098D01*
D02*
G37*
G36*
X708930Y175079D02*
X707979Y174890D01*
X706325Y173785D01*
X705220Y172131D01*
X705031Y171180D01*
X708930D01*
Y175079D01*
D02*
G37*
G36*
X736000Y204500D02*
X727500D01*
Y197000D01*
X736000D01*
Y204500D01*
D02*
G37*
G36*
X718899Y208000D02*
X715000D01*
Y204101D01*
X715951Y204290D01*
X717605Y205395D01*
X718710Y207049D01*
X718899Y208000D01*
D02*
G37*
G36*
X736000Y214000D02*
X727500D01*
Y206500D01*
X736000D01*
Y214000D01*
D02*
G37*
G36*
X713000Y208000D02*
X709101D01*
X709290Y207049D01*
X710395Y205395D01*
X712049Y204290D01*
X713000Y204101D01*
Y208000D01*
D02*
G37*
G36*
X746500Y204500D02*
X738000D01*
Y197000D01*
X746500D01*
Y204500D01*
D02*
G37*
G36*
X815000Y249098D02*
X813049Y248710D01*
X811395Y247605D01*
X810290Y245951D01*
X809902Y244000D01*
X810290Y242049D01*
X811395Y240395D01*
X813049Y239290D01*
X815000Y238902D01*
X815644Y239030D01*
X848778Y205896D01*
X848778Y205896D01*
X849373Y205499D01*
X849770Y205233D01*
X850941Y205000D01*
X861463D01*
X862285Y203016D01*
X863888Y200927D01*
X865977Y199324D01*
X868409Y198317D01*
X871020Y197973D01*
X873630Y198317D01*
X876063Y199324D01*
X878152Y200927D01*
X879755Y203016D01*
X880762Y205449D01*
X881106Y208059D01*
X880762Y210670D01*
X879755Y213102D01*
X878152Y215191D01*
X876063Y216794D01*
X873630Y217802D01*
X871020Y218146D01*
X868409Y217802D01*
X865977Y216794D01*
X863888Y215191D01*
X862285Y213102D01*
X861463Y211118D01*
X852208D01*
X846393Y216933D01*
X847230Y217888D01*
X848016Y217285D01*
X850449Y216277D01*
X853059Y215933D01*
X855670Y216277D01*
X858102Y217285D01*
X860191Y218888D01*
X861794Y220977D01*
X862802Y223409D01*
X863145Y226020D01*
X862802Y228630D01*
X861794Y231063D01*
X860191Y233152D01*
X858102Y234755D01*
X855670Y235762D01*
X853059Y236106D01*
X850449Y235762D01*
X848016Y234755D01*
X845927Y233152D01*
X844324Y231063D01*
X843317Y228630D01*
X842973Y226020D01*
X843317Y223409D01*
X844324Y220977D01*
X844928Y220191D01*
X843973Y219353D01*
X819970Y243356D01*
X820098Y244000D01*
X819710Y245951D01*
X818605Y247605D01*
X816951Y248710D01*
X815000Y249098D01*
D02*
G37*
G36*
X590280Y307159D02*
Y303260D01*
X594179D01*
X593990Y304211D01*
X592885Y305865D01*
X591231Y306970D01*
X590280Y307159D01*
D02*
G37*
G36*
X1080000Y470093D02*
X1075293Y469722D01*
X1070701Y468620D01*
X1066338Y466813D01*
X1062312Y464346D01*
X1058721Y461279D01*
X1055655Y457688D01*
X1053187Y453662D01*
X1051670Y450000D01*
X1052692D01*
X1053398Y448944D01*
X1053288Y448679D01*
X1052259Y444394D01*
X1051913Y440000D01*
X1052259Y435606D01*
X1053288Y431321D01*
X1054975Y427249D01*
X1057278Y423491D01*
X1060140Y420140D01*
X1063491Y417277D01*
X1067249Y414975D01*
X1071321Y413288D01*
X1075606Y412259D01*
X1080000Y411913D01*
X1084394Y412259D01*
X1088679Y413288D01*
X1092751Y414975D01*
X1096509Y417277D01*
X1099860Y420140D01*
X1102722Y423491D01*
X1105025Y427249D01*
X1106712Y431321D01*
X1107741Y435606D01*
X1108087Y440000D01*
X1107741Y444394D01*
X1106712Y448679D01*
X1106602Y448944D01*
X1107308Y450000D01*
X1108330D01*
X1106813Y453662D01*
X1104345Y457688D01*
X1101279Y461279D01*
X1097688Y464346D01*
X1093662Y466813D01*
X1089299Y468620D01*
X1084707Y469722D01*
X1080000Y470093D01*
D02*
G37*
G36*
X663210Y417649D02*
X662259Y417460D01*
X660605Y416355D01*
X659500Y414701D01*
X659311Y413750D01*
X663210D01*
Y417649D01*
D02*
G37*
G36*
X332000Y470093D02*
X327293Y469722D01*
X322701Y468620D01*
X318338Y466813D01*
X314312Y464346D01*
X310721Y461279D01*
X307654Y457688D01*
X305187Y453662D01*
X303670Y450000D01*
X304692D01*
X305398Y448944D01*
X305288Y448679D01*
X304259Y444394D01*
X303913Y440000D01*
X304259Y435606D01*
X305288Y431321D01*
X306975Y427249D01*
X309277Y423491D01*
X312140Y420140D01*
X315491Y417277D01*
X319249Y414975D01*
X323321Y413288D01*
X327606Y412259D01*
X332000Y411913D01*
X336394Y412259D01*
X340679Y413288D01*
X344751Y414975D01*
X348509Y417277D01*
X351860Y420140D01*
X354723Y423491D01*
X357025Y427249D01*
X358712Y431321D01*
X359741Y435606D01*
X360087Y440000D01*
X359741Y444394D01*
X358712Y448679D01*
X358602Y448944D01*
X359308Y450000D01*
X360330D01*
X358813Y453662D01*
X356345Y457688D01*
X353279Y461279D01*
X349688Y464346D01*
X345662Y466813D01*
X341299Y468620D01*
X336707Y469722D01*
X332000Y470093D01*
D02*
G37*
G36*
X663210Y411750D02*
X659311D01*
X659500Y410799D01*
X660605Y409145D01*
X662259Y408040D01*
X663210Y407851D01*
Y411750D01*
D02*
G37*
G36*
X669109D02*
X665210D01*
Y407851D01*
X666161Y408040D01*
X667815Y409145D01*
X668920Y410799D01*
X669109Y411750D01*
D02*
G37*
G36*
X665210Y417649D02*
Y413750D01*
X669109D01*
X668920Y414701D01*
X667815Y416355D01*
X666161Y417460D01*
X665210Y417649D01*
D02*
G37*
G36*
X766500Y438000D02*
X747500D01*
Y422485D01*
X746327Y421999D01*
X736663Y431663D01*
X735670Y432326D01*
X734500Y432559D01*
X734500Y432559D01*
X726500D01*
Y438000D01*
X707500D01*
Y421000D01*
X726500D01*
Y426441D01*
X733233D01*
X748941Y410733D01*
Y371381D01*
X747857Y370657D01*
X747821Y370637D01*
X746171Y371740D01*
X745220Y371929D01*
Y367030D01*
Y362131D01*
X746171Y362320D01*
X747821Y363423D01*
X747857Y363404D01*
X748941Y362679D01*
Y358297D01*
X738703Y348059D01*
X720719D01*
X720350Y349274D01*
X721193Y349837D01*
X733683Y362327D01*
X734346Y363320D01*
X734579Y364490D01*
Y375253D01*
X739356Y380030D01*
X740000Y379902D01*
X741951Y380290D01*
X743605Y381395D01*
X744710Y383049D01*
X745098Y385000D01*
X744710Y386951D01*
X743605Y388605D01*
X741951Y389710D01*
X740000Y390098D01*
X738636Y389827D01*
X737931Y390883D01*
X738710Y392049D01*
X739098Y394000D01*
X738710Y395951D01*
X737605Y397605D01*
X735951Y398710D01*
X734000Y399098D01*
X732049Y398710D01*
X730395Y397605D01*
X730142Y397226D01*
X728610Y396921D01*
X727505Y398575D01*
X725851Y399680D01*
X723900Y400068D01*
X723034Y399896D01*
X721978Y400601D01*
X721710Y401951D01*
X720605Y403605D01*
X718951Y404710D01*
X717000Y405098D01*
X715049Y404710D01*
X714602Y404411D01*
X713500Y405000D01*
Y405000D01*
X713500Y405000D01*
X694500D01*
Y399559D01*
X688500D01*
Y405000D01*
X669500D01*
Y399559D01*
X663500D01*
Y405000D01*
X644500D01*
Y388000D01*
X663500D01*
Y393441D01*
X669500D01*
Y388000D01*
X688500D01*
Y393441D01*
X694500D01*
Y388000D01*
X713500D01*
Y393441D01*
X713500Y393441D01*
X714670Y393674D01*
X715663Y394337D01*
X716356Y395030D01*
X717000Y394902D01*
X717983Y395098D01*
X718582Y393978D01*
X715837Y391233D01*
X715174Y390241D01*
X714941Y389070D01*
X714941Y389070D01*
Y371860D01*
X713885Y371154D01*
X713500Y371314D01*
Y376500D01*
X694500D01*
Y369000D01*
X696312D01*
X696911Y367880D01*
X696290Y366951D01*
X695902Y365000D01*
X696290Y363049D01*
X695761Y362059D01*
X685887D01*
X685710Y362951D01*
X684605Y364605D01*
X682951Y365710D01*
X681000Y366098D01*
X679049Y365710D01*
X677395Y364605D01*
X676290Y362951D01*
X675902Y361000D01*
X676290Y359049D01*
X677395Y357395D01*
X679049Y356290D01*
X681000Y355902D01*
X682098Y356120D01*
X683000Y355941D01*
X699311D01*
X699680Y354726D01*
X698837Y354163D01*
X689837Y345163D01*
X689174Y344170D01*
X688941Y343000D01*
X688941Y343000D01*
Y334500D01*
X688000D01*
Y334500D01*
X680500D01*
Y325000D01*
X679500D01*
Y324000D01*
X671000D01*
Y315500D01*
X671000D01*
X671000Y314500D01*
X671000D01*
Y306000D01*
X688000D01*
Y314500D01*
X688000D01*
X688000Y315500D01*
X688000Y315500D01*
Y315500D01*
Y324312D01*
X689120Y324911D01*
X690049Y324290D01*
X692000Y323902D01*
X693951Y324290D01*
X694821Y324872D01*
X695941Y324273D01*
Y316970D01*
X695395Y316605D01*
X694290Y314951D01*
X693902Y313000D01*
X694290Y311049D01*
X695395Y309395D01*
X697049Y308290D01*
X699000Y307902D01*
X700951Y308290D01*
X702605Y309395D01*
X703710Y311049D01*
X704098Y313000D01*
X703710Y314951D01*
X702605Y316605D01*
X702059Y316970D01*
Y332733D01*
X711267Y341941D01*
X739970D01*
X739970Y341941D01*
X741141Y342174D01*
X742133Y342837D01*
X752768Y353472D01*
X753941Y352986D01*
Y313267D01*
X744723Y304049D01*
X728990D01*
X728990Y304049D01*
X727820Y303816D01*
X726827Y303153D01*
X726644Y302970D01*
X726000Y303098D01*
X724049Y302710D01*
X722395Y301605D01*
X721290Y299951D01*
X720902Y298000D01*
X721290Y296049D01*
X721577Y295620D01*
X720978Y294500D01*
X718036D01*
X717230Y295482D01*
X717369Y296180D01*
X707571D01*
X707760Y295229D01*
X707760Y295229D01*
X707000Y294500D01*
X707000D01*
Y286000D01*
X724000D01*
Y292299D01*
X724852Y292998D01*
X726000Y292455D01*
Y275500D01*
X743000D01*
Y286874D01*
X746028Y289902D01*
X746171Y289930D01*
X747825Y291035D01*
X748930Y292689D01*
X749318Y294640D01*
X748930Y296591D01*
X747825Y298245D01*
Y298245D01*
X747825D01*
X748153Y298827D01*
X759163Y309837D01*
X759826Y310830D01*
X760059Y312000D01*
Y421000D01*
X766500D01*
Y438000D01*
D02*
G37*
G36*
X611140Y430349D02*
X610189Y430160D01*
X608535Y429055D01*
X607430Y427401D01*
X607241Y426450D01*
X611140D01*
Y430349D01*
D02*
G37*
G36*
X617039Y424450D02*
X613140D01*
Y420551D01*
X614091Y420740D01*
X615745Y421845D01*
X616850Y423499D01*
X617039Y424450D01*
D02*
G37*
G36*
X594500Y439000D02*
X575500D01*
Y426768D01*
X573696Y424964D01*
X572812Y423641D01*
X572761Y423382D01*
X572502Y422080D01*
X572502Y422080D01*
Y421996D01*
X571870Y421051D01*
X571482Y419100D01*
X571870Y417149D01*
X572975Y415495D01*
X574629Y414390D01*
X576580Y414002D01*
X578531Y414390D01*
X580185Y415495D01*
X581290Y417149D01*
X581678Y419100D01*
X581295Y421027D01*
X582268Y422000D01*
X594500D01*
Y439000D01*
D02*
G37*
G36*
X611140Y424450D02*
X607241D01*
X607430Y423499D01*
X608535Y421845D01*
X610189Y420740D01*
X611140Y420551D01*
Y424450D01*
D02*
G37*
G36*
X1025000Y408047D02*
X1022390Y407703D01*
X1019957Y406696D01*
X1017868Y405093D01*
X1016265Y403004D01*
X1015257Y400571D01*
X1014914Y397961D01*
X1015257Y395350D01*
X1016265Y392917D01*
X1017868Y390829D01*
X1019957Y389226D01*
X1022390Y388218D01*
X1025000Y387874D01*
X1027610Y388218D01*
X1030043Y389226D01*
X1032132Y390829D01*
X1033735Y392917D01*
X1034743Y395350D01*
X1035086Y397961D01*
X1034743Y400571D01*
X1033735Y403004D01*
X1032132Y405093D01*
X1030043Y406696D01*
X1027610Y407703D01*
X1025000Y408047D01*
D02*
G37*
G36*
X853259Y381270D02*
X849360D01*
Y377371D01*
X850311Y377560D01*
X851965Y378665D01*
X853070Y380319D01*
X853259Y381270D01*
D02*
G37*
G36*
X678000Y386000D02*
X669500D01*
Y378500D01*
X678000D01*
Y386000D01*
D02*
G37*
G36*
X1042961Y394142D02*
X1031877Y383059D01*
X1025000D01*
X1023829Y382826D01*
X1022837Y382163D01*
X1022837Y382163D01*
X1017985Y377310D01*
X1016846Y377872D01*
X1017126Y380000D01*
X1016782Y382611D01*
X1015774Y385043D01*
X1014786Y386332D01*
X1007747Y379293D01*
X1000708Y372254D01*
X1001996Y371265D01*
X1004429Y370257D01*
X1007039Y369914D01*
X1009167Y370194D01*
X1009729Y369055D01*
X995733Y355059D01*
X938000D01*
X936829Y354826D01*
X936432Y354560D01*
X935837Y354163D01*
X935837Y354163D01*
X920644Y338970D01*
X920000Y339098D01*
X918049Y338710D01*
X916395Y337605D01*
X915290Y335951D01*
X914902Y334000D01*
X915290Y332049D01*
X916395Y330395D01*
X918049Y329290D01*
X920000Y328902D01*
X921951Y329290D01*
X923605Y330395D01*
X924710Y332049D01*
X925098Y334000D01*
X924970Y334644D01*
X939267Y348941D01*
X954311D01*
X954680Y347726D01*
X953837Y347163D01*
X953837Y347163D01*
X913644Y306970D01*
X913000Y307098D01*
X911049Y306710D01*
X909395Y305605D01*
X908290Y303951D01*
X907902Y302000D01*
X908290Y300049D01*
X909395Y298395D01*
X911049Y297290D01*
X913000Y296902D01*
X914951Y297290D01*
X916605Y298395D01*
X917710Y300049D01*
X918098Y302000D01*
X917970Y302644D01*
X957267Y341941D01*
X1008000D01*
X1008000Y341941D01*
X1009171Y342174D01*
X1010163Y342837D01*
X1020433Y353107D01*
X1022390Y352297D01*
X1025000Y351953D01*
X1027610Y352297D01*
X1030043Y353304D01*
X1032132Y354907D01*
X1033735Y356996D01*
X1034743Y359429D01*
X1035086Y362039D01*
X1034743Y364650D01*
X1033735Y367083D01*
X1032132Y369172D01*
X1030043Y370774D01*
X1027610Y371782D01*
X1025000Y372126D01*
X1022872Y371846D01*
X1022310Y372985D01*
X1026267Y376941D01*
X1031877D01*
X1042961Y365858D01*
X1057103Y380000D01*
X1042961Y394142D01*
D02*
G37*
G36*
X688500Y376500D02*
X680000D01*
Y369000D01*
X688500D01*
Y376500D01*
D02*
G37*
G36*
X999293Y386332D02*
X998305Y385043D01*
X997297Y382611D01*
X996953Y380000D01*
X997297Y377389D01*
X998305Y374957D01*
X999293Y373668D01*
X1005625Y380000D01*
X999293Y386332D01*
D02*
G37*
G36*
X688500Y386000D02*
X680000D01*
Y378500D01*
X688500D01*
Y386000D01*
D02*
G37*
G36*
X849360Y387169D02*
Y383270D01*
X853259D01*
X853070Y384221D01*
X851965Y385875D01*
X850311Y386980D01*
X849360Y387169D01*
D02*
G37*
G36*
X847360D02*
X846409Y386980D01*
X844755Y385875D01*
X843837Y384500D01*
X843000Y384500D01*
X843000D01*
X842705Y384500D01*
X842705Y384500D01*
X842705Y384500D01*
X840175D01*
X839699Y385080D01*
X829081D01*
X828605Y384500D01*
X826000D01*
Y376000D01*
X843000D01*
Y379105D01*
X844215Y379473D01*
X844755Y378665D01*
X846409Y377560D01*
X847360Y377371D01*
Y382270D01*
Y387169D01*
D02*
G37*
G36*
X1007039Y390086D02*
X1004429Y389743D01*
X1001996Y388735D01*
X1000708Y387746D01*
X1007039Y381414D01*
X1013371Y387746D01*
X1012083Y388735D01*
X1009650Y389743D01*
X1007039Y390086D01*
D02*
G37*
G36*
X703000Y386000D02*
X694500D01*
Y378500D01*
X703000D01*
Y386000D01*
D02*
G37*
G36*
X713500D02*
X705000D01*
Y378500D01*
X713500D01*
Y386000D01*
D02*
G37*
G36*
X613140Y430349D02*
Y426450D01*
X617039D01*
X616850Y427401D01*
X615745Y429055D01*
X614091Y430160D01*
X613140Y430349D01*
D02*
G37*
G36*
X1116000Y539817D02*
X1113977Y539551D01*
X1112092Y538770D01*
X1111242Y538117D01*
X1104000D01*
X1101659Y537652D01*
X1100864Y537121D01*
X1099674Y536326D01*
X1083039Y519690D01*
X1081977Y519551D01*
X1080092Y518770D01*
X1078473Y517527D01*
X1077230Y515908D01*
X1076450Y514023D01*
X1076183Y512000D01*
X1076450Y509977D01*
X1077230Y508092D01*
X1078473Y506473D01*
X1080092Y505230D01*
X1081977Y504450D01*
X1084000Y504183D01*
X1086023Y504450D01*
X1087908Y505230D01*
X1089527Y506473D01*
X1090770Y508092D01*
X1091551Y509977D01*
X1091690Y511039D01*
X1106534Y525882D01*
X1111242D01*
X1112092Y525230D01*
X1113977Y524450D01*
X1116000Y524183D01*
X1118023Y524450D01*
X1119909Y525230D01*
X1121527Y526473D01*
X1122770Y528092D01*
X1123550Y529977D01*
X1123817Y532000D01*
X1123550Y534023D01*
X1122770Y535909D01*
X1121527Y537527D01*
X1119909Y538770D01*
X1118023Y539551D01*
X1116000Y539817D01*
D02*
G37*
G36*
X1067000Y656817D02*
X1064977Y656551D01*
X1063092Y655770D01*
X1061473Y654527D01*
X1060230Y652908D01*
X1059449Y651023D01*
X1059183Y649000D01*
X1059449Y646977D01*
X1060230Y645092D01*
X1061473Y643473D01*
X1063092Y642230D01*
X1064977Y641450D01*
X1067000Y641183D01*
X1067537Y641254D01*
X1069902Y638888D01*
Y612112D01*
X1060395Y602605D01*
X1059290Y600951D01*
X1058902Y599000D01*
Y578857D01*
X1058473Y578527D01*
X1057230Y576908D01*
X1056450Y575023D01*
X1056183Y573000D01*
X1056450Y570977D01*
X1057230Y569092D01*
X1058473Y567473D01*
X1058825Y567203D01*
X1058416Y566000D01*
X1037000D01*
Y560117D01*
X1023000D01*
X1020659Y559652D01*
X1018674Y558326D01*
X1017348Y556341D01*
X1016882Y554000D01*
Y545758D01*
X1016230Y544908D01*
X1015450Y543023D01*
X1015183Y541000D01*
X1015450Y538977D01*
X1016230Y537092D01*
X1017473Y535473D01*
X1019092Y534230D01*
X1020977Y533450D01*
X1023000Y533183D01*
X1025023Y533450D01*
X1026908Y534230D01*
X1028284Y535286D01*
X1029122Y534331D01*
X1011395Y516605D01*
X1010290Y514951D01*
X1009902Y513000D01*
Y457915D01*
X1008846Y457210D01*
X1008023Y457551D01*
X1006000Y457817D01*
X1003977Y457551D01*
X1002092Y456770D01*
X1000473Y455527D01*
X999230Y453908D01*
X998449Y452023D01*
X998183Y450000D01*
X948652D01*
X918326Y480326D01*
X914118Y484534D01*
Y532572D01*
X915291Y533058D01*
X921882Y526466D01*
Y513758D01*
X921230Y512908D01*
X920450Y511023D01*
X920183Y509000D01*
X920450Y506977D01*
X921230Y505092D01*
X922473Y503473D01*
X924092Y502230D01*
X925977Y501450D01*
X928000Y501183D01*
X930023Y501450D01*
X931908Y502230D01*
X933527Y503473D01*
X934770Y505092D01*
X935551Y506977D01*
X935817Y509000D01*
X935551Y511023D01*
X934770Y512908D01*
X934118Y513758D01*
Y529000D01*
X933652Y531341D01*
X932326Y533326D01*
X906500Y559151D01*
Y562189D01*
X907673Y562675D01*
X920424Y549924D01*
X922409Y548598D01*
X923726Y548336D01*
X924842Y547480D01*
X926727Y546699D01*
X928750Y546433D01*
X930773Y546699D01*
X932658Y547480D01*
X934277Y548723D01*
X935520Y550342D01*
X936301Y552227D01*
X936567Y554250D01*
X936301Y556273D01*
X935520Y558158D01*
X934277Y559777D01*
X932658Y561020D01*
X930773Y561801D01*
X928750Y562067D01*
X926727Y561801D01*
X926107Y561544D01*
X908826Y578826D01*
X906841Y580152D01*
X906500Y580220D01*
Y585000D01*
X883500D01*
Y579043D01*
X883174Y578826D01*
X877674Y573326D01*
X876348Y571341D01*
X875882Y569000D01*
Y545000D01*
X876175Y543529D01*
X875097Y542858D01*
X873908Y543770D01*
X872023Y544551D01*
X870000Y544817D01*
X867977Y544551D01*
X866092Y543770D01*
X864473Y542527D01*
X863230Y540908D01*
X862449Y539023D01*
X862183Y537000D01*
X862321Y535955D01*
X861483Y535000D01*
X858500D01*
Y514000D01*
X873290D01*
X877902Y509388D01*
Y450000D01*
X869352D01*
X868943Y451203D01*
X869992Y452008D01*
X871115Y453470D01*
X871820Y455173D01*
X872060Y457000D01*
X871820Y458827D01*
X871115Y460530D01*
X870370Y461500D01*
X871115Y462470D01*
X871820Y464173D01*
X872060Y466000D01*
X871820Y467827D01*
X871115Y469530D01*
X869992Y470993D01*
X868530Y472114D01*
X866827Y472820D01*
X865000Y473060D01*
X863173Y472820D01*
X861470Y472114D01*
X860145Y471098D01*
X857000D01*
X855049Y470710D01*
X853395Y469605D01*
X853043Y469253D01*
X851904Y469815D01*
X852060Y471000D01*
X851820Y472827D01*
X851115Y474530D01*
X850370Y475500D01*
X851115Y476470D01*
X851820Y478173D01*
X852060Y480000D01*
X851820Y481827D01*
X851115Y483530D01*
X849993Y484992D01*
X848530Y486115D01*
X846827Y486820D01*
X845000Y487060D01*
X843173Y486820D01*
X841470Y486115D01*
X840145Y485098D01*
X839500D01*
X837549Y484710D01*
X835895Y483605D01*
X802290Y450000D01*
X803515D01*
X804001Y448827D01*
X787837Y432663D01*
X787174Y431671D01*
X786941Y430500D01*
X786941Y430500D01*
Y426970D01*
X786395Y426605D01*
X785290Y424951D01*
X784902Y423000D01*
X785290Y421049D01*
X786395Y419395D01*
X786941Y419030D01*
Y408000D01*
X780500D01*
Y393059D01*
X778000D01*
X776830Y392826D01*
X775837Y392163D01*
X773837Y390163D01*
X773174Y389170D01*
X772941Y388000D01*
X772941Y388000D01*
Y312267D01*
X768644Y307970D01*
X768000Y308098D01*
X766049Y307710D01*
X764395Y306605D01*
X763290Y304951D01*
X762902Y303000D01*
X763290Y301049D01*
X764395Y299395D01*
Y298605D01*
X763290Y296951D01*
X762902Y295000D01*
X763290Y293049D01*
X764395Y291395D01*
X766049Y290290D01*
X768000Y289902D01*
X769951Y290290D01*
X771605Y291395D01*
X772118Y292164D01*
X772170Y292174D01*
X773163Y292837D01*
X791163Y310837D01*
X791163Y310837D01*
X791560Y311432D01*
X791826Y311829D01*
X792059Y313000D01*
Y337733D01*
X803267Y348941D01*
X851030D01*
X851395Y348395D01*
X853049Y347290D01*
X855000Y346902D01*
X856951Y347290D01*
X858605Y348395D01*
X859710Y350049D01*
X860098Y352000D01*
X859710Y353951D01*
X858605Y355605D01*
X856951Y356710D01*
X855000Y357098D01*
X853049Y356710D01*
X851395Y355605D01*
X851030Y355059D01*
X802000D01*
X800829Y354826D01*
X799837Y354163D01*
X786837Y341163D01*
X786174Y340171D01*
X785941Y339000D01*
X785941Y339000D01*
Y314267D01*
X774413Y302738D01*
X773775Y302865D01*
X773447Y303948D01*
X773522Y304196D01*
X778163Y308837D01*
X778826Y309830D01*
X779059Y311000D01*
Y386733D01*
X779267Y386941D01*
X780500D01*
Y372000D01*
X784324D01*
X785130Y371018D01*
X784842Y369570D01*
X785230Y367619D01*
X786335Y365965D01*
X787989Y364860D01*
X789940Y364472D01*
X791891Y364860D01*
X793545Y365965D01*
X794650Y367619D01*
X795038Y369570D01*
X794750Y371018D01*
X795556Y372000D01*
X799500D01*
Y386941D01*
X801480D01*
X801480Y386941D01*
X802651Y387174D01*
X803643Y387837D01*
X806447Y390641D01*
X830077D01*
X830676Y389521D01*
X829680Y388031D01*
X829491Y387080D01*
X839289D01*
X839100Y388031D01*
X838104Y389521D01*
X838703Y390641D01*
X855033D01*
X863030Y382644D01*
X862902Y382000D01*
X863290Y380049D01*
X864395Y378395D01*
X866049Y377290D01*
X868000Y376902D01*
X869951Y377290D01*
X871605Y378395D01*
X872710Y380049D01*
X873098Y382000D01*
X872710Y383951D01*
X871605Y385605D01*
X869951Y386710D01*
X868000Y387098D01*
X867356Y386970D01*
X858463Y395863D01*
X857470Y396526D01*
X856300Y396759D01*
X856300Y396759D01*
X805180D01*
X804009Y396526D01*
X803612Y396260D01*
X803017Y395863D01*
X803017Y395863D01*
X800673Y393519D01*
X799500Y394005D01*
Y408000D01*
X793059D01*
Y419030D01*
X793605Y419395D01*
X794710Y421049D01*
X795098Y423000D01*
X794710Y424951D01*
X793605Y426605D01*
X793059Y426970D01*
Y429233D01*
X813826Y450000D01*
X823745D01*
X824231Y448827D01*
X803284Y427880D01*
X802640Y428008D01*
X800689Y427620D01*
X799035Y426515D01*
X797930Y424861D01*
X797542Y422910D01*
X797930Y420959D01*
X799035Y419305D01*
X800689Y418200D01*
X802640Y417812D01*
X804591Y418200D01*
X806245Y419305D01*
X807013Y420455D01*
X808259Y420207D01*
X808290Y420049D01*
X809395Y418395D01*
X811049Y417290D01*
X811829Y417135D01*
Y415865D01*
X811049Y415710D01*
X809395Y414605D01*
X808290Y412951D01*
X807902Y411000D01*
X808290Y409049D01*
X809395Y407395D01*
X811049Y406290D01*
X813000Y405902D01*
X814951Y406290D01*
X816605Y407395D01*
X817345Y408503D01*
X818615D01*
X819355Y407395D01*
X821009Y406290D01*
X822960Y405902D01*
X824911Y406290D01*
X826565Y407395D01*
X826930Y407941D01*
X880733D01*
X880837Y407837D01*
X891837Y396837D01*
X891837Y396837D01*
X892432Y396440D01*
X892829Y396174D01*
X894000Y395941D01*
X1000000D01*
X1000000Y395941D01*
X1001171Y396174D01*
X1002163Y396837D01*
X1017163Y411837D01*
X1017163Y411837D01*
X1017826Y412830D01*
X1018059Y414000D01*
X1018059Y414000D01*
Y450000D01*
X1020098D01*
Y510888D01*
X1035827Y526617D01*
X1037000Y526131D01*
Y514000D01*
X1043883D01*
Y500000D01*
Y497034D01*
X1036849Y490000D01*
X1023500D01*
Y469000D01*
Y450000D01*
X1023500Y450000D01*
X1023500Y450000D01*
X1026694D01*
X1026939Y448768D01*
X1025616Y447884D01*
X1024732Y446561D01*
X1024521Y445500D01*
X1020500D01*
Y434500D01*
X1036500D01*
Y435922D01*
X1038810D01*
X1038855Y435854D01*
X1040757Y434584D01*
X1043000Y434137D01*
X1045244Y434584D01*
X1047145Y435854D01*
X1048416Y437757D01*
X1048863Y440000D01*
X1048416Y442243D01*
X1047145Y444146D01*
X1047078Y444190D01*
Y450000D01*
X1049118D01*
Y452500D01*
X1048652Y454841D01*
X1047326Y456826D01*
X1046500Y457651D01*
Y469000D01*
Y482349D01*
X1054326Y490174D01*
X1055121Y491364D01*
X1055652Y492159D01*
X1056117Y494500D01*
Y500000D01*
Y514000D01*
X1063000D01*
Y536790D01*
X1067731Y541521D01*
X1068473Y541473D01*
X1070092Y540230D01*
X1071977Y539450D01*
X1074000Y539183D01*
X1076023Y539450D01*
X1077908Y540230D01*
X1079527Y541473D01*
X1080770Y543092D01*
X1081551Y544977D01*
X1081817Y547000D01*
X1081746Y547537D01*
X1089112Y554902D01*
X1126143D01*
X1126473Y554473D01*
X1128092Y553230D01*
X1129977Y552449D01*
X1132000Y552183D01*
X1134023Y552449D01*
X1135908Y553230D01*
X1137527Y554473D01*
X1137857Y554902D01*
X1145000D01*
Y550500D01*
X1166000D01*
Y573500D01*
X1150869D01*
X1150383Y574673D01*
X1151210Y575500D01*
X1166000D01*
Y598500D01*
X1149098D01*
Y600500D01*
X1166000D01*
Y623500D01*
X1145000D01*
Y616009D01*
X1144395Y615605D01*
X1140395Y611605D01*
X1139290Y609951D01*
X1138902Y608000D01*
Y597112D01*
X1133420Y591630D01*
X1132000Y591817D01*
X1129977Y591550D01*
X1128092Y590770D01*
X1126473Y589527D01*
X1125230Y587909D01*
X1124449Y586023D01*
X1124196Y584098D01*
X1083857D01*
X1083527Y584527D01*
X1081908Y585770D01*
X1080023Y586550D01*
X1078000Y586817D01*
X1075977Y586550D01*
X1074092Y585770D01*
X1072473Y584527D01*
X1071230Y582909D01*
X1070450Y581023D01*
X1070385Y580534D01*
X1070301Y580424D01*
X1069098Y580832D01*
Y596888D01*
X1078605Y606395D01*
X1079710Y608049D01*
X1080098Y610000D01*
Y641000D01*
X1079710Y642951D01*
X1078605Y644605D01*
X1074746Y648463D01*
X1074817Y649000D01*
X1074550Y651023D01*
X1073770Y652908D01*
X1072527Y654527D01*
X1070909Y655770D01*
X1069023Y656551D01*
X1067000Y656817D01*
D02*
G37*
G36*
X781000Y516500D02*
X760000D01*
Y513517D01*
X759045Y512679D01*
X758000Y512817D01*
X755977Y512551D01*
X754092Y511770D01*
X752473Y510527D01*
X751230Y508909D01*
X750450Y507023D01*
X750183Y505000D01*
X750450Y502977D01*
X751230Y501092D01*
X752473Y499473D01*
X754092Y498230D01*
X755977Y497449D01*
X758000Y497183D01*
X759045Y497321D01*
X760000Y496483D01*
Y493500D01*
X781000D01*
Y516500D01*
D02*
G37*
G36*
X585470Y466800D02*
X583643Y466560D01*
X581940Y465854D01*
X580478Y464732D01*
X579356Y463270D01*
X578650Y461567D01*
X578444Y460000D01*
X573500D01*
Y450000D01*
X575500D01*
Y441000D01*
X594500D01*
Y450000D01*
X596500D01*
Y460000D01*
X592496D01*
X592290Y461567D01*
X591585Y463270D01*
X590462Y464732D01*
X589000Y465854D01*
X587297Y466560D01*
X585470Y466800D01*
D02*
G37*
G36*
X298410Y550470D02*
X276157D01*
Y550055D01*
X205210D01*
Y528342D01*
X215225D01*
Y513652D01*
X250774D01*
Y499682D01*
X297878D01*
Y513652D01*
Y528217D01*
X298410D01*
Y550470D01*
D02*
G37*
G36*
X482000Y639078D02*
X370000D01*
X367650Y638768D01*
X365461Y637862D01*
X363581Y636419D01*
X362138Y634539D01*
X361232Y632350D01*
X360922Y630000D01*
X361232Y627650D01*
X362138Y625461D01*
X363581Y623581D01*
X365461Y622139D01*
X367650Y621232D01*
X370000Y620922D01*
X478240D01*
X486489Y612673D01*
X486003Y611500D01*
X473000D01*
X466000Y604500D01*
Y585500D01*
X473000Y578500D01*
X478382D01*
Y566500D01*
X474000D01*
Y546618D01*
X470258D01*
X469408Y547270D01*
X467523Y548050D01*
X465500Y548317D01*
X463477Y548050D01*
X461592Y547270D01*
X459973Y546027D01*
X458730Y544408D01*
X457949Y542523D01*
X457683Y540500D01*
X457949Y538477D01*
X457774Y538052D01*
X457091Y537770D01*
X455473Y536527D01*
X454230Y534908D01*
X453450Y533023D01*
X453183Y531000D01*
X453450Y528977D01*
X454230Y527092D01*
X455000Y526088D01*
Y506500D01*
Y506500D01*
X455000Y506500D01*
D01*
X455000D01*
D01*
D01*
X436000Y506500D01*
Y526500D01*
X436000D01*
Y543500D01*
X436000D01*
Y566500D01*
X415000D01*
Y551710D01*
X412895Y549605D01*
X412895Y549605D01*
X410979Y547688D01*
X410000Y547817D01*
X407977Y547551D01*
X406091Y546770D01*
X404473Y545527D01*
X403230Y543908D01*
X402449Y542023D01*
X402183Y540000D01*
X402449Y537977D01*
X403230Y536092D01*
X404068Y535000D01*
X403230Y533909D01*
X402449Y532023D01*
X402183Y530000D01*
X402449Y527977D01*
X403230Y526092D01*
X404473Y524473D01*
X406091Y523230D01*
X406200Y523185D01*
X407473Y521527D01*
X406230Y519908D01*
X405449Y518023D01*
X405183Y516000D01*
X405449Y513977D01*
X406230Y512092D01*
X407473Y510473D01*
X409092Y509230D01*
X410977Y508450D01*
X413000Y508183D01*
X414045Y508321D01*
X415000Y507483D01*
Y503500D01*
X434000D01*
Y483500D01*
X434000D01*
X455000Y483500D01*
Y483500D01*
X455000Y483500D01*
D01*
D01*
D01*
X476000Y483500D01*
X476000D01*
Y503500D01*
X487349D01*
X489883Y500966D01*
Y472000D01*
X490348Y469659D01*
X491674Y467674D01*
X493310Y466039D01*
X493450Y464977D01*
X494230Y463092D01*
X495473Y461473D01*
X497092Y460230D01*
X498977Y459450D01*
X501000Y459183D01*
X503023Y459450D01*
X504908Y460230D01*
X506527Y461473D01*
X507770Y463092D01*
X508550Y464977D01*
X508817Y467000D01*
X508550Y469023D01*
X507770Y470908D01*
X506527Y472527D01*
X504908Y473770D01*
X503023Y474551D01*
X502118Y474670D01*
Y503500D01*
X501652Y505841D01*
X500326Y507826D01*
X495000Y513152D01*
Y526500D01*
X468667D01*
X467962Y527556D01*
X468550Y528977D01*
X468817Y531000D01*
X468550Y533023D01*
X468727Y533448D01*
X469408Y533730D01*
X470258Y534383D01*
X480500D01*
X482841Y534848D01*
X484826Y536174D01*
X488826Y540174D01*
X490152Y542159D01*
X490419Y543500D01*
X495000D01*
Y566500D01*
X490617D01*
Y582118D01*
X494000Y585500D01*
Y585922D01*
X500000D01*
X502350Y586232D01*
X504539Y587139D01*
X506419Y588581D01*
X507861Y590461D01*
X508768Y592650D01*
X509078Y595000D01*
Y612000D01*
X508768Y614350D01*
X507861Y616539D01*
X506419Y618419D01*
X506419Y618419D01*
X488419Y636419D01*
X486539Y637862D01*
X484350Y638768D01*
X482000Y639078D01*
D02*
G37*
G36*
X781000Y591500D02*
X760000D01*
Y588517D01*
X759045Y587679D01*
X758000Y587817D01*
X755977Y587551D01*
X754092Y586770D01*
X752473Y585527D01*
X751230Y583909D01*
X750450Y582023D01*
X750183Y580000D01*
X750450Y577977D01*
X751230Y576092D01*
X752473Y574473D01*
X754092Y573230D01*
X755977Y572449D01*
X758000Y572183D01*
X759045Y572321D01*
X760000Y571483D01*
Y568500D01*
X781000D01*
Y591500D01*
D02*
G37*
G36*
X907500Y612000D02*
X884500D01*
Y606598D01*
X882500D01*
Y612000D01*
X859500D01*
Y591000D01*
X865692D01*
X866230Y589908D01*
X865450Y588023D01*
X865183Y586000D01*
X865450Y583977D01*
X866230Y582091D01*
X867473Y580473D01*
X869092Y579230D01*
X870977Y578450D01*
X873000Y578183D01*
X875023Y578450D01*
X876908Y579230D01*
X878527Y580473D01*
X879770Y582091D01*
X880551Y583977D01*
X880817Y586000D01*
X880551Y588023D01*
X879770Y589908D01*
X880308Y591000D01*
X882500D01*
Y596402D01*
X884500D01*
Y591000D01*
X907500D01*
Y612000D01*
D02*
G37*
G36*
X393000Y612500D02*
X379000D01*
X372000Y605500D01*
Y586500D01*
X379000Y579500D01*
X393000D01*
X400000Y586500D01*
Y605500D01*
X393000Y612500D01*
D02*
G37*
G36*
X312000Y584121D02*
X308345Y583640D01*
X304940Y582229D01*
X302015Y579985D01*
X299771Y577060D01*
X298360Y573655D01*
X297879Y570000D01*
X298360Y566345D01*
X299771Y562940D01*
X302015Y560015D01*
X304940Y557771D01*
X308345Y556360D01*
X312000Y555879D01*
X315655Y556360D01*
X319060Y557771D01*
X321985Y560015D01*
X324229Y562940D01*
X325640Y566345D01*
X326121Y570000D01*
X325640Y573655D01*
X324229Y577060D01*
X321985Y579985D01*
X319060Y582229D01*
X315655Y583640D01*
X312000Y584121D01*
D02*
G37*
G36*
X440000Y611500D02*
X426000D01*
X419000Y604500D01*
Y585500D01*
X426000Y578500D01*
X440000D01*
X447000Y585500D01*
Y604500D01*
X440000Y611500D01*
D02*
G37*
G36*
X755650Y466800D02*
X753823Y466560D01*
X752120Y465854D01*
X750658Y464732D01*
X749536Y463270D01*
X748830Y461567D01*
X748590Y459740D01*
X747941Y459000D01*
X745500D01*
Y450000D01*
X747500D01*
Y440000D01*
X766500D01*
Y450000D01*
X768500D01*
Y459000D01*
X763359D01*
X762710Y459740D01*
X762470Y461567D01*
X761765Y463270D01*
X760642Y464732D01*
X759180Y465854D01*
X757477Y466560D01*
X755650Y466800D01*
D02*
G37*
G36*
X745309Y435880D02*
X741410D01*
Y431981D01*
X742361Y432170D01*
X744015Y433275D01*
X745120Y434929D01*
X745309Y435880D01*
D02*
G37*
G36*
X688500Y438000D02*
X669500D01*
Y432059D01*
X649970D01*
X649605Y432605D01*
X647951Y433710D01*
X646000Y434098D01*
X644049Y433710D01*
X642395Y432605D01*
X641290Y430951D01*
X640902Y429000D01*
X641290Y427049D01*
X642395Y425395D01*
X644049Y424290D01*
X646000Y423902D01*
X647951Y424290D01*
X649605Y425395D01*
X649970Y425941D01*
X669500D01*
Y421000D01*
X688500D01*
Y438000D01*
D02*
G37*
G36*
X739410Y435880D02*
X735511D01*
X735700Y434929D01*
X736805Y433275D01*
X738459Y432170D01*
X739410Y431981D01*
Y435880D01*
D02*
G37*
G36*
X700040D02*
X696141D01*
X696330Y434929D01*
X697435Y433275D01*
X699089Y432170D01*
X700040Y431981D01*
Y435880D01*
D02*
G37*
G36*
X705939D02*
X702040D01*
Y431981D01*
X702991Y432170D01*
X704645Y433275D01*
X705750Y434929D01*
X705939Y435880D01*
D02*
G37*
G36*
X700040Y441779D02*
X699089Y441590D01*
X697435Y440485D01*
X696330Y438831D01*
X696141Y437880D01*
X700040D01*
Y441779D01*
D02*
G37*
G36*
X676910Y466800D02*
X675083Y466560D01*
X673380Y465854D01*
X671918Y464732D01*
X670796Y463270D01*
X670090Y461567D01*
X669850Y459740D01*
X669201Y459000D01*
X667500D01*
Y450000D01*
X669500D01*
Y440000D01*
X688500D01*
Y450000D01*
X690500D01*
Y459000D01*
X684619D01*
X683970Y459740D01*
X683730Y461567D01*
X683025Y463270D01*
X681902Y464732D01*
X680440Y465854D01*
X678737Y466560D01*
X676910Y466800D01*
D02*
G37*
G36*
X715010D02*
X713183Y466560D01*
X711480Y465854D01*
X710018Y464732D01*
X708895Y463270D01*
X708190Y461567D01*
X707950Y459740D01*
X707301Y459000D01*
X705500D01*
Y450000D01*
X707500D01*
Y440000D01*
X726500D01*
Y450000D01*
X728500D01*
Y459000D01*
X722719D01*
X722070Y459740D01*
X721830Y461567D01*
X721124Y463270D01*
X720002Y464732D01*
X718540Y465854D01*
X716837Y466560D01*
X715010Y466800D01*
D02*
G37*
G36*
X741410Y441779D02*
Y437880D01*
X745309D01*
X745120Y438831D01*
X744015Y440485D01*
X742361Y441590D01*
X741410Y441779D01*
D02*
G37*
G36*
X702040D02*
Y437880D01*
X705939D01*
X705750Y438831D01*
X704645Y440485D01*
X702991Y441590D01*
X702040Y441779D01*
D02*
G37*
G36*
X739410D02*
X738459Y441590D01*
X736805Y440485D01*
X735700Y438831D01*
X735511Y437880D01*
X739410D01*
Y441779D01*
D02*
G37*
G36*
X869000Y334000D02*
X861500D01*
Y325500D01*
X869000D01*
Y334000D01*
D02*
G37*
G36*
X678500Y334500D02*
X671000D01*
Y326000D01*
X678500D01*
Y334500D01*
D02*
G37*
G36*
X859500Y334000D02*
X852000D01*
Y325500D01*
X859500D01*
Y334000D01*
D02*
G37*
G36*
X809500D02*
X802000D01*
Y325500D01*
X809500D01*
Y334000D01*
D02*
G37*
G36*
X819000D02*
X811500D01*
Y325500D01*
X819000D01*
Y334000D01*
D02*
G37*
G36*
X838000Y344500D02*
X821000D01*
Y325500D01*
X838000D01*
Y329729D01*
X839049Y330290D01*
X841000Y329902D01*
X842951Y330290D01*
X844605Y331395D01*
X845710Y333049D01*
X846098Y335000D01*
X845710Y336951D01*
X844605Y338605D01*
X842951Y339710D01*
X841000Y340098D01*
X839049Y339710D01*
X838000Y340271D01*
Y344500D01*
D02*
G37*
G36*
X482000Y342500D02*
X473500D01*
Y335000D01*
X482000D01*
Y342500D01*
D02*
G37*
G36*
X492500D02*
X484000D01*
Y335000D01*
X492500D01*
Y342500D01*
D02*
G37*
G36*
X517979Y355870D02*
X508181D01*
X508370Y354919D01*
X509475Y353265D01*
X509550Y353215D01*
X509181Y352000D01*
X503500D01*
Y346159D01*
X499914Y342573D01*
X499699Y342530D01*
X498045Y341425D01*
X496940Y339771D01*
X496552Y337820D01*
X496940Y335869D01*
X498045Y334215D01*
X499699Y333110D01*
X501650Y332722D01*
X502518Y332895D01*
X503500Y332089D01*
Y325500D01*
X522500D01*
Y332121D01*
X523482Y332927D01*
X524510Y332722D01*
X526461Y333110D01*
X528115Y334215D01*
X529220Y335869D01*
X529608Y337820D01*
X529220Y339771D01*
X528115Y341425D01*
X526461Y342530D01*
X526246Y342573D01*
X522500Y346319D01*
Y352000D01*
X516979D01*
X516610Y353215D01*
X516685Y353265D01*
X517790Y354919D01*
X517979Y355870D01*
D02*
G37*
G36*
X719090Y335099D02*
X718139Y334910D01*
X716485Y333805D01*
X715380Y332151D01*
X715191Y331200D01*
X719090D01*
Y335099D01*
D02*
G37*
G36*
X721090D02*
Y331200D01*
X724989D01*
X724800Y332151D01*
X723695Y333805D01*
X722041Y334910D01*
X721090Y335099D01*
D02*
G37*
G36*
X522500Y323500D02*
X514000D01*
Y316000D01*
X522500D01*
Y323500D01*
D02*
G37*
G36*
X642000Y316500D02*
X634500D01*
Y308000D01*
X642000D01*
Y316500D01*
D02*
G37*
G36*
X743000Y324500D02*
X726000D01*
Y305500D01*
X743000D01*
Y309356D01*
X743982Y310162D01*
X745490Y309862D01*
X747441Y310250D01*
X749095Y311355D01*
X750200Y313009D01*
X750588Y314960D01*
X750200Y316911D01*
X749095Y318565D01*
X747441Y319670D01*
X745490Y320058D01*
X743982Y319758D01*
X743000Y320564D01*
Y324500D01*
D02*
G37*
G36*
X632500Y316500D02*
X625000D01*
Y308000D01*
X632500D01*
Y316500D01*
D02*
G37*
G36*
X714500Y314000D02*
X707000D01*
Y305500D01*
X714500D01*
Y314000D01*
D02*
G37*
G36*
X724000D02*
X716500D01*
Y305500D01*
X724000D01*
Y314000D01*
D02*
G37*
G36*
X543560Y336568D02*
X541609Y336180D01*
X539955Y335075D01*
X538850Y333421D01*
X538462Y331470D01*
X538559Y330982D01*
X537753Y330000D01*
X532000D01*
Y310000D01*
X537990D01*
X538796Y309018D01*
X538462Y307340D01*
X538850Y305389D01*
X539955Y303735D01*
X541609Y302630D01*
X543560Y302242D01*
X545511Y302630D01*
X547165Y303735D01*
X548270Y305389D01*
X548658Y307340D01*
X548324Y309018D01*
X549130Y310000D01*
X554000D01*
Y313121D01*
X554982Y313926D01*
X556260Y313672D01*
X558211Y314060D01*
X559865Y315165D01*
X560970Y316819D01*
X561358Y318770D01*
X560970Y320721D01*
X559865Y322375D01*
X558211Y323480D01*
X556260Y323868D01*
X554982Y323614D01*
X554000Y324419D01*
Y330000D01*
X549366D01*
X548561Y330982D01*
X548658Y331470D01*
X548270Y333421D01*
X547165Y335075D01*
X545511Y336180D01*
X543560Y336568D01*
D02*
G37*
G36*
X724989Y329200D02*
X715191D01*
X715380Y328249D01*
X716485Y326595D01*
X717802Y325715D01*
X717433Y324500D01*
X716500D01*
Y316000D01*
X724000D01*
Y324500D01*
X722747D01*
X722378Y325715D01*
X723695Y326595D01*
X724800Y328249D01*
X724989Y329200D01*
D02*
G37*
G36*
X512000Y323500D02*
X503500D01*
Y316000D01*
X512000D01*
Y323500D01*
D02*
G37*
G36*
X714500Y324500D02*
X707000D01*
Y316000D01*
X714500D01*
Y324500D01*
D02*
G37*
G36*
X888000Y344500D02*
X871000D01*
Y325500D01*
X875941D01*
Y322970D01*
X875395Y322605D01*
X874290Y320951D01*
X873902Y319000D01*
X874290Y317049D01*
X875395Y315395D01*
X877049Y314290D01*
X879000Y313902D01*
X880951Y314290D01*
X882605Y315395D01*
X883710Y317049D01*
X884098Y319000D01*
X883710Y320951D01*
X882605Y322605D01*
X882059Y322970D01*
Y325500D01*
X888000D01*
Y344500D01*
D02*
G37*
G36*
X492500Y333000D02*
X473500D01*
Y316000D01*
X492500D01*
X492500Y316000D01*
Y316000D01*
X493213Y316381D01*
X493349Y316290D01*
X495300Y315902D01*
X497251Y316290D01*
X498905Y317395D01*
X500010Y319049D01*
X500398Y321000D01*
X500010Y322951D01*
X498905Y324605D01*
X497251Y325710D01*
X495300Y326098D01*
X493482Y325736D01*
X492500Y326542D01*
Y333000D01*
D02*
G37*
G36*
X809500Y344500D02*
X802000D01*
Y336000D01*
X809500D01*
Y344500D01*
D02*
G37*
G36*
X667020Y364309D02*
X666069Y364120D01*
X664415Y363015D01*
X663310Y361361D01*
X663121Y360410D01*
X667020D01*
Y364309D01*
D02*
G37*
G36*
X669020D02*
Y360410D01*
X672919D01*
X672730Y361361D01*
X671625Y363015D01*
X669971Y364120D01*
X669020Y364309D01*
D02*
G37*
G36*
X824000Y384500D02*
X807000D01*
Y365500D01*
X809695D01*
X810500Y364518D01*
X810242Y363220D01*
X810630Y361269D01*
X811735Y359615D01*
X813389Y358510D01*
X815340Y358122D01*
X817291Y358510D01*
X818945Y359615D01*
X820050Y361269D01*
X820438Y363220D01*
X820180Y364518D01*
X820985Y365500D01*
X824000D01*
Y384500D01*
D02*
G37*
G36*
X512080Y361769D02*
X511129Y361580D01*
X509475Y360475D01*
X508370Y358821D01*
X508181Y357870D01*
X512080D01*
Y361769D01*
D02*
G37*
G36*
X514080D02*
Y357870D01*
X517979D01*
X517790Y358821D01*
X516685Y360475D01*
X515031Y361580D01*
X514080Y361769D01*
D02*
G37*
G36*
X663500Y386000D02*
X644500D01*
Y369000D01*
X648729D01*
X649290Y367951D01*
X648902Y366000D01*
X649290Y364049D01*
X650395Y362395D01*
X652049Y361290D01*
X654000Y360902D01*
X655951Y361290D01*
X657605Y362395D01*
X658710Y364049D01*
X659098Y366000D01*
X658710Y367951D01*
X659271Y369000D01*
X663500D01*
Y386000D01*
D02*
G37*
G36*
X743220Y371929D02*
X742269Y371740D01*
X740615Y370635D01*
X739510Y368981D01*
X739321Y368030D01*
X743220D01*
Y371929D01*
D02*
G37*
G36*
X678000Y376500D02*
X669500D01*
Y369000D01*
X678000D01*
Y376500D01*
D02*
G37*
G36*
X843000Y374000D02*
X835500D01*
Y365500D01*
X843000D01*
Y374000D01*
D02*
G37*
G36*
X743220Y366030D02*
X739321D01*
X739510Y365079D01*
X740615Y363425D01*
X742269Y362320D01*
X743220Y362131D01*
Y366030D01*
D02*
G37*
G36*
X833500Y374000D02*
X826000D01*
Y365500D01*
X833500D01*
Y374000D01*
D02*
G37*
G36*
X672919Y358410D02*
X669020D01*
Y354511D01*
X669971Y354700D01*
X671625Y355805D01*
X672730Y357459D01*
X672919Y358410D01*
D02*
G37*
G36*
X542000Y347000D02*
X532000D01*
Y338000D01*
X542000D01*
Y347000D01*
D02*
G37*
G36*
X554000D02*
X544000D01*
Y338000D01*
X554000D01*
Y347000D01*
D02*
G37*
G36*
X869000Y344500D02*
X861500D01*
Y336000D01*
X869000D01*
Y344500D01*
D02*
G37*
G36*
X819000D02*
X811500D01*
Y336000D01*
X819000D01*
Y344500D01*
D02*
G37*
G36*
X859500D02*
X852000D01*
Y336000D01*
X859500D01*
Y344500D01*
D02*
G37*
G36*
X630000Y369098D02*
X628049Y368710D01*
X626395Y367605D01*
X625290Y365951D01*
X624902Y364000D01*
X625290Y362049D01*
X626395Y360395D01*
X628049Y359290D01*
X630000Y358902D01*
X630644Y359030D01*
X642101Y347573D01*
Y341500D01*
X642101D01*
X642000D01*
X641203Y341500D01*
X641203Y341500D01*
Y341500D01*
X639298D01*
X638492Y342482D01*
X638828Y344170D01*
X638440Y346121D01*
X637335Y347775D01*
X635681Y348880D01*
X633730Y349268D01*
X631779Y348880D01*
X630125Y347775D01*
X629020Y346121D01*
X628632Y344170D01*
X628968Y342482D01*
X628162Y341500D01*
X625000D01*
Y322500D01*
X642000D01*
Y322500D01*
X643437Y322500D01*
X644095Y321515D01*
X645749Y320410D01*
X647700Y320022D01*
X649651Y320410D01*
X650880Y321231D01*
X652000Y320633D01*
Y315500D01*
X652000D01*
X652000Y314500D01*
X652000D01*
Y302268D01*
X651594Y301862D01*
X650710Y300539D01*
X650659Y300280D01*
X650400Y298978D01*
X650400Y298978D01*
X650400Y298978D01*
Y298247D01*
X650400D01*
Y298247D01*
X649559Y298080D01*
X647905Y296975D01*
X646800Y295321D01*
X646412Y293370D01*
X646800Y291419D01*
X647905Y289765D01*
X649559Y288660D01*
X651510Y288272D01*
X653461Y288660D01*
X655115Y289765D01*
X656220Y291419D01*
X656442Y292534D01*
X657362Y293454D01*
X657362Y293454D01*
X658246Y294777D01*
X658297Y295036D01*
X658390Y295500D01*
X669000D01*
Y314500D01*
X669000D01*
X669000Y315500D01*
X669000Y315500D01*
Y315500D01*
Y334500D01*
X660529D01*
X656608Y335280D01*
X656220Y337231D01*
X655115Y338885D01*
X653461Y339990D01*
X651510Y340378D01*
X649559Y339990D01*
X649339Y339843D01*
X648219Y340441D01*
Y348840D01*
X647986Y350011D01*
X647720Y350408D01*
X647323Y351003D01*
X647323Y351003D01*
X634970Y363356D01*
X635098Y364000D01*
X634710Y365951D01*
X633605Y367605D01*
X631951Y368710D01*
X630000Y369098D01*
D02*
G37*
G36*
X554000Y358000D02*
X544000D01*
Y349000D01*
X554000D01*
Y358000D01*
D02*
G37*
G36*
X667020Y358410D02*
X663121D01*
X663310Y357459D01*
X664415Y355805D01*
X666069Y354700D01*
X667020Y354511D01*
Y358410D01*
D02*
G37*
G36*
X542000Y358000D02*
X532000D01*
Y349000D01*
X542000D01*
Y358000D01*
D02*
G37*
G36*
X482000Y352000D02*
X473500D01*
Y344500D01*
X482000D01*
Y352000D01*
D02*
G37*
G36*
X492500D02*
X484000D01*
Y344500D01*
X492500D01*
Y352000D01*
D02*
G37*
%LPD*%
G36*
X287557Y545185D02*
X287839Y545170D01*
X288357Y545082D01*
X288846Y544963D01*
X289068Y544889D01*
X289275Y544815D01*
X289468Y544741D01*
X289645Y544667D01*
X289793Y544608D01*
X289927Y544548D01*
X290030Y544504D01*
X290104Y544460D01*
X290149Y544445D01*
X290164Y544430D01*
X290415Y544282D01*
X290667Y544119D01*
X290889Y543956D01*
X291096Y543778D01*
X291289Y543601D01*
X291481Y543408D01*
X291644Y543231D01*
X291793Y543068D01*
X291911Y542905D01*
X292029Y542757D01*
X292133Y542623D01*
X292207Y542505D01*
X292266Y542401D01*
X292326Y542327D01*
X292340Y542283D01*
X292355Y542268D01*
X292488Y542001D01*
X292607Y541735D01*
X292725Y541468D01*
X292814Y541217D01*
X292948Y540728D01*
X293007Y540491D01*
X293036Y540269D01*
X293081Y540076D01*
X293096Y539899D01*
X293110Y539736D01*
X293125Y539603D01*
X293140Y539484D01*
Y539410D01*
Y539351D01*
Y539336D01*
X293125Y539055D01*
X293110Y538773D01*
X293022Y538240D01*
X292903Y537752D01*
X292829Y537529D01*
X292755Y537307D01*
X292681Y537115D01*
X292607Y536937D01*
X292548Y536789D01*
X292488Y536656D01*
X292444Y536552D01*
X292400Y536478D01*
X292385Y536434D01*
X292370Y536419D01*
X292222Y536167D01*
X292059Y535930D01*
X291881Y535708D01*
X291704Y535501D01*
X291526Y535308D01*
X291348Y535131D01*
X291171Y534968D01*
X290993Y534819D01*
X290845Y534686D01*
X290682Y534568D01*
X290549Y534479D01*
X290430Y534405D01*
X290341Y534331D01*
X290267Y534286D01*
X290223Y534272D01*
X290208Y534257D01*
X289941Y534123D01*
X289675Y534005D01*
X289423Y533901D01*
X289157Y533812D01*
X288668Y533679D01*
X288431Y533620D01*
X288224Y533590D01*
X288016Y533546D01*
X287839Y533531D01*
X287691Y533516D01*
X287542Y533502D01*
X287439Y533487D01*
X287291D01*
X287009Y533502D01*
X286728Y533516D01*
X286195Y533605D01*
X285692Y533724D01*
X285469Y533798D01*
X285262Y533872D01*
X285070Y533946D01*
X284892Y534020D01*
X284744Y534079D01*
X284611Y534138D01*
X284507Y534183D01*
X284433Y534227D01*
X284388Y534242D01*
X284373Y534257D01*
X284122Y534405D01*
X283885Y534568D01*
X283663Y534745D01*
X283441Y534923D01*
X283248Y535101D01*
X283070Y535279D01*
X282922Y535456D01*
X282774Y535634D01*
X282641Y535782D01*
X282523Y535945D01*
X282434Y536078D01*
X282360Y536197D01*
X282286Y536286D01*
X282241Y536359D01*
X282226Y536404D01*
X282212Y536419D01*
X282078Y536685D01*
X281945Y536952D01*
X281841Y537204D01*
X281752Y537470D01*
X281619Y537959D01*
X281560Y538196D01*
X281530Y538403D01*
X281486Y538610D01*
X281471Y538788D01*
X281456Y538936D01*
X281441Y539084D01*
X281427Y539188D01*
Y539262D01*
Y539321D01*
Y539336D01*
X281441Y539617D01*
X281456Y539899D01*
X281545Y540432D01*
X281679Y540935D01*
X281752Y541157D01*
X281812Y541380D01*
X281886Y541572D01*
X281960Y541750D01*
X282034Y541898D01*
X282093Y542031D01*
X282138Y542135D01*
X282182Y542209D01*
X282197Y542253D01*
X282212Y542268D01*
X282360Y542520D01*
X282537Y542771D01*
X282700Y542994D01*
X282878Y543201D01*
X283070Y543393D01*
X283248Y543571D01*
X283426Y543734D01*
X283603Y543882D01*
X283766Y544001D01*
X283915Y544119D01*
X284048Y544208D01*
X284166Y544297D01*
X284270Y544356D01*
X284344Y544400D01*
X284388Y544415D01*
X284403Y544430D01*
X284670Y544563D01*
X284936Y544682D01*
X285188Y544785D01*
X285455Y544874D01*
X285928Y545008D01*
X286165Y545067D01*
X286373Y545111D01*
X286565Y545141D01*
X286743Y545156D01*
X286906Y545170D01*
X287039Y545185D01*
X287143Y545200D01*
X287291D01*
X287557Y545185D01*
D02*
G37*
%LPC*%
G36*
X287409Y544223D02*
X287054D01*
X286832Y544193D01*
X286402Y544119D01*
X285988Y544015D01*
X285632Y543912D01*
X285469Y543853D01*
X285321Y543793D01*
X285203Y543734D01*
X285099Y543690D01*
X285010Y543645D01*
X284951Y543615D01*
X284907Y543601D01*
X284892Y543586D01*
X284477Y543319D01*
X284107Y543038D01*
X283796Y542742D01*
X283544Y542446D01*
X283337Y542179D01*
X283263Y542076D01*
X283189Y541972D01*
X283144Y541898D01*
X283100Y541839D01*
X283070Y541794D01*
Y541779D01*
X282952Y541557D01*
X282848Y541335D01*
X282685Y540906D01*
X282567Y540491D01*
X282493Y540121D01*
X282463Y539958D01*
X282434Y539795D01*
X282419Y539662D01*
Y539558D01*
X282404Y539454D01*
Y539395D01*
Y539351D01*
Y539336D01*
Y539099D01*
X282434Y538862D01*
X282508Y538418D01*
X282611Y538003D01*
X282671Y537826D01*
X282730Y537648D01*
X282789Y537485D01*
X282848Y537337D01*
X282908Y537218D01*
X282952Y537115D01*
X282996Y537026D01*
X283026Y536967D01*
X283041Y536922D01*
X283056Y536907D01*
X283322Y536493D01*
X283603Y536137D01*
X283900Y535826D01*
X284196Y535575D01*
X284462Y535367D01*
X284566Y535293D01*
X284670Y535219D01*
X284744Y535175D01*
X284803Y535131D01*
X284847Y535116D01*
X284862Y535101D01*
X285084Y534982D01*
X285292Y534893D01*
X285721Y534731D01*
X286136Y534627D01*
X286506Y534538D01*
X286669Y534523D01*
X286832Y534494D01*
X286965Y534479D01*
X287069D01*
X287172Y534464D01*
X287291D01*
X287528Y534479D01*
X287750Y534494D01*
X288194Y534568D01*
X288609Y534671D01*
X288979Y534790D01*
X289142Y534849D01*
X289275Y534893D01*
X289408Y534953D01*
X289512Y534997D01*
X289601Y535042D01*
X289660Y535071D01*
X289704Y535101D01*
X289719D01*
X290134Y535367D01*
X290489Y535663D01*
X290800Y535960D01*
X291052Y536256D01*
X291259Y536508D01*
X291333Y536626D01*
X291407Y536715D01*
X291452Y536804D01*
X291496Y536863D01*
X291511Y536893D01*
X291526Y536907D01*
X291644Y537130D01*
X291733Y537337D01*
X291896Y537781D01*
X292000Y538181D01*
X292089Y538551D01*
X292103Y538729D01*
X292133Y538877D01*
X292148Y539010D01*
Y539114D01*
X292163Y539217D01*
Y539277D01*
Y539321D01*
Y539336D01*
X292148Y539573D01*
X292133Y539810D01*
X292059Y540254D01*
X291955Y540669D01*
X291896Y540861D01*
X291837Y541039D01*
X291778Y541202D01*
X291718Y541350D01*
X291659Y541468D01*
X291615Y541572D01*
X291570Y541661D01*
X291541Y541720D01*
X291511Y541764D01*
Y541779D01*
X291245Y542194D01*
X290948Y542549D01*
X290652Y542860D01*
X290356Y543127D01*
X290089Y543319D01*
X289986Y543408D01*
X289882Y543467D01*
X289808Y543527D01*
X289734Y543556D01*
X289704Y543586D01*
X289690D01*
X289468Y543704D01*
X289245Y543793D01*
X288816Y543956D01*
X288416Y544075D01*
X288046Y544149D01*
X287883Y544164D01*
X287735Y544193D01*
X287617Y544208D01*
X287498D01*
X287409Y544223D01*
D02*
G37*
%LPD*%
G36*
X287542Y542609D02*
X287854Y542564D01*
X288135Y542505D01*
X288387Y542431D01*
X288579Y542357D01*
X288727Y542298D01*
X288786Y542268D01*
X288831Y542253D01*
X288846Y542238D01*
X288860D01*
X289112Y542076D01*
X289334Y541898D01*
X289512Y541705D01*
X289675Y541528D01*
X289793Y541365D01*
X289882Y541217D01*
X289941Y541128D01*
X289956Y541113D01*
Y541098D01*
X290089Y540802D01*
X290178Y540506D01*
X290252Y540210D01*
X290297Y539928D01*
X290326Y539691D01*
Y539588D01*
X290341Y539499D01*
Y539425D01*
Y539366D01*
Y539336D01*
Y539321D01*
X290326Y539040D01*
X290312Y538759D01*
X290267Y538507D01*
X290208Y538270D01*
X290149Y538063D01*
X290075Y537855D01*
X290001Y537663D01*
X289912Y537500D01*
X289838Y537352D01*
X289764Y537233D01*
X289690Y537115D01*
X289631Y537026D01*
X289571Y536952D01*
X289527Y536907D01*
X289512Y536878D01*
X289497Y536863D01*
X289334Y536715D01*
X289157Y536582D01*
X288979Y536463D01*
X288786Y536359D01*
X288594Y536271D01*
X288416Y536197D01*
X288061Y536093D01*
X287898Y536063D01*
X287750Y536034D01*
X287617Y536019D01*
X287498Y536004D01*
X287409Y535989D01*
X287276D01*
X286891Y536019D01*
X286535Y536078D01*
X286225Y536167D01*
X285958Y536286D01*
X285736Y536389D01*
X285647Y536434D01*
X285573Y536478D01*
X285514Y536508D01*
X285469Y536537D01*
X285455Y536567D01*
X285440D01*
X285173Y536804D01*
X284966Y537056D01*
X284788Y537307D01*
X284655Y537559D01*
X284566Y537781D01*
X284522Y537885D01*
X284492Y537959D01*
X284477Y538033D01*
X284462Y538077D01*
X284448Y538107D01*
Y538122D01*
X285410Y538403D01*
X285484Y538151D01*
X285603Y537929D01*
X285706Y537737D01*
X285825Y537589D01*
X285943Y537455D01*
X286032Y537366D01*
X286091Y537307D01*
X286121Y537292D01*
X286328Y537159D01*
X286535Y537056D01*
X286728Y536996D01*
X286921Y536937D01*
X287083Y536907D01*
X287217Y536893D01*
X287335D01*
X287646Y536922D01*
X287927Y536982D01*
X288164Y537085D01*
X288372Y537204D01*
X288535Y537307D01*
X288653Y537411D01*
X288727Y537470D01*
X288757Y537500D01*
X288934Y537752D01*
X289068Y538033D01*
X289157Y538329D01*
X289216Y538625D01*
X289260Y538892D01*
X289275Y538995D01*
Y539099D01*
X289290Y539173D01*
Y539247D01*
Y539277D01*
Y539292D01*
X289260Y539706D01*
X289201Y540076D01*
X289112Y540387D01*
X288994Y540654D01*
X288890Y540846D01*
X288801Y540994D01*
X288742Y541083D01*
X288712Y541113D01*
X288594Y541231D01*
X288475Y541320D01*
X288239Y541483D01*
X287987Y541602D01*
X287750Y541676D01*
X287542Y541720D01*
X287380Y541735D01*
X287320Y541750D01*
X287232D01*
X287009Y541735D01*
X286802Y541705D01*
X286624Y541646D01*
X286476Y541602D01*
X286343Y541542D01*
X286239Y541483D01*
X286180Y541454D01*
X286165Y541439D01*
X286003Y541306D01*
X285869Y541172D01*
X285736Y541024D01*
X285647Y540876D01*
X285573Y540743D01*
X285514Y540639D01*
X285484Y540580D01*
X285469Y540550D01*
X284551Y540787D01*
X284670Y541083D01*
X284803Y541350D01*
X284966Y541587D01*
X285114Y541764D01*
X285262Y541927D01*
X285380Y542031D01*
X285469Y542105D01*
X285484Y542120D01*
X285499D01*
X285765Y542283D01*
X286047Y542416D01*
X286343Y542505D01*
X286610Y542564D01*
X286847Y542594D01*
X286950Y542609D01*
X287024Y542623D01*
X287202D01*
X287542Y542609D01*
D02*
G37*
D10*
X789500Y505000D02*
D03*
X770500D02*
D03*
X789500Y580000D02*
D03*
X770500D02*
D03*
X633500Y282000D02*
D03*
X614500D02*
D03*
X633500Y332000D02*
D03*
X614500D02*
D03*
X829500Y335000D02*
D03*
X810500D02*
D03*
X879500D02*
D03*
X860500D02*
D03*
X834500Y375000D02*
D03*
X815500D02*
D03*
X825500Y304000D02*
D03*
X844500D02*
D03*
X840500Y275000D02*
D03*
X859500D02*
D03*
X660500Y325000D02*
D03*
X679500D02*
D03*
Y305000D02*
D03*
X660500D02*
D03*
X715500Y315000D02*
D03*
X734500D02*
D03*
X715500Y285000D02*
D03*
X734500D02*
D03*
X614500Y307000D02*
D03*
X633500D02*
D03*
X484500Y515000D02*
D03*
X465500D02*
D03*
X465500Y495000D02*
D03*
X484500D02*
D03*
X425500Y535000D02*
D03*
X444500D02*
D03*
X1174500Y612000D02*
D03*
X1155500D02*
D03*
X1174500Y587000D02*
D03*
X1155500D02*
D03*
X1174500Y562000D02*
D03*
X1155500D02*
D03*
X714350Y187960D02*
D03*
X695350D02*
D03*
X755500Y150000D02*
D03*
X736500D02*
D03*
X690500D02*
D03*
X709500D02*
D03*
X698500Y214000D02*
D03*
X679500D02*
D03*
X425500Y515000D02*
D03*
X444500D02*
D03*
X425500Y555000D02*
D03*
X444500D02*
D03*
X484500D02*
D03*
X465500D02*
D03*
X425500Y495000D02*
D03*
X444500D02*
D03*
D23*
X1050000Y526000D02*
D03*
Y554000D02*
D03*
X543000Y320000D02*
D03*
Y348000D02*
D03*
X603000Y226000D02*
D03*
Y254000D02*
D03*
D24*
X704000Y396500D02*
D03*
Y377500D02*
D03*
X790000Y380500D02*
D03*
Y399500D02*
D03*
X895000Y505500D02*
D03*
Y524500D02*
D03*
X654000Y396500D02*
D03*
Y377500D02*
D03*
X679000Y377500D02*
D03*
Y396500D02*
D03*
X870000Y524500D02*
D03*
Y505500D02*
D03*
X585000Y430500D02*
D03*
Y449500D02*
D03*
X757000Y448500D02*
D03*
Y429500D02*
D03*
X717000Y448500D02*
D03*
Y429500D02*
D03*
X679000Y448500D02*
D03*
Y429500D02*
D03*
X871000Y601500D02*
D03*
Y620500D02*
D03*
X737000Y224500D02*
D03*
Y205500D02*
D03*
X483000Y324500D02*
D03*
Y343500D02*
D03*
X513000Y343500D02*
D03*
Y324500D02*
D03*
X543000Y230500D02*
D03*
Y249500D02*
D03*
X573000Y250500D02*
D03*
Y231500D02*
D03*
X895000Y574500D02*
D03*
Y555500D02*
D03*
X1035000Y460500D02*
D03*
Y479500D02*
D03*
X896000Y620500D02*
D03*
Y601500D02*
D03*
D27*
X991500Y440000D02*
D03*
X1028500D02*
D03*
D37*
X834390Y375110D02*
X834500Y375000D01*
X755650Y138430D02*
Y161290D01*
X736710Y224790D02*
X748030D01*
X736710D02*
X737000Y224500D01*
X736600Y224900D02*
X736710Y224790D01*
X736600Y224900D02*
Y234950D01*
X660500Y305000D02*
Y325000D01*
X651510Y293370D02*
X654478Y296338D01*
Y298978D01*
X660500Y305000D01*
X651510Y333990D02*
Y335280D01*
Y333990D02*
X660500Y325000D01*
X543560Y319440D02*
Y331470D01*
Y307340D02*
Y319440D01*
X544230Y318770D01*
X543000Y320000D02*
X543560Y319440D01*
X544230Y318770D02*
X556260D01*
X633500Y332000D02*
X633730Y332230D01*
Y344170D01*
X815340Y363220D02*
X815500Y363380D01*
Y375000D01*
X576580Y422080D02*
X585000Y430500D01*
X576580Y419100D02*
Y422080D01*
X464820Y555680D02*
X465500Y555000D01*
X464820Y555680D02*
Y566420D01*
X444500Y555000D02*
Y566420D01*
Y515000D02*
X450230Y509270D01*
X453390D01*
X424530Y494030D02*
X425500Y495000D01*
X414020Y494030D02*
X424530D01*
X1132000Y595000D02*
Y621000D01*
X1138000Y627000D01*
X1171000D01*
X1174500Y623500D01*
Y612000D02*
Y623500D01*
X484500Y544500D02*
Y555000D01*
X480000Y595000D02*
X484500Y590500D01*
Y555000D02*
Y590500D01*
X1104000Y532000D02*
X1116000D01*
X1084000Y512000D02*
X1104000Y532000D01*
X1174500Y587000D02*
Y612000D01*
Y562000D02*
Y587000D01*
X1043000Y440000D02*
Y452500D01*
X1035000Y460500D02*
X1043000Y452500D01*
X1035000Y479500D02*
X1050000Y494500D01*
Y500000D01*
X928000Y509000D02*
Y529000D01*
X480500Y540500D02*
X484500Y544500D01*
X465500Y540500D02*
X480500D01*
X496000Y472000D02*
X501000Y467000D01*
X496000Y472000D02*
Y503500D01*
X484500Y515000D02*
X496000Y503500D01*
X896000Y620500D02*
X896000Y620500D01*
X927500Y555500D02*
X928750Y554250D01*
X1023000Y554000D02*
X1050000D01*
X1023000Y541000D02*
Y554000D01*
X1050000Y500000D02*
Y526000D01*
X924750Y554250D02*
X928750D01*
X895000Y574500D02*
X904500D01*
X924750Y554250D01*
X895000Y553000D02*
Y555500D01*
Y553000D02*
X897000Y555000D01*
X789500Y580000D02*
X816000D01*
X789500Y505000D02*
X794500Y500000D01*
X816000D01*
X758000Y580000D02*
X770500D01*
X758000Y505000D02*
X770500D01*
X960500Y429500D02*
X990500D01*
X914000Y476000D02*
X960500Y429500D01*
X908000Y482000D02*
X914000Y476000D01*
X897000Y555000D02*
X902000D01*
X882000Y545000D02*
Y569000D01*
X887500Y574500D01*
X895000D01*
X904000Y541000D02*
X908000Y537000D01*
X886000Y541000D02*
X904000D01*
X882000Y545000D02*
X886000Y541000D01*
X908000Y482000D02*
Y537000D01*
X902000Y555000D02*
X928000Y529000D01*
X1030000Y440000D02*
X1043000D01*
X1028500Y441500D02*
X1030000Y440000D01*
X1028500Y441500D02*
Y445000D01*
X973000Y440000D02*
X991500D01*
D38*
X745990Y300990D02*
X757000Y312000D01*
X728990Y300990D02*
X745990D01*
X726000Y298000D02*
X728990Y300990D01*
X805180Y393700D02*
X856300D01*
X801480Y390000D02*
X805180Y393700D01*
X778000Y390000D02*
X801480D01*
X856300Y393700D02*
X868000Y382000D01*
X731520Y376520D02*
X740000Y385000D01*
X731520Y364490D02*
Y376520D01*
X719030Y352000D02*
X731520Y364490D01*
X752000Y357030D02*
Y412000D01*
X739970Y345000D02*
X752000Y357030D01*
X710000Y345000D02*
X739970D01*
X701000Y352000D02*
X719030D01*
X683000Y359000D02*
X715870D01*
X725000Y368130D01*
Y385000D01*
X1065530Y546530D02*
Y561340D01*
X786100Y141000D02*
X825000D01*
X750100Y177000D02*
X786100Y141000D01*
X727710Y177000D02*
X750100D01*
X711310Y245000D02*
X712470Y243840D01*
X724000Y190000D02*
X724750Y190750D01*
X714500Y190000D02*
X724000D01*
X693000Y261000D02*
X733000D01*
X687000Y255000D02*
X693000Y261000D01*
X769000Y260000D02*
X785000Y244000D01*
Y238000D02*
Y244000D01*
X718000Y389070D02*
X723900Y394970D01*
X645160Y327660D02*
X647700Y325120D01*
X630000Y364000D02*
X645160Y348840D01*
Y327660D02*
Y348840D01*
X633500Y282000D02*
X633560Y281940D01*
X643890D01*
X802640Y422910D02*
X845000Y465270D01*
X448640Y535000D02*
X454660Y541020D01*
X444500Y535000D02*
X448640D01*
X850941Y208059D02*
X871020D01*
X815000Y244000D02*
X850941Y208059D01*
X843020Y243980D02*
X871020D01*
X812000Y275000D02*
X843020Y243980D01*
X906941D02*
X908020D01*
X918000Y234000D01*
X825000Y141000D02*
X918000Y234000D01*
X920000Y334000D02*
X938000Y352000D01*
X997000D02*
X1025000Y380000D01*
X1042961D01*
X938000Y352000D02*
X997000D01*
X1025000Y362000D02*
Y362039D01*
X1008000Y345000D02*
X1025000Y362000D01*
X956000Y345000D02*
X1008000D01*
X913000Y302000D02*
X956000Y345000D01*
X1064000Y573000D02*
Y599000D01*
X1078000Y579000D02*
X1127000D01*
X1132000Y584000D01*
X1087000Y560000D02*
X1132000D01*
X1074000Y547000D02*
X1087000Y560000D01*
X1079000Y572000D02*
X1132000D01*
X1148000Y612000D02*
X1155500D01*
X1144000Y608000D02*
X1148000Y612000D01*
X1144000Y595000D02*
Y608000D01*
X1133000Y584000D02*
X1144000Y595000D01*
X1132000Y584000D02*
X1133000D01*
X1140500Y572000D02*
X1155500Y587000D01*
X1132000Y572000D02*
X1140500D01*
X1153500Y560000D02*
X1155500Y562000D01*
X1132000Y560000D02*
X1153500D01*
X1074000Y567000D02*
X1079000Y572000D01*
X1015000Y414000D02*
Y513000D01*
X675000Y173000D02*
X697000D01*
X642000Y224000D02*
X665000D01*
X668000Y221000D01*
Y180000D02*
X675000Y173000D01*
X668000Y180000D02*
Y221000D01*
X779780Y265220D02*
X795000Y250000D01*
X1015000Y513000D02*
X1040000Y538000D01*
X1000000Y399000D02*
X1015000Y414000D01*
X461000Y519500D02*
X465500Y515000D01*
X461000Y519500D02*
Y531000D01*
X410000Y530000D02*
X420500D01*
X425500Y535000D01*
X410500Y540000D02*
X416500Y546000D01*
X410000Y540000D02*
X410500D01*
X416500Y546000D02*
X425500Y555000D01*
X424500Y516000D02*
X425500Y515000D01*
X413000Y516000D02*
X424500D01*
X444500Y515000D02*
X444500Y515000D01*
X444500Y535000D02*
X444500Y535000D01*
X896000Y601500D02*
X896000Y601500D01*
X871000Y601500D02*
X883998D01*
X896000D01*
X870000Y524500D02*
Y537000D01*
X1064000Y599000D02*
X1075000Y610000D01*
Y641000D01*
X1067000Y649000D02*
X1075000Y641000D01*
X895000Y409000D02*
Y505500D01*
X870000Y524500D02*
X895000D01*
X870000D02*
X883000Y511500D01*
X1040000Y538000D02*
X1057000D01*
X894000Y399000D02*
X1000000D01*
X1057000Y538000D02*
X1065530Y546530D01*
X773000Y279000D02*
X808000D01*
X614500Y282000D02*
Y332000D01*
X660000Y163500D02*
Y216000D01*
X808000Y279000D02*
X812000Y275000D01*
X859500D02*
X873000D01*
X828000D02*
X840500D01*
X812000Y287000D02*
Y302000D01*
X814000Y304000D01*
X825500D01*
X844500D02*
Y318500D01*
X879000Y319000D02*
Y334500D01*
X879500Y335000D01*
X829500D02*
X841000D01*
X802000Y352000D02*
X855000D01*
X654000Y366000D02*
Y377500D01*
X679000Y377500D02*
X704000D01*
X704000Y377500D01*
X883000Y410000D02*
Y511500D01*
Y410000D02*
X894000Y399000D01*
X654000Y396500D02*
X704000D01*
X713500D01*
X699000Y313000D02*
Y334000D01*
X710000Y345000D01*
X776000Y388000D02*
X778000Y390000D01*
X702000Y366000D02*
X714172D01*
X701000Y365000D02*
X702000Y366000D01*
X681000Y361000D02*
X683000Y359000D01*
X692000Y329000D02*
Y343000D01*
X701000Y352000D01*
X714172Y366000D02*
X718000Y369828D01*
X757000Y312000D02*
Y429500D01*
X734500D02*
X752000Y412000D01*
X717000Y429500D02*
X734500D01*
X713500Y396500D02*
X717000Y400000D01*
X718000Y369828D02*
Y389070D01*
X725000Y385000D02*
X734000Y394000D01*
X822960Y411000D02*
X882000D01*
X883000Y410000D01*
X859000Y457000D02*
X865000D01*
X813000Y422000D02*
X857000Y466000D01*
X865000D01*
X865000Y466000D01*
X845000Y465270D02*
Y471000D01*
X790000Y430500D02*
X839500Y480000D01*
X845000D01*
X790000Y423000D02*
Y430500D01*
Y399500D02*
Y423000D01*
X651000Y175000D02*
Y216000D01*
X750000Y185420D02*
Y190000D01*
X760000Y200000D01*
Y210000D01*
X768000Y295000D02*
X771000D01*
X789000Y313000D01*
X776000Y311000D02*
Y388000D01*
X678000Y245000D02*
X711310D01*
X631000Y259000D02*
X650000D01*
X620000Y270000D02*
X631000Y259000D01*
X589000Y270000D02*
X620000D01*
X646000Y429000D02*
X678500D01*
X679000Y429500D01*
X764000Y194000D02*
X770000Y200000D01*
Y210000D01*
Y190000D02*
X780000Y200000D01*
Y210000D01*
X770000Y180000D02*
Y190000D01*
X873000Y586000D02*
Y599500D01*
X871000Y601500D02*
X873000Y599500D01*
X813000Y411000D02*
X859000Y457000D01*
X764000Y174000D02*
Y194000D01*
X765000Y195000D01*
X444500Y495000D02*
X465500D01*
X465500Y495000D01*
X465500Y495000D02*
Y515000D01*
X465500Y495000D02*
X465500Y495000D01*
X789000Y313000D02*
Y339000D01*
X802000Y352000D01*
X768000Y303000D02*
X776000Y311000D01*
X600000Y110000D02*
X707000D01*
X814000D02*
X1224000Y520000D01*
X190000D02*
X600000Y110000D01*
X1224000Y520000D02*
Y705000D01*
X190000Y520000D02*
Y705000D01*
X1224000D01*
X707000Y110000D02*
X814000D01*
D39*
X715500Y285000D02*
Y286530D01*
X712470Y289560D02*
X715500Y286530D01*
X712470Y289560D02*
Y297180D01*
X734580Y285000D02*
X744220Y294640D01*
X734500Y285000D02*
X734580D01*
X745450Y315000D02*
X745490Y314960D01*
X734500Y315000D02*
X745450D01*
X834390Y375110D02*
Y386080D01*
X789940Y369570D02*
X790000Y369630D01*
Y380500D01*
X647700Y149860D02*
X671830D01*
X669500Y152190D02*
X671830Y149860D01*
X669500Y152190D02*
Y163500D01*
X648970Y127000D02*
X650500Y128530D01*
Y136500D01*
X689610Y150060D02*
X690025Y150475D01*
X689610Y138430D02*
Y150060D01*
X690025Y150475D02*
X690500Y150000D01*
X690025Y150475D02*
Y161290D01*
X589280Y226060D02*
X602940D01*
X755650Y449850D02*
Y459740D01*
Y449850D02*
X757000Y448500D01*
X715010Y450490D02*
Y459740D01*
Y450490D02*
X717000Y448500D01*
X676910Y450590D02*
X679000Y448500D01*
X676910Y450590D02*
Y459740D01*
X585000Y459270D02*
X585470Y459740D01*
X585000Y449500D02*
Y459270D01*
D40*
X602940Y226060D02*
X603000Y226000D01*
X693420Y189890D02*
Y199390D01*
Y189890D02*
X695350Y187960D01*
X698500Y214000D02*
X704210Y219710D01*
X709930D01*
X486500Y321000D02*
X495300D01*
X483000Y324500D02*
X486500Y321000D01*
X678500Y136500D02*
X688000Y127000D01*
X669500Y136500D02*
X678500D01*
X651000Y163500D02*
Y175000D01*
X651000Y175000D01*
X688000Y127000D02*
X742000D01*
X679000Y183000D02*
Y194500D01*
X698500Y214000D01*
D41*
X551820Y230500D02*
X554990Y227330D01*
X543000Y230500D02*
X551820D01*
X577540Y250500D02*
X584200Y243840D01*
X573000Y250500D02*
X577540D01*
X568000D02*
X573000D01*
X561340Y243840D02*
X568000Y250500D01*
X513000Y343500D02*
X518830D01*
X524510Y337820D01*
X507330Y343500D02*
X513000D01*
X501650Y337820D02*
X507330Y343500D01*
X905000Y441000D02*
Y470000D01*
Y441000D02*
X932000Y414000D01*
X1000000D01*
X1006000Y420000D01*
Y450000D01*
D43*
X480000Y595000D02*
X500000D01*
X380000Y630000D02*
X482000D01*
X500000Y595000D02*
Y612000D01*
X482000Y630000D02*
X500000Y612000D01*
X370000Y630000D02*
X380000D01*
D49*
X271929Y544277D02*
X278700D01*
Y534120D01*
X271929D01*
X278700Y539198D02*
X275314D01*
X268543Y544277D02*
Y534120D01*
X261772D01*
X251615Y544277D02*
X258387D01*
Y534120D01*
X251615D01*
X258387Y539198D02*
X255001D01*
X248230Y544277D02*
Y534120D01*
Y537506D01*
X241459Y544277D01*
X246537Y539198D01*
X241459Y534120D01*
X238073Y544277D02*
X231302D01*
X234688D01*
Y534120D01*
X222838Y544277D02*
X226224D01*
X227916Y542584D01*
Y535813D01*
X226224Y534120D01*
X222838D01*
X221145Y535813D01*
Y542584D01*
X222838Y544277D01*
X217760Y534120D02*
Y544277D01*
X212681D01*
X210989Y542584D01*
Y539198D01*
X212681Y537506D01*
X217760D01*
X214374D02*
X210989Y534120D01*
X292100Y512231D02*
X288714Y505460D01*
X285329Y512231D01*
X275172Y505460D02*
X281943D01*
X275172Y512231D01*
Y513924D01*
X276865Y515617D01*
X280250D01*
X281943Y513924D01*
X271787Y505460D02*
Y507153D01*
X270094D01*
Y505460D01*
X271787D01*
X263323Y513924D02*
X261630Y515617D01*
X258244D01*
X256551Y513924D01*
Y507153D01*
X258244Y505460D01*
X261630D01*
X263323Y507153D01*
Y513924D01*
X292100Y519430D02*
X288714D01*
X290407D01*
Y529587D01*
X292100Y527894D01*
X276865Y529587D02*
X283636D01*
Y524508D01*
X280250Y526201D01*
X278558D01*
X276865Y524508D01*
Y521123D01*
X278558Y519430D01*
X281943D01*
X283636Y521123D01*
X273479Y527894D02*
X271787Y529587D01*
X268401D01*
X266708Y527894D01*
Y521123D01*
X268401Y519430D01*
X271787D01*
X273479Y521123D01*
Y527894D01*
X263323Y519430D02*
X259937D01*
X261630D01*
Y529587D01*
X263323Y527894D01*
X254859Y529587D02*
X248088D01*
Y527894D01*
X254859Y521123D01*
Y519430D01*
X237931Y529587D02*
X244702D01*
Y524508D01*
X241316Y526201D01*
X239624D01*
X237931Y524508D01*
Y521123D01*
X239624Y519430D01*
X243009D01*
X244702Y521123D01*
X234545Y524508D02*
X227774D01*
X224389Y519430D02*
X221003D01*
X222696D01*
Y529587D01*
X224389Y527894D01*
D50*
X906941Y243980D02*
D03*
X1042961Y380000D02*
D03*
D51*
X888980Y226020D02*
D03*
X871020Y208059D02*
D03*
X853059Y226020D02*
D03*
X871020Y243980D02*
D03*
X888980Y261941D02*
D03*
X1025000Y362039D02*
D03*
X1007039Y380000D02*
D03*
X1025000Y397961D02*
D03*
D52*
X987500Y600000D02*
D03*
X962500D02*
D03*
X975000D02*
D03*
X1000000Y575000D02*
D03*
X987500D02*
D03*
X975000D02*
D03*
X962500D02*
D03*
X950000D02*
D03*
X1000000Y550000D02*
D03*
X987500D02*
D03*
X975000D02*
D03*
X962500D02*
D03*
X950000D02*
D03*
X987500Y500000D02*
D03*
X975000D02*
D03*
X962500D02*
D03*
X1000000Y525000D02*
D03*
X987500D02*
D03*
X975000D02*
D03*
X962500D02*
D03*
X950000D02*
D03*
D53*
X366970Y690250D02*
D03*
X499050D02*
D03*
D54*
X386000Y596000D02*
D03*
X433000Y595000D02*
D03*
X480000D02*
D03*
D55*
X312000Y570000D02*
D03*
D56*
Y595000D02*
D03*
D57*
X561340Y243840D02*
D03*
X709930Y219710D02*
D03*
X648970Y127000D02*
D03*
X727710Y176530D02*
D03*
X697000Y173000D02*
D03*
X642000Y224000D02*
D03*
X779780Y265220D02*
D03*
X795000Y250000D02*
D03*
X647700Y149860D02*
D03*
X671830D02*
D03*
X755650Y161290D02*
D03*
Y138430D02*
D03*
X690025Y161290D02*
D03*
X689610Y138430D02*
D03*
X748030Y224790D02*
D03*
X736600Y234950D02*
D03*
X742000Y127000D02*
D03*
X651000Y175000D02*
D03*
X724750Y190750D02*
D03*
X651510Y293370D02*
D03*
Y335280D02*
D03*
X745490Y314960D02*
D03*
X720090Y330200D02*
D03*
X668020Y359410D02*
D03*
X740410Y264160D02*
D03*
X712470Y297180D02*
D03*
X744220Y294640D02*
D03*
X699000Y313000D02*
D03*
X769000Y260000D02*
D03*
X733000Y261000D02*
D03*
X773000Y279000D02*
D03*
X712470Y243840D02*
D03*
X687000Y255000D02*
D03*
X873000Y275000D02*
D03*
X828000D02*
D03*
X812000Y287000D02*
D03*
X844500Y318500D02*
D03*
X879000Y319000D02*
D03*
X841000Y335000D02*
D03*
X834390Y386080D02*
D03*
X815340Y363220D02*
D03*
X848360Y382270D02*
D03*
X855000Y352000D02*
D03*
X868000Y382000D02*
D03*
X920000Y334000D02*
D03*
X654000Y366000D02*
D03*
X726000Y298000D02*
D03*
X714000Y209000D02*
D03*
X768000Y295000D02*
D03*
Y303000D02*
D03*
X734060Y170180D02*
D03*
X742950D02*
D03*
X717550D02*
D03*
X709930D02*
D03*
X633730Y344170D02*
D03*
X701000Y365000D02*
D03*
X681000Y361000D02*
D03*
X692000Y329000D02*
D03*
X790000Y423000D02*
D03*
X802640Y422910D02*
D03*
X717000Y400000D02*
D03*
X723900Y394970D02*
D03*
X734000Y394000D02*
D03*
X740000Y385000D02*
D03*
X813000Y422000D02*
D03*
Y411000D02*
D03*
X822960D02*
D03*
X895000Y409000D02*
D03*
X845000Y480000D02*
D03*
Y471000D02*
D03*
X865000Y466000D02*
D03*
Y457000D02*
D03*
X643890Y281940D02*
D03*
X820420Y287020D02*
D03*
X647700Y325120D02*
D03*
X651000Y216000D02*
D03*
X750000Y185420D02*
D03*
X760000Y210000D02*
D03*
X764000Y174000D02*
D03*
X770000Y180000D02*
D03*
Y210000D02*
D03*
X780000D02*
D03*
X784860Y236220D02*
D03*
X815000Y244000D02*
D03*
X913000Y302000D02*
D03*
X679000Y183000D02*
D03*
X693420Y199390D02*
D03*
Y227330D02*
D03*
X660000Y216000D02*
D03*
X678000Y245000D02*
D03*
X543560Y307340D02*
D03*
X556260Y318770D02*
D03*
X543560Y331470D02*
D03*
X495300Y321000D02*
D03*
X501650Y337820D02*
D03*
X524510D02*
D03*
X584200Y243840D02*
D03*
X554990Y227330D02*
D03*
X573000Y263000D02*
D03*
X513080Y356870D02*
D03*
X589280Y226060D02*
D03*
X650000Y259000D02*
D03*
X519430Y289560D02*
D03*
Y269240D02*
D03*
X676910Y459740D02*
D03*
X715010D02*
D03*
X755650D02*
D03*
X630000Y364000D02*
D03*
X646000Y429000D02*
D03*
X585470Y459740D02*
D03*
X612140Y425450D02*
D03*
X664210Y412750D02*
D03*
X701040Y436880D02*
D03*
X740410D02*
D03*
X744220Y367030D02*
D03*
X576580Y419100D02*
D03*
X789940Y369570D02*
D03*
X589280Y302260D02*
D03*
X599440Y289560D02*
D03*
D58*
X1116000Y532000D02*
D03*
X1078000Y579000D02*
D03*
X1074000Y547000D02*
D03*
X1132000Y572000D02*
D03*
Y560000D02*
D03*
Y584000D02*
D03*
X1074000Y567000D02*
D03*
X461000Y531000D02*
D03*
X444500Y566420D02*
D03*
X465500Y540500D02*
D03*
X410000Y540000D02*
D03*
Y530000D02*
D03*
X413000Y516000D02*
D03*
X816000Y500000D02*
D03*
Y580000D02*
D03*
X1057910Y605790D02*
D03*
X921750Y605250D02*
D03*
X921250Y494750D02*
D03*
X873000Y586000D02*
D03*
X870000Y537000D02*
D03*
X816000Y560000D02*
D03*
Y540000D02*
D03*
Y520000D02*
D03*
X1065530Y561340D02*
D03*
X928750Y554250D02*
D03*
X1023000Y541000D02*
D03*
X1043000Y440000D02*
D03*
X1064000Y573000D02*
D03*
X1067000Y649000D02*
D03*
X758000Y580000D02*
D03*
Y505000D02*
D03*
X589000Y270000D02*
D03*
X1026000Y495000D02*
D03*
X990500Y429500D02*
D03*
X905000Y470000D02*
D03*
Y460000D02*
D03*
Y450000D02*
D03*
X1006000D02*
D03*
Y440000D02*
D03*
Y430000D02*
D03*
X928000Y509000D02*
D03*
X1084000Y512000D02*
D03*
X660000Y620000D02*
D03*
X817000Y599000D02*
D03*
Y620000D02*
D03*
X800000D02*
D03*
X780000D02*
D03*
X680000D02*
D03*
X640000D02*
D03*
X760000D02*
D03*
X620000D02*
D03*
X740000D02*
D03*
X700000D02*
D03*
X720000D02*
D03*
X590000Y590000D02*
D03*
X550000D02*
D03*
X570000D02*
D03*
X454660Y541020D02*
D03*
X610000Y600000D02*
D03*
X313000Y609000D02*
D03*
X345000Y630000D02*
D03*
X395000Y530000D02*
D03*
X453390Y509270D02*
D03*
X414020Y494030D02*
D03*
X464820Y566420D02*
D03*
X510000Y570000D02*
D03*
X530000Y580000D02*
D03*
X304380Y524000D02*
D03*
X395000Y490000D02*
D03*
Y510000D02*
D03*
Y550000D02*
D03*
X400000Y570000D02*
D03*
X350000Y492000D02*
D03*
X1041400Y684530D02*
D03*
X1093470D02*
D03*
X1132000Y595000D02*
D03*
X501000Y467000D02*
D03*
X391000Y630000D02*
D03*
X380000D02*
D03*
X370000D02*
D03*
X973000Y440000D02*
D03*
D59*
X660000Y163500D02*
D03*
X669500D02*
D03*
X651000D02*
D03*
X669500Y136500D02*
D03*
X650500D02*
D03*
M02*
