%FSLAX44Y44*%
%MOMM*%
G71*
G01*
G75*
G04 Layer_Color=16711935*
%ADD10R,1.3000X1.5000*%
%ADD11O,0.6000X1.5000*%
%ADD12R,2.8000X2.1000*%
%ADD13R,2.0000X0.6100*%
G04:AMPARAMS|DCode=14|XSize=1.145mm|YSize=0.55mm|CornerRadius=0.1375mm|HoleSize=0mm|Usage=FLASHONLY|Rotation=270.000|XOffset=0mm|YOffset=0mm|HoleType=Round|Shape=RoundedRectangle|*
%AMROUNDEDRECTD14*
21,1,1.1450,0.2750,0,0,270.0*
21,1,0.8700,0.5500,0,0,270.0*
1,1,0.2750,-0.1375,-0.4350*
1,1,0.2750,-0.1375,0.4350*
1,1,0.2750,0.1375,0.4350*
1,1,0.2750,0.1375,-0.4350*
%
%ADD14ROUNDEDRECTD14*%
G04:AMPARAMS|DCode=15|XSize=1.145mm|YSize=0.55mm|CornerRadius=0.1375mm|HoleSize=0mm|Usage=FLASHONLY|Rotation=0.000|XOffset=0mm|YOffset=0mm|HoleType=Round|Shape=RoundedRectangle|*
%AMROUNDEDRECTD15*
21,1,1.1450,0.2750,0,0,0.0*
21,1,0.8700,0.5500,0,0,0.0*
1,1,0.2750,0.4350,-0.1375*
1,1,0.2750,-0.4350,-0.1375*
1,1,0.2750,-0.4350,0.1375*
1,1,0.2750,0.4350,0.1375*
%
%ADD15ROUNDEDRECTD15*%
G04:AMPARAMS|DCode=16|XSize=0.3mm|YSize=0.75mm|CornerRadius=0.075mm|HoleSize=0mm|Usage=FLASHONLY|Rotation=90.000|XOffset=0mm|YOffset=0mm|HoleType=Round|Shape=RoundedRectangle|*
%AMROUNDEDRECTD16*
21,1,0.3000,0.6000,0,0,90.0*
21,1,0.1500,0.7500,0,0,90.0*
1,1,0.1500,0.3000,0.0750*
1,1,0.1500,0.3000,-0.0750*
1,1,0.1500,-0.3000,-0.0750*
1,1,0.1500,-0.3000,0.0750*
%
%ADD16ROUNDEDRECTD16*%
G04:AMPARAMS|DCode=17|XSize=0.3mm|YSize=0.75mm|CornerRadius=0.075mm|HoleSize=0mm|Usage=FLASHONLY|Rotation=0.000|XOffset=0mm|YOffset=0mm|HoleType=Round|Shape=RoundedRectangle|*
%AMROUNDEDRECTD17*
21,1,0.3000,0.6000,0,0,0.0*
21,1,0.1500,0.7500,0,0,0.0*
1,1,0.1500,0.0750,-0.3000*
1,1,0.1500,-0.0750,-0.3000*
1,1,0.1500,-0.0750,0.3000*
1,1,0.1500,0.0750,0.3000*
%
%ADD17ROUNDEDRECTD17*%
%ADD18R,0.6000X1.0500*%
%ADD19R,1.4000X0.2800*%
%ADD20O,0.4000X2.1500*%
%ADD21O,0.4000X2.1500*%
%ADD22R,3.2000X1.8000*%
%ADD23R,1.8000X1.6000*%
%ADD24R,1.5000X1.3000*%
%ADD25R,7.0000X4.0000*%
%ADD26R,2.8000X3.8000*%
%ADD27R,1.2000X0.7000*%
%ADD28R,2.6000X2.4000*%
%ADD29R,2.2000X2.0000*%
%ADD30R,1.6000X1.8000*%
%ADD31R,4.2400X3.8100*%
%ADD32R,4.2400X3.0000*%
%ADD33O,2.0000X0.4600*%
%ADD34R,6.4000X10.0000*%
%ADD35R,3.4000X3.1000*%
%ADD36R,1.5000X1.5000*%
%ADD37C,0.4000*%
%ADD38C,0.2000*%
%ADD39C,0.5080*%
%ADD40C,0.3000*%
%ADD41C,0.5000*%
%ADD42C,0.3810*%
%ADD43C,1.0000*%
%ADD44C,0.2794*%
%ADD45C,0.3556*%
%ADD46C,2.0000*%
%ADD47C,0.4572*%
%ADD48C,1.5000*%
%ADD49C,0.1778*%
%ADD50P,2.2627X4X270.0*%
%ADD51C,1.6000*%
%ADD52C,1.0000*%
G04:AMPARAMS|DCode=53|XSize=2.5mm|YSize=2mm|CornerRadius=0mm|HoleSize=0mm|Usage=FLASHONLY|Rotation=0.000|XOffset=0mm|YOffset=0mm|HoleType=Round|Shape=Octagon|*
%AMOCTAGOND53*
4,1,8,1.2500,-0.5000,1.2500,0.5000,0.7500,1.0000,-0.7500,1.0000,-1.2500,0.5000,-1.2500,-0.5000,-0.7500,-1.0000,0.7500,-1.0000,1.2500,-0.5000,0.0*
%
%ADD53OCTAGOND53*%

G04:AMPARAMS|DCode=54|XSize=2.5mm|YSize=2mm|CornerRadius=0mm|HoleSize=0mm|Usage=FLASHONLY|Rotation=270.000|XOffset=0mm|YOffset=0mm|HoleType=Round|Shape=Octagon|*
%AMOCTAGOND54*
4,1,8,-0.5000,-1.2500,0.5000,-1.2500,1.0000,-0.7500,1.0000,0.7500,0.5000,1.2500,-0.5000,1.2500,-1.0000,0.7500,-1.0000,-0.7500,-0.5000,-1.2500,0.0*
%
%ADD54OCTAGOND54*%

%ADD55C,2.0000*%
%ADD56R,2.0000X2.0000*%
%ADD57C,0.6000*%
%ADD58C,0.7500*%
%ADD59R,0.5500X1.0000*%
%ADD60C,0.2500*%
%ADD61C,0.0208*%
%ADD62C,0.1000*%
%ADD63C,0.1524*%
%ADD64C,0.1200*%
%ADD65C,0.2200*%
%ADD66C,0.2800*%
%ADD67R,0.5500X1.4000*%
%ADD68R,1.4500X1.6500*%
%ADD69O,0.7500X1.6500*%
%ADD70R,2.9500X2.2500*%
%ADD71R,2.1500X0.7600*%
G04:AMPARAMS|DCode=72|XSize=1.295mm|YSize=0.7mm|CornerRadius=0.2125mm|HoleSize=0mm|Usage=FLASHONLY|Rotation=270.000|XOffset=0mm|YOffset=0mm|HoleType=Round|Shape=RoundedRectangle|*
%AMROUNDEDRECTD72*
21,1,1.2950,0.2750,0,0,270.0*
21,1,0.8700,0.7000,0,0,270.0*
1,1,0.4250,-0.1375,-0.4350*
1,1,0.4250,-0.1375,0.4350*
1,1,0.4250,0.1375,0.4350*
1,1,0.4250,0.1375,-0.4350*
%
%ADD72ROUNDEDRECTD72*%
G04:AMPARAMS|DCode=73|XSize=1.295mm|YSize=0.7mm|CornerRadius=0.2125mm|HoleSize=0mm|Usage=FLASHONLY|Rotation=0.000|XOffset=0mm|YOffset=0mm|HoleType=Round|Shape=RoundedRectangle|*
%AMROUNDEDRECTD73*
21,1,1.2950,0.2750,0,0,0.0*
21,1,0.8700,0.7000,0,0,0.0*
1,1,0.4250,0.4350,-0.1375*
1,1,0.4250,-0.4350,-0.1375*
1,1,0.4250,-0.4350,0.1375*
1,1,0.4250,0.4350,0.1375*
%
%ADD73ROUNDEDRECTD73*%
G04:AMPARAMS|DCode=74|XSize=0.45mm|YSize=0.9mm|CornerRadius=0.15mm|HoleSize=0mm|Usage=FLASHONLY|Rotation=90.000|XOffset=0mm|YOffset=0mm|HoleType=Round|Shape=RoundedRectangle|*
%AMROUNDEDRECTD74*
21,1,0.4500,0.6000,0,0,90.0*
21,1,0.1500,0.9000,0,0,90.0*
1,1,0.3000,0.3000,0.0750*
1,1,0.3000,0.3000,-0.0750*
1,1,0.3000,-0.3000,-0.0750*
1,1,0.3000,-0.3000,0.0750*
%
%ADD74ROUNDEDRECTD74*%
G04:AMPARAMS|DCode=75|XSize=0.45mm|YSize=0.9mm|CornerRadius=0.15mm|HoleSize=0mm|Usage=FLASHONLY|Rotation=0.000|XOffset=0mm|YOffset=0mm|HoleType=Round|Shape=RoundedRectangle|*
%AMROUNDEDRECTD75*
21,1,0.4500,0.6000,0,0,0.0*
21,1,0.1500,0.9000,0,0,0.0*
1,1,0.3000,0.0750,-0.3000*
1,1,0.3000,-0.0750,-0.3000*
1,1,0.3000,-0.0750,0.3000*
1,1,0.3000,0.0750,0.3000*
%
%ADD75ROUNDEDRECTD75*%
%ADD76R,0.7500X1.2000*%
%ADD77R,1.5500X0.4300*%
%ADD78O,0.5500X2.3000*%
%ADD79O,0.5500X2.3000*%
%ADD80R,3.3500X1.9500*%
%ADD81R,1.9500X1.7500*%
%ADD82R,1.6500X1.4500*%
%ADD83R,7.1500X4.1500*%
%ADD84R,2.9500X3.9500*%
%ADD85R,1.3500X0.8500*%
%ADD86R,2.7500X2.5500*%
%ADD87R,2.3500X2.1500*%
%ADD88R,1.7500X1.9500*%
%ADD89R,4.3900X3.9600*%
%ADD90R,4.3900X3.1500*%
%ADD91O,2.1500X0.6100*%
%ADD92R,6.5500X10.1500*%
%ADD93R,3.5500X3.2500*%
%ADD94R,1.6500X1.6500*%
%ADD95P,2.4749X4X270.0*%
%ADD96C,1.7500*%
%ADD97C,1.1500*%
G04:AMPARAMS|DCode=98|XSize=2.65mm|YSize=2.15mm|CornerRadius=0mm|HoleSize=0mm|Usage=FLASHONLY|Rotation=0.000|XOffset=0mm|YOffset=0mm|HoleType=Round|Shape=Octagon|*
%AMOCTAGOND98*
4,1,8,1.3250,-0.5375,1.3250,0.5375,0.7875,1.0750,-0.7875,1.0750,-1.3250,0.5375,-1.3250,-0.5375,-0.7875,-1.0750,0.7875,-1.0750,1.3250,-0.5375,0.0*
%
%ADD98OCTAGOND98*%

G04:AMPARAMS|DCode=99|XSize=2.65mm|YSize=2.15mm|CornerRadius=0mm|HoleSize=0mm|Usage=FLASHONLY|Rotation=270.000|XOffset=0mm|YOffset=0mm|HoleType=Round|Shape=Octagon|*
%AMOCTAGOND99*
4,1,8,-0.5375,-1.3250,0.5375,-1.3250,1.0750,-0.7875,1.0750,0.7875,0.5375,1.3250,-0.5375,1.3250,-1.0750,0.7875,-1.0750,-0.7875,-0.5375,-1.3250,0.0*
%
%ADD99OCTAGOND99*%

%ADD100C,2.1500*%
%ADD101R,2.1500X2.1500*%
%ADD102C,0.1500*%
%ADD103R,0.7000X1.1500*%
D38*
X600000Y110000D02*
X707000D01*
X814000D02*
X1224000Y520000D01*
X190000D02*
X600000Y110000D01*
X1224000Y520000D02*
Y705000D01*
X190000Y520000D02*
Y705000D01*
X1224000D01*
X707000Y110000D02*
X814000D01*
D68*
X789500Y505000D02*
D03*
X770500D02*
D03*
X789500Y580000D02*
D03*
X770500D02*
D03*
X633500Y282000D02*
D03*
X614500D02*
D03*
X633500Y332000D02*
D03*
X614500D02*
D03*
X829500Y335000D02*
D03*
X810500D02*
D03*
X879500D02*
D03*
X860500D02*
D03*
X834500Y375000D02*
D03*
X815500D02*
D03*
X825500Y304000D02*
D03*
X844500D02*
D03*
X840500Y275000D02*
D03*
X859500D02*
D03*
X660500Y325000D02*
D03*
X679500D02*
D03*
Y305000D02*
D03*
X660500D02*
D03*
X715500Y315000D02*
D03*
X734500D02*
D03*
X715500Y285000D02*
D03*
X734500D02*
D03*
X614500Y307000D02*
D03*
X633500D02*
D03*
X484500Y515000D02*
D03*
X465500D02*
D03*
X465500Y495000D02*
D03*
X484500D02*
D03*
X425500Y535000D02*
D03*
X444500D02*
D03*
X1174500Y612000D02*
D03*
X1155500D02*
D03*
X1174500Y587000D02*
D03*
X1155500D02*
D03*
X1174500Y562000D02*
D03*
X1155500D02*
D03*
X714350Y187960D02*
D03*
X695350D02*
D03*
X755500Y150000D02*
D03*
X736500D02*
D03*
X690500D02*
D03*
X709500D02*
D03*
X698500Y214000D02*
D03*
X679500D02*
D03*
X425500Y515000D02*
D03*
X444500D02*
D03*
X425500Y555000D02*
D03*
X444500D02*
D03*
X484500D02*
D03*
X465500D02*
D03*
X425500Y495000D02*
D03*
X444500D02*
D03*
D81*
X1050000Y526000D02*
D03*
Y554000D02*
D03*
X543000Y320000D02*
D03*
Y348000D02*
D03*
X603000Y226000D02*
D03*
Y254000D02*
D03*
D82*
X704000Y396500D02*
D03*
Y377500D02*
D03*
X790000Y380500D02*
D03*
Y399500D02*
D03*
X895000Y505500D02*
D03*
Y524500D02*
D03*
X654000Y396500D02*
D03*
Y377500D02*
D03*
X679000Y377500D02*
D03*
Y396500D02*
D03*
X870000Y524500D02*
D03*
Y505500D02*
D03*
X585000Y430500D02*
D03*
Y449500D02*
D03*
X757000Y448500D02*
D03*
Y429500D02*
D03*
X717000Y448500D02*
D03*
Y429500D02*
D03*
X679000Y448500D02*
D03*
Y429500D02*
D03*
X871000Y601500D02*
D03*
Y620500D02*
D03*
X737000Y224500D02*
D03*
Y205500D02*
D03*
X483000Y324500D02*
D03*
Y343500D02*
D03*
X513000Y343500D02*
D03*
Y324500D02*
D03*
X543000Y230500D02*
D03*
Y249500D02*
D03*
X573000Y250500D02*
D03*
Y231500D02*
D03*
X895000Y574500D02*
D03*
Y555500D02*
D03*
X1035000Y460500D02*
D03*
Y479500D02*
D03*
X896000Y620500D02*
D03*
Y601500D02*
D03*
D85*
X991500Y440000D02*
D03*
X1028500D02*
D03*
D95*
X906941Y243980D02*
D03*
X1042961Y380000D02*
D03*
D96*
X888980Y226020D02*
D03*
X871020Y208059D02*
D03*
X853059Y226020D02*
D03*
X871020Y243980D02*
D03*
X888980Y261941D02*
D03*
X1025000Y362039D02*
D03*
X1007039Y380000D02*
D03*
X1025000Y397961D02*
D03*
D97*
X987500Y600000D02*
D03*
X962500D02*
D03*
X975000D02*
D03*
X1000000Y575000D02*
D03*
X987500D02*
D03*
X975000D02*
D03*
X962500D02*
D03*
X950000D02*
D03*
X1000000Y550000D02*
D03*
X987500D02*
D03*
X975000D02*
D03*
X962500D02*
D03*
X950000D02*
D03*
X987500Y500000D02*
D03*
X975000D02*
D03*
X962500D02*
D03*
X1000000Y525000D02*
D03*
X987500D02*
D03*
X975000D02*
D03*
X962500D02*
D03*
X950000D02*
D03*
D98*
X366970Y690250D02*
D03*
X499050D02*
D03*
D99*
X386000Y596000D02*
D03*
X433000Y595000D02*
D03*
X480000D02*
D03*
D100*
X312000Y570000D02*
D03*
D101*
Y595000D02*
D03*
D102*
X1080000Y440000D02*
D03*
X332000D02*
D03*
X600000Y175000D02*
D03*
X810000D02*
D03*
D103*
X660000Y163500D02*
D03*
X669500D02*
D03*
X651000D02*
D03*
X669500Y136500D02*
D03*
X650500D02*
D03*
M02*
