M48
;Layer_Color=9474304
;FILE_FORMAT=4:4
METRIC,LZ
;TYPE=PLATED
T1F00S00C0.3000
T2F00S00C0.4000
T3F00S00C0.6000
T4F00S00C1.0000
T5F00S00C1.6000
T6F00S00C4.1000
%
T01
X00913Y00302
X0092Y00334
X00895Y00409
X00868Y00382
X0084836Y0038227
X0083439Y0038608
X0082296Y00411
X00813
Y00422
X0080264Y0042291
X0079Y00423
X0078994Y0036957
X0081534Y0036322
X00855Y00352
X00841Y00335
X008445Y003185
X00879Y00319
X00873Y00275
X00828
X0082042Y0028702
X00812Y00287
X00815Y00244
X00795Y0025
X0078486Y0023622
X0078Y0021
X0077
X0076
X0074803Y0022479
X007366Y0023495
X00733Y00261
X0074041Y0026416
X00769Y0026
X0077978Y0026522
X00773Y00279
X00768Y00295
Y00303
X0074422Y0029464
X00726Y00298
X0071247Y0029718
X00699Y00313
X00692Y00329
X0072009Y003302
X0074549Y0031496
X0074422Y0036703
X0074Y00385
X00734Y00394
X007239Y0039497
X00717Y004
X00701Y00365
X00681Y00361
X0066802Y0035941
X00654Y00366
X0063Y00364
X0063373Y0034417
X0065151Y0033528
X006477Y0032512
X0065151Y0029337
X0064389Y0028194
X0065Y00259
X00687Y00255
X00678Y00245
X0069342Y0022733
X0070993Y0021971
X00714Y00209
X0072475Y0019075
X0072771Y0017653
X0073406Y0017018
X0074295
X0075565Y0016129
X00764Y00174
X0077Y0018
X0075Y0018542
X0071755Y0017018
X0070993
X00697Y00173
X00690025Y0016129
X0068961Y0013843
X0067183Y0014986
X006477
X0064897Y00127
X00651Y00175
X00679Y00183
X0069342Y0019939
X0066Y00216
X00651Y00216
X00642Y00224
X0058928Y0022606
X005842Y0024384
X0056134
X0055499Y0022733
X00573Y00263
X0059944Y0028956
X0058928Y0030226
X0055626Y0031877
X0054356Y0030734
Y0033147
X0052451Y0033782
X0050165
X004953Y00321
X0051308Y0035687
X0051943Y0028956
Y0026924
X0057658Y004191
X0061214Y0042545
X00646Y00429
X0066421Y0041275
X0067691Y0045974
X0071501
X0070104Y0043688
X0074041
X0075565Y0045974
X00845Y00471
Y0048
X00865Y00466
Y00457
X0058547Y0045974
X0071247Y0024384
X00742Y00127
X0075565Y0013843
T02
X00905Y0045
Y0046
Y0047
X00973Y0044
X009905Y004295
X01006Y0043
Y0044
Y0045
X01043Y0044
X00501Y00467
X00589Y0027
X00395Y0049
X0035Y00492
X00395Y0051
Y0053
X0041
Y0054
X00395Y0055
X004Y0057
X004445Y0056642
X0046482
X004655Y005405
X0045466Y0054102
X00461Y00531
X0045339Y0050927
X00413Y00516
X0041402Y0049403
X0030438Y00524
X00313Y00609
X00345Y0063
X0037
X0038
X00391
X0051Y0057
X0053Y0058
X0055Y0059
X0057
X0059
X0061Y006
X0062Y0062
X0064
X0066
X0068
X007
X0072
X0074
X0076
X0078
X008
X00817
Y00599
X00816Y0058
Y0056
Y0054
Y0052
Y005
X00758Y00505
Y0058
X00873Y00586
X0087Y00537
X0092875Y0055425
X00928Y00509
X0092125Y0049475
X01026Y00495
X01023Y00541
X01074Y00547
Y00567
X0106553Y0056134
X01064Y00573
X01078Y00579
X0105791Y0060579
X01067Y00649
X010414Y0068453
X0109347
X01132Y00595
Y00584
Y00572
Y0056
X01116Y00532
X01084Y00512
X0092175Y0060525
T03
X009625Y005
X00975
X009875
Y00525
X01
Y0055
X009875
X00975
X009625
X0095
Y00575
X009625
X00975
X009875
X01
X009875Y006
X00975
X009625
Y00525
X00975
X0095
T04
X00906941Y0024398
X01025Y00362039
X01042961Y0038
X01007039
X01025Y00397961
X0088898Y00261941
X0087102Y0024398
X0088898Y0022602
X0087102Y00208059
X00853059Y0022602
X00312Y0057
Y00595
T05
X00386Y00596
X00433Y00595
X0048
X0036697Y0069025
X0049905
T06
X0108Y0044
X0081Y00175
X006
X00332Y0044
M30
