%FSLAX44Y44*%
%MOMM*%
G71*
G01*
G75*
G04 Layer_Physical_Order=1*
G04 Layer_Color=255*
%ADD10R,1.3000X1.5000*%
%ADD11O,0.6000X1.5000*%
%ADD12R,2.8000X2.1000*%
%ADD13R,2.0000X0.6100*%
G04:AMPARAMS|DCode=14|XSize=1.145mm|YSize=0.55mm|CornerRadius=0.1375mm|HoleSize=0mm|Usage=FLASHONLY|Rotation=270.000|XOffset=0mm|YOffset=0mm|HoleType=Round|Shape=RoundedRectangle|*
%AMROUNDEDRECTD14*
21,1,1.1450,0.2750,0,0,270.0*
21,1,0.8700,0.5500,0,0,270.0*
1,1,0.2750,-0.1375,-0.4350*
1,1,0.2750,-0.1375,0.4350*
1,1,0.2750,0.1375,0.4350*
1,1,0.2750,0.1375,-0.4350*
%
%ADD14ROUNDEDRECTD14*%
G04:AMPARAMS|DCode=15|XSize=1.145mm|YSize=0.55mm|CornerRadius=0.1375mm|HoleSize=0mm|Usage=FLASHONLY|Rotation=0.000|XOffset=0mm|YOffset=0mm|HoleType=Round|Shape=RoundedRectangle|*
%AMROUNDEDRECTD15*
21,1,1.1450,0.2750,0,0,0.0*
21,1,0.8700,0.5500,0,0,0.0*
1,1,0.2750,0.4350,-0.1375*
1,1,0.2750,-0.4350,-0.1375*
1,1,0.2750,-0.4350,0.1375*
1,1,0.2750,0.4350,0.1375*
%
%ADD15ROUNDEDRECTD15*%
G04:AMPARAMS|DCode=16|XSize=0.3mm|YSize=0.75mm|CornerRadius=0.075mm|HoleSize=0mm|Usage=FLASHONLY|Rotation=90.000|XOffset=0mm|YOffset=0mm|HoleType=Round|Shape=RoundedRectangle|*
%AMROUNDEDRECTD16*
21,1,0.3000,0.6000,0,0,90.0*
21,1,0.1500,0.7500,0,0,90.0*
1,1,0.1500,0.3000,0.0750*
1,1,0.1500,0.3000,-0.0750*
1,1,0.1500,-0.3000,-0.0750*
1,1,0.1500,-0.3000,0.0750*
%
%ADD16ROUNDEDRECTD16*%
G04:AMPARAMS|DCode=17|XSize=0.3mm|YSize=0.75mm|CornerRadius=0.075mm|HoleSize=0mm|Usage=FLASHONLY|Rotation=0.000|XOffset=0mm|YOffset=0mm|HoleType=Round|Shape=RoundedRectangle|*
%AMROUNDEDRECTD17*
21,1,0.3000,0.6000,0,0,0.0*
21,1,0.1500,0.7500,0,0,0.0*
1,1,0.1500,0.0750,-0.3000*
1,1,0.1500,-0.0750,-0.3000*
1,1,0.1500,-0.0750,0.3000*
1,1,0.1500,0.0750,0.3000*
%
%ADD17ROUNDEDRECTD17*%
%ADD18R,0.6000X1.0500*%
%ADD19R,1.4000X0.2800*%
%ADD20O,0.4000X2.1500*%
%ADD21O,0.4000X2.1500*%
%ADD22R,3.2000X1.8000*%
%ADD23R,1.8000X1.6000*%
%ADD24R,1.5000X1.3000*%
%ADD25R,7.0000X4.0000*%
%ADD26R,2.8000X3.8000*%
%ADD27R,1.2000X0.7000*%
%ADD28R,2.6000X2.4000*%
%ADD29R,2.2000X2.0000*%
%ADD30R,1.6000X1.8000*%
%ADD31R,4.2400X3.8100*%
%ADD32R,4.2400X3.0000*%
%ADD33O,2.0000X0.4600*%
%ADD34R,6.4000X10.0000*%
%ADD35R,3.4000X3.1000*%
%ADD36R,1.5000X1.5000*%
%ADD37C,0.4000*%
%ADD38C,0.2000*%
%ADD39C,0.5080*%
%ADD40C,0.3000*%
%ADD41C,0.5000*%
%ADD42C,0.3810*%
%ADD43C,1.0000*%
%ADD44C,0.2794*%
%ADD45C,0.3556*%
%ADD46C,2.0000*%
%ADD47C,0.4572*%
%ADD48C,1.5000*%
%ADD49C,0.1778*%
%ADD50P,2.2627X4X270.0*%
%ADD51C,1.6000*%
%ADD52C,1.0000*%
G04:AMPARAMS|DCode=53|XSize=2.5mm|YSize=2mm|CornerRadius=0mm|HoleSize=0mm|Usage=FLASHONLY|Rotation=0.000|XOffset=0mm|YOffset=0mm|HoleType=Round|Shape=Octagon|*
%AMOCTAGOND53*
4,1,8,1.2500,-0.5000,1.2500,0.5000,0.7500,1.0000,-0.7500,1.0000,-1.2500,0.5000,-1.2500,-0.5000,-0.7500,-1.0000,0.7500,-1.0000,1.2500,-0.5000,0.0*
%
%ADD53OCTAGOND53*%

G04:AMPARAMS|DCode=54|XSize=2.5mm|YSize=2mm|CornerRadius=0mm|HoleSize=0mm|Usage=FLASHONLY|Rotation=270.000|XOffset=0mm|YOffset=0mm|HoleType=Round|Shape=Octagon|*
%AMOCTAGOND54*
4,1,8,-0.5000,-1.2500,0.5000,-1.2500,1.0000,-0.7500,1.0000,0.7500,0.5000,1.2500,-0.5000,1.2500,-1.0000,0.7500,-1.0000,-0.7500,-0.5000,-1.2500,0.0*
%
%ADD54OCTAGOND54*%

%ADD55C,2.0000*%
%ADD56R,2.0000X2.0000*%
%ADD57C,0.6000*%
%ADD58C,0.7500*%
G36*
X362617Y638754D02*
X360461Y637862D01*
X358581Y636419D01*
X357139Y634539D01*
X356232Y632350D01*
X355922Y630000D01*
Y480000D01*
X300000D01*
Y555922D01*
X311678D01*
X312000Y555879D01*
X312322Y555922D01*
X320000D01*
X321561Y556232D01*
X322884Y557116D01*
X323768Y558439D01*
X324078Y560000D01*
Y562743D01*
X324229Y562940D01*
X325640Y566345D01*
X326121Y570000D01*
X325640Y573655D01*
X324229Y577060D01*
X324078Y577257D01*
Y580000D01*
X323768Y581561D01*
X322884Y582884D01*
X321561Y583768D01*
X320000Y584078D01*
X314961D01*
X311600Y584521D01*
X300000D01*
Y640000D01*
X362369D01*
X362617Y638754D01*
D02*
G37*
G36*
X260000Y600000D02*
X280000Y580000D01*
X320000D01*
Y560000D01*
X260000D01*
X220000Y600000D01*
Y611000D01*
Y680000D01*
X260000D01*
Y600000D01*
D02*
G37*
G36*
X830000Y480000D02*
X815768D01*
X804078Y491689D01*
Y600000D01*
X803768Y601561D01*
X802884Y602884D01*
X801561Y603768D01*
X800000Y604078D01*
X750000D01*
X748439Y603768D01*
X747116Y602884D01*
X746232Y601561D01*
X745922Y600000D01*
Y561689D01*
X728311Y544078D01*
X690000D01*
X688439Y543768D01*
X687116Y542884D01*
X686232Y541561D01*
X685922Y540000D01*
Y490000D01*
Y480000D01*
X600209D01*
X600168Y480050D01*
Y485012D01*
X600870Y486708D01*
X601110Y488535D01*
Y497535D01*
X600870Y499362D01*
X600164Y501065D01*
X599042Y502527D01*
X597580Y503649D01*
X595877Y504355D01*
X594050Y504595D01*
X592223Y504355D01*
X590520Y503649D01*
X590217Y503417D01*
X589078Y503979D01*
Y510000D01*
X588768Y511561D01*
X587884Y512884D01*
X586561Y513768D01*
X585000Y514078D01*
X540000D01*
Y550000D01*
X490000D01*
Y545400D01*
X484118D01*
X483741Y545652D01*
X481400Y546118D01*
X470910D01*
X469408Y547270D01*
X467523Y548050D01*
X465500Y548317D01*
X463477Y548050D01*
X461592Y547270D01*
X459973Y546027D01*
X458730Y544408D01*
X457949Y542523D01*
X457683Y540500D01*
X457949Y538477D01*
X457774Y538052D01*
X457091Y537770D01*
X455473Y536527D01*
X454230Y534908D01*
X453450Y533023D01*
X453183Y531000D01*
X453450Y528977D01*
X454230Y527092D01*
X454296Y527006D01*
X452888Y525598D01*
X449600D01*
Y529600D01*
Y534600D01*
Y545400D01*
X427600D01*
Y545098D01*
X415857D01*
X415527Y545527D01*
X413908Y546770D01*
X412023Y547551D01*
X410000Y547817D01*
X407977Y547551D01*
X406091Y546770D01*
X404473Y545527D01*
X403230Y543908D01*
X402449Y542023D01*
X402183Y540000D01*
X402449Y537977D01*
X403230Y536092D01*
X404068Y535000D01*
X403230Y533909D01*
X402449Y532023D01*
X402183Y530000D01*
X402449Y527977D01*
X403230Y526092D01*
X404473Y524473D01*
X406091Y523230D01*
X406200Y523185D01*
X407473Y521527D01*
X406230Y519908D01*
X405449Y518023D01*
X405183Y516000D01*
X405449Y513977D01*
X406230Y512092D01*
X407473Y510473D01*
X409092Y509230D01*
X410977Y508450D01*
X413000Y508183D01*
X415023Y508450D01*
X416908Y509230D01*
X418527Y510473D01*
X419770Y512092D01*
X420550Y513977D01*
X420817Y516000D01*
X420550Y518023D01*
X420210Y518846D01*
X420915Y519902D01*
X427600D01*
Y519600D01*
Y514600D01*
X449600D01*
Y515402D01*
X455000D01*
X456951Y515790D01*
X458605Y516895D01*
X462709Y520999D01*
X463882Y520513D01*
Y491000D01*
X464348Y488659D01*
X465674Y486674D01*
X471175Y481173D01*
X470689Y480000D01*
X374078D01*
Y582763D01*
X375251Y583249D01*
X379000Y579500D01*
X393000D01*
X400000Y586500D01*
Y605500D01*
X393000Y612500D01*
X379000D01*
X375251Y608751D01*
X374078Y609237D01*
Y620922D01*
X391000D01*
X393349Y621232D01*
X395539Y622139D01*
X397419Y623581D01*
X398862Y625461D01*
X399768Y627650D01*
X400078Y630000D01*
X399768Y632350D01*
X398862Y634539D01*
X397419Y636419D01*
X395539Y637862D01*
X393383Y638754D01*
X393631Y640000D01*
X403232D01*
X414922Y628311D01*
Y580000D01*
X415232Y578439D01*
X416116Y577116D01*
X417439Y576232D01*
X419000Y575922D01*
X448000D01*
X449561Y576232D01*
X450884Y577116D01*
X451768Y578439D01*
X452078Y580000D01*
Y640000D01*
X461922D01*
Y580000D01*
X462232Y578439D01*
X463116Y577116D01*
X464439Y576232D01*
X466000Y575922D01*
X497000D01*
X497054Y575932D01*
X497109Y575923D01*
X497833Y576087D01*
X498561Y576232D01*
X498607Y576263D01*
X498661Y576275D01*
X499267Y576704D01*
X499884Y577116D01*
X499915Y577162D01*
X499960Y577194D01*
X500355Y577822D01*
X500768Y578439D01*
X500779Y578493D01*
X500808Y578540D01*
X522804Y635922D01*
X535000D01*
Y631000D01*
X565000D01*
Y635922D01*
X575000D01*
Y631000D01*
X605000D01*
Y635922D01*
X730000D01*
X731561Y636232D01*
X732884Y637116D01*
X733768Y638439D01*
X734078Y640000D01*
X830000D01*
Y480000D01*
D02*
G37*
G36*
X691000Y415000D02*
X691000Y415000D01*
X691000D01*
X691344Y414170D01*
X685587Y408413D01*
X684924Y407421D01*
X684691Y406250D01*
X684691Y406250D01*
Y365894D01*
X683571Y365295D01*
X682951Y365710D01*
X681000Y366098D01*
X679049Y365710D01*
X677395Y364605D01*
X676162Y364483D01*
X673233Y367413D01*
X672241Y368076D01*
X671070Y368309D01*
X671070Y368309D01*
X658471D01*
X657605Y369605D01*
X655951Y370710D01*
X654000Y371098D01*
X652049Y370710D01*
X650395Y369605D01*
X649290Y367951D01*
X648902Y366000D01*
X649290Y364049D01*
X650395Y362395D01*
X652049Y361290D01*
X654000Y360902D01*
X655951Y361290D01*
X657300Y362191D01*
X662474D01*
X663280Y361209D01*
X662922Y359410D01*
X663127Y358381D01*
X662750Y358004D01*
Y344750D01*
Y332121D01*
X663311Y332232D01*
X664634Y333116D01*
X665366D01*
X666689Y332232D01*
X668250Y331922D01*
X669811Y332232D01*
X671134Y333116D01*
X671866D01*
X673189Y332232D01*
X674750Y331922D01*
X676311Y332232D01*
X677634Y333116D01*
X678366D01*
X679689Y332232D01*
X681250Y331922D01*
X682811Y332232D01*
X684134Y333116D01*
X684866D01*
X686189Y332232D01*
X686737Y332123D01*
X687308Y330988D01*
X687290Y330951D01*
X687290Y330951D01*
X687290Y330951D01*
X686902Y329000D01*
X687290Y327049D01*
X688395Y325395D01*
X690049Y324290D01*
X692000Y323902D01*
X693951Y324290D01*
X695605Y325395D01*
X696710Y327049D01*
X697098Y329000D01*
X696927Y329857D01*
X697076Y330079D01*
X697309Y331250D01*
Y332141D01*
X698429Y332740D01*
X699189Y332232D01*
X700750Y331922D01*
X702311Y332232D01*
X703634Y333116D01*
X704366D01*
X705689Y332232D01*
X707250Y331922D01*
X708811Y332232D01*
X710134Y333116D01*
X710866D01*
X712189Y332232D01*
X713750Y331922D01*
X714279Y332027D01*
X715177Y331129D01*
X714992Y330200D01*
X715380Y328249D01*
X716485Y326595D01*
X718139Y325490D01*
X720090Y325102D01*
X722041Y325490D01*
X723330Y326352D01*
X724576Y326104D01*
X724587Y326087D01*
X729837Y320837D01*
X729837Y320837D01*
X730432Y320440D01*
X730829Y320174D01*
X732000Y319941D01*
X741758D01*
X742126Y318726D01*
X741885Y318565D01*
X740780Y316911D01*
X740591Y315960D01*
X750389D01*
X750200Y316911D01*
X749095Y318565D01*
X748854Y318726D01*
X749222Y319941D01*
X774733D01*
X780941Y313733D01*
Y271088D01*
X779959Y270282D01*
X779780Y270318D01*
X777829Y269930D01*
X776175Y268825D01*
X775070Y267171D01*
X774682Y265220D01*
X775070Y263269D01*
X775691Y262340D01*
X774934Y261320D01*
X773765Y261675D01*
X773710Y261951D01*
X772605Y263605D01*
X770951Y264710D01*
X769000Y265098D01*
X767049Y264710D01*
X765395Y263605D01*
X764290Y261951D01*
X763902Y260000D01*
X764030Y259356D01*
X762733Y258059D01*
X741845D01*
X741720Y259323D01*
X742361Y259450D01*
X744015Y260555D01*
X745120Y262209D01*
X745309Y263160D01*
X740410D01*
Y265160D01*
X745309D01*
X745232Y265547D01*
X746130Y266446D01*
X746250Y266422D01*
X747811Y266732D01*
X749134Y267616D01*
X750018Y268939D01*
X750328Y270500D01*
Y276191D01*
X768863D01*
X769395Y275395D01*
X771049Y274290D01*
X773000Y273902D01*
X774951Y274290D01*
X776605Y275395D01*
X777710Y277049D01*
X778098Y279000D01*
X777710Y280951D01*
X776605Y282605D01*
X774951Y283710D01*
X773000Y284098D01*
X771049Y283710D01*
X769395Y282605D01*
X769197Y282309D01*
X750328D01*
Y288000D01*
X750018Y289561D01*
X749134Y290884D01*
X748906Y291036D01*
X748658Y292282D01*
X748930Y292689D01*
X749119Y293640D01*
X744220D01*
Y295640D01*
X749119D01*
X748930Y296591D01*
X747825Y298245D01*
X746171Y299350D01*
X744525Y299677D01*
X744649Y300941D01*
X755733D01*
X763207Y293467D01*
X763290Y293049D01*
X764395Y291395D01*
X766049Y290290D01*
X768000Y289902D01*
X769951Y290290D01*
X771605Y291395D01*
X772710Y293049D01*
X773098Y295000D01*
X772710Y296951D01*
X771605Y298605D01*
Y299395D01*
X772710Y301049D01*
X773098Y303000D01*
X772710Y304951D01*
X771605Y306605D01*
X769951Y307710D01*
X769533Y307793D01*
X767163Y310163D01*
X766171Y310826D01*
X765000Y311059D01*
X765000Y311059D01*
X750244D01*
X749645Y312179D01*
X750200Y313009D01*
X750389Y313960D01*
X740591D01*
X740780Y313009D01*
X741335Y312179D01*
X740736Y311059D01*
X708050D01*
X706880Y310826D01*
X705887Y310163D01*
X703232Y307508D01*
X702346Y307875D01*
X702221Y309139D01*
X702605Y309395D01*
X703710Y311049D01*
X704098Y313000D01*
X703710Y314951D01*
X702605Y316605D01*
X700951Y317710D01*
X699000Y318098D01*
X697049Y317710D01*
X695395Y316605D01*
X694290Y314951D01*
X693902Y313000D01*
X694290Y311049D01*
X695395Y309395D01*
X695941Y309030D01*
Y306567D01*
X685587Y296213D01*
X684924Y295221D01*
X684691Y294050D01*
D01*
D01*
D01*
D01*
D01*
D01*
X684691Y294050D01*
D01*
X684691Y294050D01*
D01*
X684691D01*
D01*
D01*
D01*
D01*
D01*
Y294050D01*
X684575Y293972D01*
X683476Y293639D01*
X683413Y293733D01*
X652670Y324476D01*
X652798Y325120D01*
X652410Y327071D01*
X651305Y328725D01*
X650819Y329049D01*
X651305Y330223D01*
X651510Y330182D01*
X653461Y330570D01*
X655115Y331675D01*
X656220Y333329D01*
X656576Y335121D01*
X657846D01*
X657982Y334439D01*
X658866Y333116D01*
X660189Y332232D01*
X660750Y332121D01*
Y343750D01*
X657672D01*
Y336411D01*
X656408Y336287D01*
X656220Y337231D01*
X655115Y338885D01*
X653461Y339990D01*
X652510Y340179D01*
Y335280D01*
X651510D01*
Y334280D01*
X646611D01*
X646800Y333329D01*
X647905Y331675D01*
X648391Y331351D01*
X647905Y330177D01*
X647700Y330218D01*
X645749Y329830D01*
X644095Y328725D01*
X642990Y327071D01*
X642602Y325120D01*
X642990Y323169D01*
X644095Y321515D01*
X645749Y320410D01*
X647700Y320022D01*
X648344Y320150D01*
X675026Y293468D01*
X674750Y292078D01*
X673189Y291768D01*
X671866Y290884D01*
X671134D01*
X669811Y291768D01*
X668250Y292078D01*
X666689Y291768D01*
X665366Y290884D01*
X664634D01*
X663311Y291768D01*
X661750Y292078D01*
X660189Y291768D01*
X658866Y290884D01*
X657982Y289561D01*
X657672Y288000D01*
Y282309D01*
X648915D01*
X648600Y283891D01*
X647495Y285545D01*
X645841Y286650D01*
X643890Y287038D01*
X641939Y286650D01*
X640285Y285545D01*
X639180Y283891D01*
X638792Y281940D01*
X639055Y280620D01*
X638941Y280050D01*
X638941Y280050D01*
Y227970D01*
X638395Y227605D01*
X637290Y225951D01*
X636902Y224000D01*
X637290Y222049D01*
X638395Y220395D01*
X640049Y219290D01*
X642000Y218902D01*
X643951Y219290D01*
X645605Y220395D01*
X646710Y222049D01*
X647941Y221804D01*
Y219970D01*
X647395Y219605D01*
X646290Y217951D01*
X645902Y216000D01*
X646290Y214049D01*
X647395Y212395D01*
X649049Y211290D01*
X651000Y210902D01*
X652951Y211290D01*
X654605Y212395D01*
X654865Y212785D01*
X656135D01*
X656395Y212395D01*
X658049Y211290D01*
X660000Y210902D01*
X661951Y211290D01*
X663605Y212395D01*
X664710Y214049D01*
X665098Y216000D01*
X664710Y217951D01*
X663605Y219605D01*
X663059Y219970D01*
Y225733D01*
X677356Y240030D01*
X678000Y239902D01*
X679951Y240290D01*
X681605Y241395D01*
X682710Y243049D01*
X683941Y242804D01*
Y216000D01*
X683941Y216000D01*
X684174Y214830D01*
X684837Y213837D01*
X685837Y212837D01*
X686830Y212174D01*
X688000Y211941D01*
X688000Y211941D01*
X688682D01*
X689488Y210959D01*
X689446Y210750D01*
Y209250D01*
X689660Y208177D01*
X689851Y207890D01*
Y203019D01*
X689815Y202995D01*
X688710Y201341D01*
X688322Y199390D01*
X688710Y197439D01*
X689815Y195785D01*
X691469Y194680D01*
X693420Y194292D01*
X695371Y194680D01*
X696483Y195423D01*
X697267Y195267D01*
X697267Y195267D01*
Y195267D01*
X698177Y194660D01*
X699250Y194446D01*
X700750D01*
X701823Y194660D01*
X702500Y195112D01*
X703177Y194660D01*
X704250Y194446D01*
X705750D01*
X706823Y194660D01*
X707500Y195112D01*
X708177Y194660D01*
X709250Y194446D01*
X710750D01*
X711823Y194660D01*
X712500Y195112D01*
X713177Y194660D01*
X714250Y194446D01*
X715750D01*
X716823Y194660D01*
X717500Y195112D01*
X718177Y194660D01*
X719250Y194446D01*
X719859D01*
X720458Y193326D01*
X720040Y192701D01*
X719652Y190750D01*
X720040Y188799D01*
X721145Y187145D01*
X722799Y186040D01*
X724750Y185652D01*
X726701Y186040D01*
X728355Y187145D01*
X729460Y188799D01*
X729848Y190750D01*
X729460Y192701D01*
X728355Y194355D01*
X727809Y194720D01*
Y206458D01*
X728823Y206660D01*
X729733Y207267D01*
X730340Y208177D01*
X730554Y209250D01*
Y210750D01*
X730340Y211823D01*
X729888Y212500D01*
X730340Y213177D01*
X730554Y214250D01*
Y215750D01*
X730340Y216823D01*
X729888Y217500D01*
X730340Y218177D01*
X730554Y219250D01*
Y220750D01*
X730340Y221823D01*
X729733Y222733D01*
X728823Y223340D01*
X727750Y223554D01*
X724824D01*
X724750Y223569D01*
X723534D01*
X722733Y224767D01*
X723341Y225677D01*
X723554Y226750D01*
Y228750D01*
X720000D01*
Y230750D01*
X723554D01*
Y232750D01*
X723341Y233823D01*
X722733Y234733D01*
X721823Y235340D01*
X720750Y235554D01*
X720329D01*
X719843Y236727D01*
X721057Y237941D01*
X731334D01*
X731890Y236901D01*
X731701Y235950D01*
X741499D01*
X741310Y236901D01*
X741866Y237941D01*
X756941D01*
Y213970D01*
X756395Y213605D01*
X755290Y211951D01*
X754902Y210000D01*
X755290Y208049D01*
X756395Y206395D01*
X758049Y205290D01*
X760000Y204902D01*
X761951Y205290D01*
X763605Y206395D01*
X764365Y207533D01*
X765635D01*
X766395Y206395D01*
X768049Y205290D01*
X770000Y204902D01*
X771951Y205290D01*
X773605Y206395D01*
X774365Y207533D01*
X775635D01*
X776395Y206395D01*
X778049Y205290D01*
X780000Y204902D01*
X781951Y205290D01*
X783605Y206395D01*
X784710Y208049D01*
X785098Y210000D01*
X784710Y211951D01*
X783605Y213605D01*
X783059Y213970D01*
Y230093D01*
X784216Y231250D01*
X784860Y231122D01*
X786811Y231510D01*
X788465Y232615D01*
X789570Y234269D01*
X789958Y236220D01*
X789570Y238171D01*
X788465Y239825D01*
X786811Y240930D01*
X786001Y241091D01*
X785632Y242306D01*
X790017Y246691D01*
X791281Y246567D01*
X791395Y246395D01*
X793049Y245290D01*
X795000Y244902D01*
X796951Y245290D01*
X798605Y246395D01*
X799710Y248049D01*
X800098Y250000D01*
X799710Y251951D01*
X798605Y253605D01*
X796951Y254710D01*
X795000Y255098D01*
X793930Y254885D01*
X793331Y256005D01*
X794163Y256837D01*
X794826Y257829D01*
X794898Y258192D01*
X796113Y258561D01*
X810030Y244644D01*
X809902Y244000D01*
X810290Y242049D01*
X811395Y240395D01*
X813049Y239290D01*
X815000Y238902D01*
X816951Y239290D01*
X818605Y240395D01*
X819710Y242049D01*
X820098Y244000D01*
X819710Y245951D01*
X818605Y247605D01*
X816951Y248710D01*
X815000Y249098D01*
X814356Y248970D01*
X799059Y264267D01*
Y322000D01*
X798826Y323171D01*
X798163Y324163D01*
X798163Y324163D01*
X775413Y346913D01*
X774420Y347576D01*
X773250Y347809D01*
X773250Y347809D01*
X750328D01*
Y353500D01*
X750018Y355061D01*
X749134Y356384D01*
X747811Y357268D01*
X746250Y357578D01*
X744689Y357268D01*
X743366Y356384D01*
X742634D01*
X741311Y357268D01*
X739750Y357578D01*
X738189Y357268D01*
X736866Y356384D01*
X736134D01*
X734811Y357268D01*
X733250Y357578D01*
X731689Y357268D01*
X730366Y356384D01*
X729634D01*
X728311Y357268D01*
X726750Y357578D01*
X725189Y357268D01*
X723866Y356384D01*
X723134D01*
X721811Y357268D01*
X720250Y357578D01*
X718689Y357268D01*
X717929Y356760D01*
X716809Y357358D01*
Y369000D01*
X736000D01*
Y380312D01*
X737120Y380911D01*
X738049Y380290D01*
X740000Y379902D01*
X741951Y380290D01*
X742880Y380911D01*
X744000Y380312D01*
Y372441D01*
X743555Y371996D01*
X742269Y371740D01*
X740615Y370635D01*
X739510Y368981D01*
X739122Y367030D01*
X739510Y365079D01*
X740615Y363425D01*
X742269Y362320D01*
X744220Y361932D01*
X746171Y362320D01*
X747825Y363425D01*
X748930Y365079D01*
X749186Y366365D01*
X751821Y369000D01*
X764000D01*
Y389000D01*
X828872D01*
X829678Y388018D01*
X829292Y386080D01*
X829680Y384129D01*
X830785Y382475D01*
X831172Y382217D01*
Y380098D01*
X830190Y379292D01*
X829750Y379380D01*
Y366750D01*
Y354120D01*
X830311Y354232D01*
X831634Y355116D01*
X832366D01*
X833689Y354232D01*
X835250Y353922D01*
X836811Y354232D01*
X837571Y354740D01*
X838691Y354142D01*
Y353250D01*
X838691Y353250D01*
X838924Y352079D01*
X839587Y351087D01*
X850837Y339837D01*
X850837Y339837D01*
X851830Y339174D01*
X853000Y338941D01*
X853000Y338941D01*
X914733D01*
X916265Y337410D01*
X915290Y335951D01*
X914902Y334000D01*
X915290Y332049D01*
X916395Y330395D01*
X918049Y329290D01*
X920000Y328902D01*
X921951Y329290D01*
X923605Y330395D01*
X924710Y332049D01*
X925098Y334000D01*
X924710Y335951D01*
X923605Y337605D01*
X923059Y337970D01*
Y338000D01*
X922826Y339171D01*
X922560Y339568D01*
X922163Y340163D01*
X922163Y340163D01*
X918163Y344163D01*
X917170Y344826D01*
X916000Y345059D01*
X916000Y345059D01*
X854267D01*
X853331Y345995D01*
X853930Y347115D01*
X855000Y346902D01*
X856951Y347290D01*
X858605Y348395D01*
X859710Y350049D01*
X860098Y352000D01*
X859875Y353118D01*
X860773Y354016D01*
X861250Y353922D01*
X862811Y354232D01*
X864134Y355116D01*
X864866D01*
X866189Y354232D01*
X867750Y353922D01*
X869311Y354232D01*
X870634Y355116D01*
X871518Y356439D01*
X871828Y358000D01*
Y375500D01*
X871518Y377061D01*
X870928Y377943D01*
X871605Y378395D01*
X872710Y380049D01*
X873098Y382000D01*
X872710Y383951D01*
X871605Y385605D01*
X869951Y386710D01*
X868000Y387098D01*
X866049Y386710D01*
X864395Y385605D01*
X863290Y383951D01*
X862902Y382000D01*
X863249Y380257D01*
X862537Y379546D01*
X862279Y379374D01*
X861250Y379578D01*
X859689Y379268D01*
X858366Y378384D01*
X857634D01*
X856311Y379268D01*
X854750Y379578D01*
X854310Y379491D01*
X853070Y380319D01*
X853458Y382270D01*
X853070Y384221D01*
X851965Y385875D01*
X850311Y386980D01*
X848360Y387368D01*
X846409Y386980D01*
X844755Y385875D01*
X843650Y384221D01*
X843262Y382270D01*
X843650Y380319D01*
X842360Y379457D01*
X841750Y379578D01*
X840310Y379292D01*
X839328Y380098D01*
Y385220D01*
X839328Y385220D01*
X839323Y385249D01*
X839488Y386080D01*
X839102Y388018D01*
X839908Y389000D01*
X1000366D01*
X1000775Y387797D01*
X999907Y387132D01*
X998305Y385043D01*
X997297Y382611D01*
X996953Y380000D01*
X997297Y377389D01*
X998305Y374957D01*
X999907Y372868D01*
X1001996Y371265D01*
X1004429Y370257D01*
X1007039Y369914D01*
X1009650Y370257D01*
X1012083Y371265D01*
X1014172Y372868D01*
X1015774Y374957D01*
X1016782Y377389D01*
X1017126Y380000D01*
X1016782Y382611D01*
X1015774Y385043D01*
X1014172Y387132D01*
X1013305Y387797D01*
X1013713Y389000D01*
X1020501D01*
X1022390Y388218D01*
X1025000Y387874D01*
X1027610Y388218D01*
X1029499Y389000D01*
X1036159D01*
X1036645Y387827D01*
X1028818Y380000D01*
X1042961Y365858D01*
X1057103Y380000D01*
X1049276Y387827D01*
X1049762Y389000D01*
X1084341D01*
X1084827Y387827D01*
X817000Y120000D01*
X773059D01*
Y176030D01*
X773605Y176395D01*
X774710Y178049D01*
X775098Y180000D01*
X774710Y181951D01*
X773605Y183605D01*
X771951Y184710D01*
X770000Y185098D01*
X768049Y184710D01*
X766395Y183605D01*
X765290Y181951D01*
X764902Y180000D01*
X764903Y179995D01*
X764005Y179097D01*
X764000Y179098D01*
X762049Y178710D01*
X760395Y177605D01*
X759290Y175951D01*
X758902Y174000D01*
X759290Y172049D01*
X760395Y170395D01*
X760941Y170030D01*
Y166267D01*
X760837Y166163D01*
X760262Y165302D01*
X759016Y165054D01*
X757601Y166000D01*
X756650Y166189D01*
Y161290D01*
Y156391D01*
X757601Y156580D01*
X758821Y157395D01*
X759941Y156797D01*
Y142923D01*
X758821Y142325D01*
X757601Y143140D01*
X756650Y143329D01*
Y138430D01*
Y133531D01*
X757601Y133720D01*
X758821Y134535D01*
X759941Y133937D01*
Y123267D01*
X759733Y123059D01*
X746727D01*
X746128Y124179D01*
X746710Y125049D01*
X747098Y127000D01*
X746710Y128951D01*
X745605Y130605D01*
Y130605D01*
X745605D01*
X745808Y131242D01*
X745808Y131242D01*
X745808D01*
X746554Y132358D01*
X746816Y133675D01*
Y142375D01*
X746554Y143692D01*
Y143692D01*
X746554D01*
X747325Y144184D01*
X748642Y144446D01*
X749758Y145192D01*
X750504Y146308D01*
X750766Y147625D01*
Y150375D01*
X750504Y151692D01*
X750299Y151999D01*
X751463Y153162D01*
X751463Y153162D01*
X752126Y154155D01*
X752359Y155325D01*
X752359Y155325D01*
Y156129D01*
X753479Y156727D01*
X753699Y156580D01*
X754650Y156391D01*
Y161290D01*
Y166189D01*
X753699Y166000D01*
X753479Y165853D01*
X752359Y166451D01*
Y180983D01*
X753605Y181815D01*
X754710Y183469D01*
X755098Y185420D01*
X754710Y187371D01*
X753605Y189025D01*
X751951Y190130D01*
X750000Y190518D01*
X748049Y190130D01*
X746395Y189025D01*
X745290Y187371D01*
X744902Y185420D01*
X745290Y183469D01*
X746241Y182046D01*
Y175341D01*
X745121Y174743D01*
X744901Y174890D01*
X743950Y175079D01*
Y170180D01*
X741950D01*
Y175079D01*
X740999Y174890D01*
X739345Y173785D01*
X739140Y173478D01*
X737870D01*
X737665Y173785D01*
X736011Y174890D01*
X734060Y175278D01*
X733618Y175190D01*
X732720Y176088D01*
X732808Y176530D01*
X732420Y178481D01*
X731315Y180135D01*
X729661Y181240D01*
X727710Y181628D01*
X725759Y181240D01*
X724105Y180135D01*
X724054Y180059D01*
X701000D01*
X699829Y179826D01*
X699432Y179560D01*
X698837Y179163D01*
X698837Y179163D01*
X697644Y177970D01*
X697000Y178098D01*
X695049Y177710D01*
X693395Y176605D01*
X692768Y175667D01*
X691505Y175542D01*
X684089Y182957D01*
X684098Y183000D01*
X683710Y184951D01*
X682605Y186605D01*
X680951Y187710D01*
X679000Y188098D01*
X677049Y187710D01*
X675395Y186605D01*
X675371Y186569D01*
X645478D01*
X605525Y226521D01*
X605277Y227771D01*
X604273Y229273D01*
X602771Y230277D01*
X601000Y230629D01*
X591442D01*
X591231Y230770D01*
X589280Y231158D01*
X588482Y230999D01*
X587500Y231805D01*
Y233750D01*
X577500D01*
Y219250D01*
X587500D01*
Y220315D01*
X588482Y221121D01*
X589280Y220962D01*
X591231Y221350D01*
X591262Y221371D01*
X600582D01*
X641477Y180477D01*
X642634Y179703D01*
X644000Y179431D01*
X646600D01*
X647199Y178311D01*
X646290Y176951D01*
X645902Y175000D01*
X646290Y173049D01*
X647395Y171395D01*
X649049Y170290D01*
X651000Y169902D01*
X652951Y170290D01*
X654605Y171395D01*
X654970Y171941D01*
X673363D01*
X676941Y168363D01*
Y155660D01*
X676941Y155660D01*
X677174Y154489D01*
X677837Y153497D01*
X684497Y146837D01*
X685490Y146174D01*
X686660Y145941D01*
X686660Y145941D01*
X693741D01*
X694242Y145192D01*
X695358Y144446D01*
X696675Y144184D01*
X697446Y143692D01*
X697446D01*
Y143692D01*
X697184Y142375D01*
Y133675D01*
X697446Y132358D01*
X698192Y131242D01*
X698941Y130741D01*
Y125000D01*
X698941Y125000D01*
X699174Y123829D01*
X699837Y122837D01*
X701501Y121173D01*
X701015Y120000D01*
X600000D01*
X291173Y428827D01*
X291659Y430000D01*
X305835D01*
X306975Y427249D01*
X309277Y423491D01*
X312140Y420140D01*
X315491Y417277D01*
X319249Y414975D01*
X323321Y413288D01*
X327606Y412259D01*
X332000Y411913D01*
X336394Y412259D01*
X340679Y413288D01*
X344751Y414975D01*
X348509Y417277D01*
X351860Y420140D01*
X354723Y423491D01*
X356717Y426746D01*
X357940Y426401D01*
Y405000D01*
X358180Y403173D01*
X358885Y401470D01*
X360008Y400008D01*
X417998Y342017D01*
X495008Y265008D01*
X495008Y265007D01*
X496470Y263885D01*
X498173Y263180D01*
X500000Y262940D01*
X500505Y263006D01*
X522916Y240596D01*
X524404Y239601D01*
X526160Y239252D01*
X559207D01*
X559389Y239130D01*
X559604Y239087D01*
X560936Y237756D01*
X562424Y236761D01*
X564180Y236412D01*
X581360D01*
X583116Y236761D01*
X584604Y237756D01*
X585936Y239087D01*
X586151Y239130D01*
X587805Y240235D01*
X588910Y241889D01*
X589298Y243840D01*
X588910Y245791D01*
X587805Y247445D01*
X587500Y247649D01*
Y260750D01*
X578651D01*
X577846Y261732D01*
X578098Y263000D01*
X577710Y264951D01*
X577128Y265821D01*
X577727Y266941D01*
X584128D01*
X584855Y265854D01*
X586757Y264584D01*
X589000Y264137D01*
X591244Y264584D01*
X593145Y265854D01*
X594416Y267757D01*
X594863Y270000D01*
X594416Y272243D01*
X593145Y274146D01*
X591244Y275416D01*
X589000Y275863D01*
X586757Y275416D01*
X584855Y274146D01*
X584128Y273059D01*
X558000D01*
Y279500D01*
X558000D01*
Y280500D01*
X558000Y280500D01*
Y280500D01*
Y286941D01*
X561000D01*
Y280500D01*
X578000D01*
Y299500D01*
X561000D01*
Y293059D01*
X558000D01*
Y299500D01*
X541000D01*
Y280500D01*
X541000D01*
Y279500D01*
X541000D01*
Y260500D01*
X558000D01*
D01*
X558000D01*
X558500Y260000D01*
Y248428D01*
X528060D01*
X513250Y263239D01*
X513736Y264412D01*
X518074D01*
X519430Y264142D01*
X520786Y264412D01*
X522000D01*
Y260500D01*
X539000D01*
Y279500D01*
X539000D01*
Y280500D01*
X539000Y280500D01*
Y280500D01*
Y299500D01*
X522000D01*
Y295196D01*
X521928Y295088D01*
X521018Y294342D01*
X519430Y294658D01*
X517479Y294270D01*
X515825Y293165D01*
X514720Y291511D01*
X514332Y289560D01*
X514720Y287609D01*
X515825Y285955D01*
X517479Y284850D01*
X519430Y284462D01*
X521018Y284778D01*
X521928Y284032D01*
X522000Y283923D01*
Y280500D01*
X522000D01*
Y279500D01*
X522000D01*
Y274876D01*
X521928Y274769D01*
X521018Y274022D01*
X519430Y274338D01*
X517479Y273950D01*
X516938Y273588D01*
X506070D01*
X504992Y274993D01*
X438246Y341739D01*
X438732Y342912D01*
X498083D01*
X498452Y341697D01*
X498045Y341425D01*
X496940Y339771D01*
X496552Y337820D01*
X496940Y335869D01*
X498045Y334215D01*
X499699Y333110D01*
X499914Y333067D01*
X502226Y330756D01*
X503714Y329761D01*
X505470Y329412D01*
X520690D01*
X522446Y329761D01*
X523934Y330756D01*
X526246Y333067D01*
X526461Y333110D01*
X528115Y334215D01*
X529220Y335869D01*
X529608Y337820D01*
X529220Y339771D01*
X528115Y341425D01*
X527500Y341836D01*
Y354750D01*
X518757D01*
X517952Y355732D01*
X518178Y356870D01*
X517790Y358821D01*
X516685Y360475D01*
X515031Y361580D01*
X513080Y361968D01*
X511129Y361580D01*
X509475Y360475D01*
X508370Y358821D01*
X507982Y356870D01*
X508209Y355732D01*
X507403Y354750D01*
X498500D01*
Y352088D01*
X427897D01*
X372060Y407924D01*
Y430000D01*
X588000D01*
Y416000D01*
X610000D01*
Y419777D01*
X610982Y420582D01*
X612140Y420352D01*
X614091Y420740D01*
X615745Y421845D01*
X616850Y423499D01*
X617238Y425450D01*
X616850Y427401D01*
X615862Y428880D01*
X616460Y430000D01*
X637015D01*
X637501Y428827D01*
X627837Y419163D01*
X627174Y418171D01*
X626941Y417000D01*
X626941Y417000D01*
Y367970D01*
X626395Y367605D01*
X625290Y365951D01*
X624902Y364000D01*
X625290Y362049D01*
X626395Y360395D01*
X628049Y359290D01*
X630000Y358902D01*
X631951Y359290D01*
X633605Y360395D01*
X634710Y362049D01*
X635098Y364000D01*
X634710Y365951D01*
X633605Y367605D01*
X633059Y367970D01*
Y415733D01*
X642590Y425265D01*
X644049Y424290D01*
X646000Y423902D01*
X647951Y424290D01*
X649605Y425395D01*
X650710Y427049D01*
X651098Y429000D01*
X651094Y429018D01*
X651804Y429883D01*
X653000Y429455D01*
Y415000D01*
X658559D01*
X659364Y414018D01*
X659112Y412750D01*
X659500Y410799D01*
X660605Y409145D01*
X662259Y408040D01*
X664210Y407652D01*
X666161Y408040D01*
X667815Y409145D01*
X668920Y410799D01*
X669308Y412750D01*
X669056Y414018D01*
X669861Y415000D01*
X675000D01*
Y430000D01*
X691000D01*
Y415000D01*
D02*
G37*
G36*
X585000Y483118D02*
X499000D01*
Y510000D01*
X585000D01*
Y483118D01*
D02*
G37*
G36*
X800000Y490000D02*
Y490000D01*
X840000Y450000D01*
X898192D01*
X898424Y448238D01*
X899104Y446596D01*
X900186Y445186D01*
X901596Y444104D01*
X903238Y443424D01*
X905000Y443192D01*
X906762Y443424D01*
X908404Y444104D01*
X909814Y445186D01*
X910896Y446596D01*
X911576Y448238D01*
X911808Y450000D01*
X911576Y451762D01*
X910896Y453404D01*
X910608Y453780D01*
Y456220D01*
X910896Y456596D01*
X911576Y458238D01*
X911808Y460000D01*
X911576Y461762D01*
X910896Y463404D01*
X910608Y463780D01*
Y466220D01*
X910896Y466596D01*
X911576Y468238D01*
X911808Y470000D01*
X911576Y471762D01*
X910896Y473404D01*
X910000Y474572D01*
Y489346D01*
X913700D01*
X915238Y489652D01*
X916806D01*
X917846Y488854D01*
X919488Y488174D01*
X921250Y487942D01*
X923012Y488174D01*
X924654Y488854D01*
X926064Y489936D01*
X927146Y491346D01*
X927826Y492988D01*
X928058Y494750D01*
X927826Y496512D01*
X927146Y498154D01*
X926064Y499564D01*
X924654Y500646D01*
X923012Y501326D01*
X921250Y501558D01*
X919488Y501326D01*
X918720Y503181D01*
X918692Y503318D01*
X917903Y504500D01*
X918692Y505682D01*
X919104Y507750D01*
X918692Y509818D01*
X917521Y511571D01*
X915768Y512743D01*
X913700Y513154D01*
X910000D01*
Y515346D01*
X913700D01*
X915768Y515757D01*
X917521Y516929D01*
X918692Y518682D01*
X919104Y520750D01*
X940000D01*
Y497000D01*
Y482000D01*
X955000D01*
Y466000D01*
X995000D01*
Y482000D01*
X1010000D01*
Y497000D01*
Y520750D01*
X1030896D01*
X1031308Y518682D01*
X1032479Y516929D01*
X1034232Y515757D01*
X1036300Y515346D01*
X1045000D01*
Y513154D01*
X1036300D01*
X1034232Y512743D01*
X1032479Y511571D01*
X1031308Y509818D01*
X1030896Y507750D01*
X1031308Y505682D01*
X1032097Y504500D01*
X1031308Y503318D01*
X1030896Y501250D01*
X1029818Y500579D01*
X1029404Y500896D01*
X1027762Y501576D01*
X1026000Y501808D01*
X1024238Y501576D01*
X1022596Y500896D01*
X1021186Y499814D01*
X1020104Y498404D01*
X1019424Y496762D01*
X1019192Y495000D01*
X1019424Y493238D01*
X1020104Y491596D01*
X1021186Y490186D01*
X1022596Y489104D01*
X1024238Y488424D01*
X1026000Y488192D01*
X1027762Y488424D01*
X1029404Y489104D01*
X1030118Y489652D01*
X1034762D01*
X1036300Y489346D01*
X1045000D01*
Y480608D01*
X1042854Y480181D01*
X1041035Y478965D01*
X1030677Y468608D01*
X1014000D01*
X1011854Y468181D01*
X1010035Y466965D01*
X1002035Y458965D01*
X1000819Y457146D01*
X1000392Y455000D01*
X1000585Y454031D01*
X1000104Y453404D01*
X999424Y451762D01*
X999192Y450000D01*
X999424Y448238D01*
X999706Y447556D01*
X999001Y446500D01*
X982500D01*
Y433500D01*
X983708D01*
X984413Y432444D01*
X983924Y431262D01*
X983758Y430000D01*
X830000D01*
X790000Y470000D01*
X690000D01*
Y490000D01*
Y540000D01*
X730000D01*
X750000Y560000D01*
Y600000D01*
X800000D01*
Y490000D01*
D02*
G37*
G36*
X448000Y580000D02*
X419000D01*
Y630000D01*
X403000Y646000D01*
X280000D01*
Y690000D01*
X350470D01*
Y683250D01*
X357470Y676250D01*
X376470D01*
X383470Y683250D01*
Y690000D01*
X448000D01*
Y580000D01*
D02*
G37*
G36*
X771935Y697397D02*
X772068Y697382D01*
X772231Y697368D01*
X772409Y697353D01*
X772601Y697323D01*
X772809Y697279D01*
X773046Y697219D01*
X773520Y697086D01*
X773786Y696997D01*
X774038Y696894D01*
X774304Y696775D01*
X774571Y696642D01*
X774586Y696627D01*
X774630Y696612D01*
X774704Y696568D01*
X774808Y696509D01*
X774926Y696420D01*
X775060Y696331D01*
X775208Y696213D01*
X775370Y696094D01*
X775548Y695946D01*
X775726Y695783D01*
X775904Y695605D01*
X776096Y695413D01*
X776274Y695206D01*
X776437Y694984D01*
X776614Y694732D01*
X776762Y694480D01*
X776777Y694465D01*
X776792Y694421D01*
X776836Y694347D01*
X776881Y694243D01*
X776940Y694110D01*
X777014Y693962D01*
X777088Y693784D01*
X777162Y693592D01*
X777222Y693369D01*
X777296Y693147D01*
X777429Y692644D01*
X777518Y692111D01*
X777533Y691829D01*
X777547Y691548D01*
Y691533D01*
Y691474D01*
Y691400D01*
X777533Y691296D01*
X777518Y691148D01*
X777503Y691000D01*
X777488Y690822D01*
X777444Y690615D01*
X777414Y690408D01*
X777355Y690171D01*
X777222Y689682D01*
X777133Y689416D01*
X777029Y689164D01*
X776896Y688897D01*
X776762Y688631D01*
X776748Y688616D01*
X776733Y688571D01*
X776688Y688497D01*
X776614Y688409D01*
X776540Y688290D01*
X776451Y688157D01*
X776333Y687994D01*
X776200Y687846D01*
X776052Y687668D01*
X775904Y687490D01*
X775726Y687313D01*
X775533Y687135D01*
X775311Y686957D01*
X775089Y686780D01*
X774852Y686617D01*
X774601Y686469D01*
X774586Y686454D01*
X774541Y686439D01*
X774467Y686395D01*
X774363Y686350D01*
X774230Y686291D01*
X774082Y686232D01*
X773904Y686158D01*
X773712Y686084D01*
X773505Y686010D01*
X773282Y685936D01*
X772779Y685817D01*
X772246Y685728D01*
X771965Y685714D01*
X771683Y685699D01*
X771535D01*
X771432Y685714D01*
X771283Y685728D01*
X771135Y685743D01*
X770958Y685758D01*
X770750Y685802D01*
X770543Y685832D01*
X770306Y685891D01*
X769817Y686024D01*
X769551Y686113D01*
X769299Y686217D01*
X769033Y686336D01*
X768766Y686469D01*
X768751Y686484D01*
X768707Y686498D01*
X768633Y686543D01*
X768544Y686617D01*
X768425Y686691D01*
X768292Y686780D01*
X768129Y686898D01*
X767981Y687031D01*
X767803Y687180D01*
X767626Y687342D01*
X767448Y687520D01*
X767270Y687713D01*
X767093Y687920D01*
X766915Y688142D01*
X766752Y688379D01*
X766604Y688631D01*
X766589Y688646D01*
X766574Y688690D01*
X766530Y688764D01*
X766486Y688868D01*
X766426Y689001D01*
X766367Y689149D01*
X766293Y689327D01*
X766219Y689519D01*
X766145Y689741D01*
X766071Y689964D01*
X765953Y690452D01*
X765864Y690985D01*
X765849Y691267D01*
X765834Y691548D01*
Y691563D01*
Y691622D01*
Y691696D01*
X765849Y691814D01*
X765864Y691948D01*
X765878Y692111D01*
X765893Y692288D01*
X765938Y692481D01*
X765967Y692703D01*
X766027Y692940D01*
X766160Y693429D01*
X766249Y693680D01*
X766367Y693947D01*
X766486Y694213D01*
X766619Y694480D01*
X766634Y694495D01*
X766648Y694539D01*
X766708Y694613D01*
X766767Y694717D01*
X766841Y694835D01*
X766945Y694969D01*
X767063Y695117D01*
X767181Y695280D01*
X767330Y695443D01*
X767493Y695620D01*
X767685Y695813D01*
X767878Y695990D01*
X768085Y696168D01*
X768307Y696331D01*
X768559Y696494D01*
X768811Y696642D01*
X768825Y696657D01*
X768870Y696672D01*
X768944Y696716D01*
X769047Y696760D01*
X769181Y696820D01*
X769329Y696879D01*
X769506Y696953D01*
X769699Y697027D01*
X769906Y697101D01*
X770128Y697175D01*
X770617Y697294D01*
X771135Y697382D01*
X771417Y697397D01*
X771683Y697412D01*
X771831D01*
X771935Y697397D01*
D02*
G37*
G36*
X994000Y658500D02*
X1005000D01*
Y656000D01*
X1007500D01*
Y646000D01*
X1014000D01*
Y645586D01*
X1030000Y629217D01*
X1044000Y614895D01*
Y610312D01*
X1042769Y610067D01*
X1042122Y609634D01*
X1036300D01*
X1034622Y609300D01*
X1033200Y608350D01*
X1032250Y606928D01*
X1031916Y605250D01*
X1032250Y603572D01*
X1033200Y602150D01*
Y601850D01*
X1032250Y600428D01*
X1031916Y598750D01*
X1032250Y597072D01*
X1033200Y595650D01*
Y595350D01*
X1032250Y593928D01*
X1031916Y592250D01*
X1032250Y590572D01*
X1033200Y589150D01*
Y588850D01*
X1032250Y587428D01*
X1031916Y585750D01*
X1032250Y584072D01*
X1033200Y582650D01*
Y582350D01*
X1032250Y580928D01*
X1031916Y579250D01*
X1032250Y577572D01*
X1033200Y576150D01*
Y575850D01*
X1032250Y574428D01*
X1031916Y572750D01*
X1032250Y571072D01*
X1033200Y569650D01*
Y569350D01*
X1032799Y568750D01*
X1034546D01*
X1034622Y568699D01*
X1036300Y568365D01*
X1044000D01*
Y564135D01*
X1036300D01*
X1034622Y563801D01*
X1034546Y563750D01*
X1032799D01*
X1033200Y563150D01*
Y562850D01*
X1032250Y561428D01*
X1031916Y559750D01*
X1032250Y558072D01*
X1031676Y557000D01*
X1009000D01*
Y598000D01*
Y617000D01*
X994000D01*
Y633000D01*
X956000D01*
Y617000D01*
X941000D01*
Y598000D01*
Y557000D01*
X933828D01*
X932896Y558396D01*
X930993Y559666D01*
X928750Y560113D01*
X926507Y559666D01*
X924604Y558396D01*
X923672Y557000D01*
X918324D01*
X917750Y558072D01*
X918084Y559750D01*
X917750Y561428D01*
X916800Y562850D01*
Y563150D01*
X917201Y563750D01*
X915454D01*
X915378Y563801D01*
X913700Y564135D01*
X906000D01*
Y568365D01*
X913700D01*
X915378Y568699D01*
X915454Y568750D01*
X917201D01*
X916800Y569350D01*
Y569650D01*
X917750Y571072D01*
X918084Y572750D01*
X917750Y574428D01*
X916800Y575850D01*
Y576150D01*
X917750Y577572D01*
X918084Y579250D01*
X917750Y580928D01*
X916800Y582350D01*
Y582650D01*
X917750Y584072D01*
X918084Y585750D01*
X917750Y587428D01*
X916800Y588850D01*
Y589150D01*
X917750Y590572D01*
X918084Y592250D01*
X917750Y593928D01*
X916800Y595350D01*
Y595650D01*
X917750Y597072D01*
X918084Y598750D01*
X917941Y599468D01*
X918997Y600174D01*
X919507Y599834D01*
X921750Y599387D01*
X923994Y599834D01*
X925895Y601105D01*
X927166Y603007D01*
X927613Y605250D01*
X927166Y607494D01*
X925895Y609395D01*
X923994Y610666D01*
X921750Y611113D01*
X919507Y610666D01*
X917605Y609395D01*
X917560Y609328D01*
X915238D01*
X913700Y609634D01*
X906000D01*
Y646000D01*
X912500D01*
Y656000D01*
X915000D01*
Y658500D01*
X926000D01*
Y664000D01*
X934000D01*
Y658500D01*
X956000D01*
Y664000D01*
X964000D01*
Y658500D01*
X986000D01*
Y664000D01*
X994000D01*
Y658500D01*
D02*
G37*
G36*
X730000Y640000D02*
X520000D01*
X497000Y580000D01*
X466000D01*
Y690000D01*
X482550D01*
Y683250D01*
X489550Y676250D01*
X508550D01*
X515550Y683250D01*
Y690000D01*
X730000D01*
Y640000D01*
D02*
G37*
%LPC*%
G36*
X888980Y272027D02*
X886370Y271683D01*
X883937Y270676D01*
X882648Y269687D01*
X888980Y263355D01*
X895312Y269687D01*
X894023Y270676D01*
X891591Y271683D01*
X888980Y272027D01*
D02*
G37*
G36*
X997907Y341701D02*
X926274Y270069D01*
X939000Y257343D01*
X1010632Y328975D01*
X997907Y341701D01*
D02*
G37*
G36*
X896726Y268273D02*
X890394Y261941D01*
X896726Y255609D01*
X897715Y256898D01*
X898723Y259330D01*
X899066Y261941D01*
X898723Y264551D01*
X897715Y266984D01*
X896726Y268273D01*
D02*
G37*
G36*
X888980Y260527D02*
X882648Y254195D01*
X883937Y253206D01*
X886370Y252198D01*
X888980Y251855D01*
X891591Y252198D01*
X894023Y253206D01*
X895312Y254195D01*
X888980Y260527D01*
D02*
G37*
G36*
X871020Y254067D02*
X868409Y253723D01*
X865977Y252715D01*
X863888Y251112D01*
X862285Y249023D01*
X861277Y246591D01*
X860934Y243980D01*
X861277Y241370D01*
X862285Y238937D01*
X863888Y236848D01*
X865977Y235245D01*
X868409Y234238D01*
X871020Y233894D01*
X873630Y234238D01*
X876063Y235245D01*
X878152Y236848D01*
X879755Y238937D01*
X880762Y241370D01*
X881106Y243980D01*
X880762Y246591D01*
X879755Y249023D01*
X878152Y251112D01*
X876063Y252715D01*
X873630Y253723D01*
X871020Y254067D01*
D02*
G37*
G36*
X568500Y233750D02*
X558500D01*
Y232345D01*
X557380Y231747D01*
X556941Y232040D01*
X554990Y232428D01*
X553039Y232040D01*
X551385Y230935D01*
X550280Y229281D01*
X549892Y227330D01*
X550280Y225379D01*
X551385Y223725D01*
X553039Y222620D01*
X554990Y222232D01*
X555689Y222371D01*
X558500D01*
Y219250D01*
X568500D01*
Y233750D01*
D02*
G37*
G36*
X881234Y268273D02*
X880245Y266984D01*
X879238Y264551D01*
X878894Y261941D01*
X879238Y259330D01*
X880245Y256898D01*
X881234Y255609D01*
X887566Y261941D01*
X881234Y268273D01*
D02*
G37*
G36*
X735600Y233950D02*
X731701D01*
X731890Y232999D01*
X732995Y231345D01*
X734649Y230240D01*
X735600Y230051D01*
Y233950D01*
D02*
G37*
G36*
X741499D02*
X737600D01*
Y230051D01*
X738551Y230240D01*
X740205Y231345D01*
X741310Y232999D01*
X741499Y233950D01*
D02*
G37*
G36*
X548459Y306340D02*
X544560D01*
Y302441D01*
X545511Y302630D01*
X547165Y303735D01*
X548270Y305389D01*
X548459Y306340D01*
D02*
G37*
G36*
X542560D02*
X538661D01*
X538850Y305389D01*
X539955Y303735D01*
X541609Y302630D01*
X542560Y302441D01*
Y306340D01*
D02*
G37*
G36*
Y312239D02*
X541609Y312050D01*
X539955Y310945D01*
X538850Y309291D01*
X538661Y308340D01*
X542560D01*
Y312239D01*
D02*
G37*
G36*
X521500Y319500D02*
X517500D01*
Y313250D01*
X521500D01*
Y319500D01*
D02*
G37*
G36*
X544560Y312239D02*
Y308340D01*
X548459D01*
X548270Y309291D01*
X547165Y310945D01*
X545511Y312050D01*
X544560Y312239D01*
D02*
G37*
G36*
X650510Y292370D02*
X646611D01*
X646800Y291419D01*
X647905Y289765D01*
X649559Y288660D01*
X650510Y288471D01*
Y292370D01*
D02*
G37*
G36*
X589280Y307358D02*
X587329Y306970D01*
X585675Y305865D01*
X584570Y304211D01*
X584182Y302260D01*
X584536Y300482D01*
X584180Y300049D01*
X583359Y299500D01*
X580000D01*
Y280500D01*
X597000D01*
Y283946D01*
X597982Y284752D01*
X599440Y284462D01*
X601391Y284850D01*
X603045Y285955D01*
X604150Y287609D01*
X604538Y289560D01*
X604150Y291511D01*
X603045Y293165D01*
X601391Y294270D01*
X599440Y294658D01*
X597982Y294368D01*
X597000Y295174D01*
Y299500D01*
X595201D01*
X594380Y300049D01*
X594024Y300482D01*
X594378Y302260D01*
X593990Y304211D01*
X592885Y305865D01*
X591231Y306970D01*
X589280Y307358D01*
D02*
G37*
G36*
X656409Y292370D02*
X652510D01*
Y288471D01*
X653461Y288660D01*
X655115Y289765D01*
X656220Y291419D01*
X656409Y292370D01*
D02*
G37*
G36*
X652510Y298269D02*
Y294370D01*
X656409D01*
X656220Y295321D01*
X655115Y296975D01*
X653461Y298080D01*
X652510Y298269D01*
D02*
G37*
G36*
X650510D02*
X649559Y298080D01*
X647905Y296975D01*
X646800Y295321D01*
X646611Y294370D01*
X650510D01*
Y298269D01*
D02*
G37*
G36*
X906941Y258122D02*
X892799Y243980D01*
X906941Y229838D01*
X921083Y243980D01*
X906941Y258122D01*
D02*
G37*
G36*
X689610Y143528D02*
X687659Y143140D01*
X686005Y142035D01*
X684900Y140381D01*
X684512Y138430D01*
X684900Y136479D01*
X686005Y134825D01*
X687659Y133720D01*
X689610Y133332D01*
X691561Y133720D01*
X693215Y134825D01*
X694320Y136479D01*
X694708Y138430D01*
X694320Y140381D01*
X693215Y142035D01*
X691561Y143140D01*
X689610Y143528D01*
D02*
G37*
G36*
X669500Y139000D02*
X661000D01*
Y131500D01*
X669500D01*
Y139000D01*
D02*
G37*
G36*
X754650Y143329D02*
X753699Y143140D01*
X752045Y142035D01*
X750940Y140381D01*
X750751Y139430D01*
X754650D01*
Y143329D01*
D02*
G37*
G36*
Y137430D02*
X750751D01*
X750940Y136479D01*
X752045Y134825D01*
X753699Y133720D01*
X754650Y133531D01*
Y137430D01*
D02*
G37*
G36*
X647970Y131899D02*
X647019Y131710D01*
X645365Y130605D01*
X644260Y128951D01*
X644071Y128000D01*
X647970D01*
Y131899D01*
D02*
G37*
G36*
X659000Y139000D02*
X650500D01*
Y132795D01*
X649970Y132360D01*
Y127000D01*
Y122101D01*
X650298Y122166D01*
X650500Y122000D01*
Y122000D01*
X659000D01*
Y130500D01*
Y139000D01*
D02*
G37*
G36*
X771920Y696435D02*
X771565D01*
X771476Y696420D01*
X771357D01*
X771239Y696405D01*
X771091Y696375D01*
X770928Y696361D01*
X770558Y696287D01*
X770158Y696168D01*
X769729Y696005D01*
X769506Y695916D01*
X769284Y695798D01*
X769269D01*
X769240Y695768D01*
X769166Y695739D01*
X769092Y695679D01*
X768988Y695620D01*
X768885Y695531D01*
X768618Y695339D01*
X768322Y695072D01*
X768026Y694761D01*
X767729Y694406D01*
X767463Y693991D01*
Y693977D01*
X767433Y693932D01*
X767404Y693873D01*
X767359Y693784D01*
X767315Y693680D01*
X767256Y693562D01*
X767196Y693414D01*
X767137Y693251D01*
X767078Y693073D01*
X767019Y692881D01*
X766915Y692466D01*
X766841Y692022D01*
X766826Y691785D01*
X766811Y691548D01*
Y691533D01*
Y691489D01*
Y691430D01*
X766826Y691326D01*
Y691222D01*
X766841Y691089D01*
X766871Y690941D01*
X766885Y690763D01*
X766974Y690393D01*
X767078Y689993D01*
X767241Y689549D01*
X767330Y689342D01*
X767448Y689119D01*
X767463Y689105D01*
X767478Y689075D01*
X767522Y689016D01*
X767567Y688927D01*
X767641Y688838D01*
X767715Y688720D01*
X767922Y688468D01*
X768174Y688172D01*
X768485Y687876D01*
X768840Y687579D01*
X769255Y687313D01*
X769269D01*
X769314Y687283D01*
X769373Y687254D01*
X769462Y687209D01*
X769566Y687165D01*
X769699Y687105D01*
X769832Y687061D01*
X769995Y687002D01*
X770365Y686883D01*
X770780Y686780D01*
X771224Y686706D01*
X771446Y686691D01*
X771683Y686676D01*
X771802D01*
X771905Y686691D01*
X772009D01*
X772142Y686706D01*
X772305Y686735D01*
X772468Y686750D01*
X772838Y686839D01*
X773253Y686943D01*
X773682Y687105D01*
X773890Y687194D01*
X774112Y687313D01*
X774127Y687328D01*
X774171Y687342D01*
X774230Y687387D01*
X774304Y687431D01*
X774408Y687505D01*
X774512Y687579D01*
X774778Y687787D01*
X775074Y688038D01*
X775370Y688349D01*
X775652Y688705D01*
X775918Y689119D01*
X775933Y689134D01*
X775948Y689179D01*
X775978Y689238D01*
X776022Y689327D01*
X776067Y689430D01*
X776126Y689549D01*
X776185Y689697D01*
X776244Y689860D01*
X776303Y690038D01*
X776363Y690215D01*
X776466Y690630D01*
X776540Y691074D01*
X776570Y691311D01*
Y691548D01*
Y691563D01*
Y691607D01*
Y691666D01*
X776555Y691770D01*
Y691874D01*
X776540Y692007D01*
X776511Y692170D01*
X776481Y692333D01*
X776407Y692703D01*
X776289Y693118D01*
X776126Y693547D01*
X776022Y693769D01*
X775904Y693991D01*
Y694006D01*
X775874Y694051D01*
X775829Y694110D01*
X775785Y694184D01*
X775711Y694287D01*
X775637Y694391D01*
X775430Y694658D01*
X775178Y694954D01*
X774867Y695250D01*
X774497Y695531D01*
X774082Y695798D01*
X774067Y695813D01*
X774023Y695827D01*
X773964Y695857D01*
X773875Y695902D01*
X773771Y695946D01*
X773653Y696005D01*
X773505Y696065D01*
X773342Y696124D01*
X772986Y696227D01*
X772572Y696331D01*
X772142Y696405D01*
X771920Y696435D01*
D02*
G37*
G36*
X647970Y126000D02*
X644071D01*
X644260Y125049D01*
X645365Y123395D01*
X647019Y122290D01*
X647970Y122101D01*
Y126000D01*
D02*
G37*
G36*
X669500Y129500D02*
X661000D01*
Y122000D01*
X669500D01*
Y129500D01*
D02*
G37*
G36*
X600000Y203087D02*
X595606Y202741D01*
X591321Y201712D01*
X587249Y200025D01*
X583491Y197722D01*
X580140Y194860D01*
X577277Y191509D01*
X574975Y187751D01*
X573288Y183679D01*
X572259Y179394D01*
X571913Y175000D01*
X572259Y170606D01*
X573288Y166321D01*
X574975Y162249D01*
X577277Y158491D01*
X580140Y155140D01*
X583491Y152277D01*
X587249Y149975D01*
X591321Y148288D01*
X595606Y147259D01*
X600000Y146913D01*
X604394Y147259D01*
X608679Y148288D01*
X612751Y149975D01*
X616509Y152277D01*
X619860Y155140D01*
X622723Y158491D01*
X625025Y162249D01*
X626712Y166321D01*
X627741Y170606D01*
X628087Y175000D01*
X627741Y179394D01*
X626712Y183679D01*
X625025Y187751D01*
X622723Y191509D01*
X619860Y194860D01*
X616509Y197722D01*
X612751Y200025D01*
X608679Y201712D01*
X604394Y202741D01*
X600000Y203087D01*
D02*
G37*
G36*
X752929Y223790D02*
X749030D01*
Y219891D01*
X749981Y220080D01*
X751635Y221185D01*
X752740Y222839D01*
X752929Y223790D01*
D02*
G37*
G36*
X747030D02*
X743131D01*
X743320Y222839D01*
X744425Y221185D01*
X746079Y220080D01*
X747030Y219891D01*
Y223790D01*
D02*
G37*
G36*
X749030Y229689D02*
Y225790D01*
X752929D01*
X752740Y226741D01*
X751635Y228395D01*
X749981Y229500D01*
X749030Y229689D01*
D02*
G37*
G36*
X747030D02*
X746079Y229500D01*
X744425Y228395D01*
X743320Y226741D01*
X743131Y225790D01*
X747030D01*
Y229689D01*
D02*
G37*
G36*
X853059Y236106D02*
X850449Y235762D01*
X848016Y234755D01*
X845927Y233152D01*
X844324Y231063D01*
X843317Y228630D01*
X842973Y226020D01*
X843317Y223409D01*
X844324Y220977D01*
X845927Y218888D01*
X848016Y217285D01*
X850449Y216277D01*
X853059Y215933D01*
X855670Y216277D01*
X858102Y217285D01*
X860191Y218888D01*
X861794Y220977D01*
X862802Y223409D01*
X863145Y226020D01*
X862802Y228630D01*
X861794Y231063D01*
X860191Y233152D01*
X858102Y234755D01*
X855670Y235762D01*
X853059Y236106D01*
D02*
G37*
G36*
X669500Y158000D02*
X650500D01*
Y155841D01*
X649851Y154869D01*
X649518Y154596D01*
X647700Y154958D01*
X645749Y154570D01*
X644095Y153465D01*
X642990Y151811D01*
X642602Y149860D01*
X642990Y147909D01*
X644095Y146255D01*
X645749Y145150D01*
X647700Y144762D01*
X649518Y145124D01*
X649851Y144851D01*
X650500Y143879D01*
Y141000D01*
X669500D01*
Y144225D01*
X670482Y145030D01*
X671830Y144762D01*
X673781Y145150D01*
X675435Y146255D01*
X676540Y147909D01*
X676928Y149860D01*
X676540Y151811D01*
X675435Y153465D01*
X673781Y154570D01*
X671830Y154958D01*
X670482Y154690D01*
X669500Y155495D01*
Y158000D01*
D02*
G37*
G36*
X810000Y203087D02*
X805606Y202741D01*
X801321Y201712D01*
X797249Y200025D01*
X793491Y197722D01*
X790140Y194860D01*
X787278Y191509D01*
X784975Y187751D01*
X783288Y183679D01*
X782259Y179394D01*
X781913Y175000D01*
X782259Y170606D01*
X783288Y166321D01*
X784975Y162249D01*
X787278Y158491D01*
X790140Y155140D01*
X793491Y152277D01*
X797249Y149975D01*
X801321Y148288D01*
X805606Y147259D01*
X810000Y146913D01*
X814394Y147259D01*
X818679Y148288D01*
X822751Y149975D01*
X826509Y152277D01*
X829860Y155140D01*
X832722Y158491D01*
X835025Y162249D01*
X836712Y166321D01*
X837741Y170606D01*
X838087Y175000D01*
X837741Y179394D01*
X836712Y183679D01*
X835025Y187751D01*
X832722Y191509D01*
X829860Y194860D01*
X826509Y197722D01*
X822751Y200025D01*
X818679Y201712D01*
X814394Y202741D01*
X810000Y203087D01*
D02*
G37*
G36*
X888980Y236106D02*
X886370Y235762D01*
X883937Y234755D01*
X881848Y233152D01*
X880245Y231063D01*
X879238Y228630D01*
X878894Y226020D01*
X879238Y223409D01*
X880245Y220977D01*
X881848Y218888D01*
X883937Y217285D01*
X886370Y216277D01*
X888980Y215933D01*
X891591Y216277D01*
X894023Y217285D01*
X896112Y218888D01*
X897715Y220977D01*
X898723Y223409D01*
X899066Y226020D01*
X898723Y228630D01*
X897715Y231063D01*
X896112Y233152D01*
X894023Y234755D01*
X891591Y235762D01*
X888980Y236106D01*
D02*
G37*
G36*
X871020Y218146D02*
X868409Y217802D01*
X865977Y216794D01*
X863888Y215191D01*
X862285Y213102D01*
X861277Y210670D01*
X860934Y208059D01*
X861277Y205449D01*
X862285Y203016D01*
X863888Y200927D01*
X865977Y199324D01*
X868409Y198317D01*
X871020Y197973D01*
X873630Y198317D01*
X876063Y199324D01*
X878152Y200927D01*
X879755Y203016D01*
X880762Y205449D01*
X881106Y208059D01*
X880762Y210670D01*
X879755Y213102D01*
X878152Y215191D01*
X876063Y216794D01*
X873630Y217802D01*
X871020Y218146D01*
D02*
G37*
G36*
X790940Y374469D02*
Y370570D01*
X794839D01*
X794650Y371521D01*
X793545Y373175D01*
X791891Y374280D01*
X790940Y374469D01*
D02*
G37*
G36*
X788940D02*
X787989Y374280D01*
X786335Y373175D01*
X785230Y371521D01*
X785041Y370570D01*
X788940D01*
Y374469D01*
D02*
G37*
G36*
X575580Y418100D02*
X571681D01*
X571870Y417149D01*
X572975Y415495D01*
X574629Y414390D01*
X575580Y414201D01*
Y418100D01*
D02*
G37*
G36*
X827750Y379380D02*
X827189Y379268D01*
X825866Y378384D01*
X825134D01*
X823811Y379268D01*
X823250Y379380D01*
Y366750D01*
Y354120D01*
X823811Y354232D01*
X825134Y355116D01*
X825866D01*
X827189Y354232D01*
X827750Y354120D01*
Y366750D01*
Y379380D01*
D02*
G37*
G36*
X821250D02*
X820689Y379268D01*
X819366Y378384D01*
X818482Y377061D01*
X818172Y375500D01*
Y368756D01*
X817190Y367950D01*
X816340Y368119D01*
Y363220D01*
Y358321D01*
X817160Y358484D01*
X818216Y357778D01*
X818482Y356439D01*
X819366Y355116D01*
X820689Y354232D01*
X821250Y354120D01*
Y366750D01*
Y379380D01*
D02*
G37*
G36*
X814340Y368119D02*
X813389Y367930D01*
X811735Y366825D01*
X810630Y365171D01*
X810441Y364220D01*
X814340D01*
Y368119D01*
D02*
G37*
G36*
Y362220D02*
X810441D01*
X810630Y361269D01*
X811735Y359615D01*
X813389Y358510D01*
X814340Y358321D01*
Y362220D01*
D02*
G37*
G36*
X794839Y368570D02*
X790940D01*
Y364671D01*
X791891Y364860D01*
X793545Y365965D01*
X794650Y367619D01*
X794839Y368570D01*
D02*
G37*
G36*
X788940D02*
X785041D01*
X785230Y367619D01*
X786335Y365965D01*
X787989Y364860D01*
X788940Y364671D01*
Y368570D01*
D02*
G37*
G36*
X581479Y418100D02*
X577580D01*
Y414201D01*
X578531Y414390D01*
X580185Y415495D01*
X581290Y417149D01*
X581479Y418100D01*
D02*
G37*
G36*
X972500Y653500D02*
X964000D01*
Y646000D01*
X972500D01*
Y653500D01*
D02*
G37*
G36*
X956000D02*
X947500D01*
Y646000D01*
X956000D01*
Y653500D01*
D02*
G37*
G36*
X1002500D02*
X994000D01*
Y646000D01*
X1002500D01*
Y653500D01*
D02*
G37*
G36*
X986000D02*
X977500D01*
Y646000D01*
X986000D01*
Y653500D01*
D02*
G37*
G36*
X942500D02*
X934000D01*
Y646000D01*
X942500D01*
Y653500D01*
D02*
G37*
G36*
X577580Y423999D02*
Y420100D01*
X581479D01*
X581290Y421051D01*
X580185Y422705D01*
X578531Y423810D01*
X577580Y423999D01*
D02*
G37*
G36*
X575580D02*
X574629Y423810D01*
X572975Y422705D01*
X571870Y421051D01*
X571681Y420100D01*
X575580D01*
Y423999D01*
D02*
G37*
G36*
X926000Y653500D02*
X917500D01*
Y646000D01*
X926000D01*
Y653500D01*
D02*
G37*
G36*
X730000Y604078D02*
X640000D01*
X638439Y603768D01*
X637116Y602884D01*
X637116Y602884D01*
X617116Y582884D01*
X617116Y582884D01*
X608311Y574078D01*
X550000D01*
X548439Y573768D01*
X547116Y572884D01*
X546232Y571561D01*
X545922Y570000D01*
Y560000D01*
Y530000D01*
X546232Y528439D01*
X547116Y527116D01*
X548439Y526232D01*
X550000Y525922D01*
X608311D01*
X615922Y518311D01*
Y490000D01*
X616232Y488439D01*
X617116Y487116D01*
X618439Y486232D01*
X620000Y485922D01*
X660000D01*
X661561Y486232D01*
X662884Y487116D01*
X663768Y488439D01*
X664078Y490000D01*
Y538311D01*
X671689Y545922D01*
X720000D01*
X720000Y545922D01*
X721302Y546181D01*
X721561Y546232D01*
X722884Y547116D01*
X732884Y557116D01*
X733768Y558439D01*
X733819Y558698D01*
X734078Y560000D01*
X734078Y560000D01*
Y600000D01*
X733768Y601561D01*
X732884Y602884D01*
X731561Y603768D01*
X730000Y604078D01*
D02*
G37*
G36*
X1025000Y372126D02*
X1022390Y371782D01*
X1019957Y370774D01*
X1017868Y369172D01*
X1016265Y367083D01*
X1015257Y364650D01*
X1014914Y362039D01*
X1015257Y359429D01*
X1016265Y356996D01*
X1017868Y354907D01*
X1019957Y353304D01*
X1022390Y352297D01*
X1025000Y351953D01*
X1027610Y352297D01*
X1030043Y353304D01*
X1032132Y354907D01*
X1033735Y356996D01*
X1034743Y359429D01*
X1035086Y362039D01*
X1034743Y364650D01*
X1033735Y367083D01*
X1032132Y369172D01*
X1030043Y370774D01*
X1027610Y371782D01*
X1025000Y372126D01*
D02*
G37*
G36*
X527500Y327750D02*
X523500D01*
Y321500D01*
X527500D01*
Y327750D01*
D02*
G37*
G36*
X521500D02*
X517500D01*
Y321500D01*
X521500D01*
Y327750D01*
D02*
G37*
G36*
X542560Y330470D02*
X538661D01*
X538850Y329519D01*
X539955Y327865D01*
X541609Y326760D01*
X542560Y326571D01*
Y330470D01*
D02*
G37*
G36*
X508500Y327750D02*
X498500D01*
Y326222D01*
X497380Y325624D01*
X497251Y325710D01*
X495300Y326098D01*
X493349Y325710D01*
X491695Y324605D01*
X490590Y322951D01*
X490202Y321000D01*
X490590Y319049D01*
X491695Y317395D01*
X493349Y316290D01*
X495300Y315902D01*
X497251Y316290D01*
X497380Y316376D01*
X498500Y315778D01*
Y313250D01*
X508500D01*
Y327750D01*
D02*
G37*
G36*
X557260Y323669D02*
Y319770D01*
X561159D01*
X560970Y320721D01*
X559865Y322375D01*
X558211Y323480D01*
X557260Y323669D01*
D02*
G37*
G36*
X555260Y317770D02*
X551361D01*
X551550Y316819D01*
X552655Y315165D01*
X554309Y314060D01*
X555260Y313871D01*
Y317770D01*
D02*
G37*
G36*
X527500Y319500D02*
X523500D01*
Y313250D01*
X527500D01*
Y319500D01*
D02*
G37*
G36*
X555260Y323669D02*
X554309Y323480D01*
X552655Y322375D01*
X551550Y320721D01*
X551361Y319770D01*
X555260D01*
Y323669D01*
D02*
G37*
G36*
X561159Y317770D02*
X557260D01*
Y313871D01*
X558211Y314060D01*
X559865Y315165D01*
X560970Y316819D01*
X561159Y317770D01*
D02*
G37*
G36*
X548459Y330470D02*
X544560D01*
Y326571D01*
X545511Y326760D01*
X547165Y327865D01*
X548270Y329519D01*
X548459Y330470D01*
D02*
G37*
G36*
X638629Y343170D02*
X634730D01*
Y339271D01*
X635681Y339460D01*
X637335Y340565D01*
X638440Y342219D01*
X638629Y343170D01*
D02*
G37*
G36*
X632730D02*
X628831D01*
X629020Y342219D01*
X630125Y340565D01*
X631779Y339460D01*
X632730Y339271D01*
Y343170D01*
D02*
G37*
G36*
Y349069D02*
X631779Y348880D01*
X630125Y347775D01*
X629020Y346121D01*
X628831Y345170D01*
X632730D01*
Y349069D01*
D02*
G37*
G36*
X660750Y357379D02*
X660189Y357268D01*
X658866Y356384D01*
X657982Y355061D01*
X657672Y353500D01*
Y345750D01*
X660750D01*
Y357379D01*
D02*
G37*
G36*
X634730Y349069D02*
Y345170D01*
X638629D01*
X638440Y346121D01*
X637335Y347775D01*
X635681Y348880D01*
X634730Y349069D01*
D02*
G37*
G36*
X841000Y340098D02*
X839049Y339710D01*
X837395Y338605D01*
X836290Y336951D01*
X835902Y335000D01*
X836030Y334356D01*
X833087Y331413D01*
X832424Y330420D01*
X832191Y329250D01*
X832191Y329250D01*
Y313859D01*
X831071Y313260D01*
X830311Y313768D01*
X828750Y314078D01*
X827189Y313768D01*
X825866Y312884D01*
X825134D01*
X823811Y313768D01*
X822250Y314078D01*
X820689Y313768D01*
X819366Y312884D01*
X818482Y311561D01*
X818172Y310000D01*
Y292500D01*
X818269Y292013D01*
Y291596D01*
X816815Y290625D01*
X816802Y290605D01*
X815605D01*
X813951Y291710D01*
X812000Y292098D01*
X810049Y291710D01*
X808395Y290605D01*
X807290Y288951D01*
X806902Y287000D01*
X807290Y285049D01*
X808395Y283395D01*
X810049Y282290D01*
X812000Y281902D01*
X812644Y282030D01*
X816167Y278507D01*
X816167Y278507D01*
X816762Y278110D01*
X817160Y277844D01*
X818330Y277611D01*
X822302D01*
X822564Y277436D01*
X823226Y276630D01*
X822902Y275000D01*
X823290Y273049D01*
X824395Y271395D01*
X826049Y270290D01*
X828000Y269902D01*
X829951Y270290D01*
X831605Y271395D01*
X831970Y271941D01*
X838000D01*
X838000Y271941D01*
X839171Y272174D01*
X840163Y272837D01*
X850413Y283087D01*
X850413Y283087D01*
X850865Y283764D01*
X852135D01*
X852587Y283087D01*
X862837Y272837D01*
X862837Y272837D01*
X863829Y272174D01*
X865000Y271941D01*
X865000Y271941D01*
X869030D01*
X869395Y271395D01*
X871049Y270290D01*
X873000Y269902D01*
X874951Y270290D01*
X876605Y271395D01*
X877710Y273049D01*
X878098Y275000D01*
X877710Y276951D01*
X876605Y278605D01*
X874951Y279710D01*
X873000Y280098D01*
X871049Y279710D01*
X869395Y278605D01*
X869030Y278059D01*
X866267D01*
X857809Y286517D01*
Y288641D01*
X858929Y289240D01*
X859689Y288732D01*
X861250Y288422D01*
X862811Y288732D01*
X864134Y289616D01*
X864866D01*
X866189Y288732D01*
X867750Y288422D01*
X869311Y288732D01*
X870634Y289616D01*
X871518Y290939D01*
X871828Y292500D01*
Y298191D01*
X909700D01*
X911049Y297290D01*
X913000Y296902D01*
X914951Y297290D01*
X916605Y298395D01*
X917710Y300049D01*
X918098Y302000D01*
X917710Y303951D01*
X916605Y305605D01*
X914951Y306710D01*
X913000Y307098D01*
X911049Y306710D01*
X909395Y305605D01*
X908529Y304309D01*
X871828D01*
Y310000D01*
X871518Y311561D01*
X870634Y312884D01*
X869311Y313768D01*
X867750Y314078D01*
X866967Y313923D01*
X866368Y315043D01*
X867267Y315941D01*
X875030D01*
X875395Y315395D01*
X877049Y314290D01*
X879000Y313902D01*
X880951Y314290D01*
X882605Y315395D01*
X883710Y317049D01*
X884098Y319000D01*
X883710Y320951D01*
X882605Y322605D01*
X880951Y323710D01*
X879000Y324098D01*
X877049Y323710D01*
X875395Y322605D01*
X875030Y322059D01*
X866000D01*
X864829Y321826D01*
X864432Y321560D01*
X863837Y321163D01*
X863837Y321163D01*
X859087Y316413D01*
X858424Y315420D01*
X858191Y314250D01*
X858191Y314250D01*
Y313859D01*
X857071Y313260D01*
X856311Y313768D01*
X854750Y314078D01*
X853189Y313768D01*
X851866Y312884D01*
X851134D01*
X849811Y313768D01*
X848761Y313977D01*
X848275Y315150D01*
X849210Y316549D01*
X849598Y318500D01*
X849210Y320451D01*
X848105Y322105D01*
X846451Y323210D01*
X844500Y323598D01*
X842549Y323210D01*
X840895Y322105D01*
X839790Y320451D01*
X839573Y319357D01*
X838309Y319482D01*
Y327983D01*
X840356Y330030D01*
X841000Y329902D01*
X842951Y330290D01*
X844605Y331395D01*
X845710Y333049D01*
X846098Y335000D01*
X845710Y336951D01*
X844605Y338605D01*
X842951Y339710D01*
X841000Y340098D01*
D02*
G37*
G36*
X542560Y336369D02*
X541609Y336180D01*
X539955Y335075D01*
X538850Y333421D01*
X538661Y332470D01*
X542560D01*
Y336369D01*
D02*
G37*
G36*
X650510Y340179D02*
X649559Y339990D01*
X647905Y338885D01*
X646800Y337231D01*
X646611Y336280D01*
X650510D01*
Y340179D01*
D02*
G37*
G36*
X544560Y336369D02*
Y332470D01*
X548459D01*
X548270Y333421D01*
X547165Y335075D01*
X545511Y336180D01*
X544560Y336369D01*
D02*
G37*
%LPD*%
G36*
X730000Y560000D02*
Y560000D01*
X720000Y550000D01*
X670000D01*
X660000Y540000D01*
Y490000D01*
X620000D01*
Y520000D01*
X610000Y530000D01*
X550000D01*
Y560000D01*
Y570000D01*
X610000D01*
X620000Y580000D01*
X640000Y600000D01*
X730000D01*
Y560000D01*
D02*
G37*
G36*
X772024Y694821D02*
X772128Y694806D01*
X772364Y694776D01*
X772631Y694717D01*
X772927Y694628D01*
X773208Y694495D01*
X773475Y694332D01*
X773490D01*
X773505Y694317D01*
X773594Y694243D01*
X773712Y694139D01*
X773860Y693977D01*
X774008Y693799D01*
X774171Y693562D01*
X774304Y693295D01*
X774423Y692999D01*
X773505Y692762D01*
X773490Y692792D01*
X773460Y692851D01*
X773401Y692955D01*
X773327Y693088D01*
X773238Y693236D01*
X773105Y693384D01*
X772972Y693518D01*
X772809Y693651D01*
X772794Y693665D01*
X772735Y693695D01*
X772631Y693754D01*
X772498Y693814D01*
X772350Y693858D01*
X772172Y693917D01*
X771965Y693947D01*
X771742Y693962D01*
X771654D01*
X771594Y693947D01*
X771432Y693932D01*
X771224Y693888D01*
X770987Y693814D01*
X770735Y693695D01*
X770499Y693532D01*
X770380Y693443D01*
X770262Y693325D01*
X770232Y693295D01*
X770173Y693206D01*
X770084Y693058D01*
X769980Y692866D01*
X769862Y692599D01*
X769773Y692288D01*
X769714Y691918D01*
X769684Y691504D01*
Y691489D01*
Y691459D01*
Y691385D01*
X769699Y691311D01*
Y691207D01*
X769714Y691104D01*
X769758Y690837D01*
X769817Y690541D01*
X769906Y690245D01*
X770040Y689964D01*
X770217Y689712D01*
X770247Y689682D01*
X770321Y689623D01*
X770439Y689519D01*
X770602Y689416D01*
X770810Y689297D01*
X771047Y689193D01*
X771328Y689134D01*
X771639Y689105D01*
X771757D01*
X771891Y689119D01*
X772053Y689149D01*
X772246Y689208D01*
X772439Y689268D01*
X772646Y689371D01*
X772853Y689504D01*
X772883Y689519D01*
X772942Y689578D01*
X773031Y689667D01*
X773149Y689801D01*
X773268Y689949D01*
X773371Y690141D01*
X773490Y690363D01*
X773564Y690615D01*
X774526Y690334D01*
Y690319D01*
X774512Y690289D01*
X774497Y690245D01*
X774482Y690171D01*
X774452Y690097D01*
X774408Y689993D01*
X774319Y689771D01*
X774186Y689519D01*
X774008Y689268D01*
X773801Y689016D01*
X773534Y688779D01*
X773520D01*
X773505Y688749D01*
X773460Y688720D01*
X773401Y688690D01*
X773327Y688646D01*
X773238Y688601D01*
X773016Y688497D01*
X772749Y688379D01*
X772439Y688290D01*
X772083Y688231D01*
X771698Y688201D01*
X771565D01*
X771476Y688216D01*
X771357Y688231D01*
X771224Y688246D01*
X771076Y688275D01*
X770913Y688305D01*
X770558Y688409D01*
X770380Y688483D01*
X770188Y688571D01*
X769995Y688675D01*
X769817Y688794D01*
X769640Y688927D01*
X769477Y689075D01*
X769462Y689090D01*
X769447Y689119D01*
X769403Y689164D01*
X769343Y689238D01*
X769284Y689327D01*
X769210Y689445D01*
X769136Y689564D01*
X769062Y689712D01*
X768973Y689875D01*
X768899Y690067D01*
X768825Y690275D01*
X768766Y690482D01*
X768707Y690719D01*
X768662Y690970D01*
X768648Y691252D01*
X768633Y691533D01*
Y691548D01*
Y691578D01*
Y691637D01*
Y691711D01*
X768648Y691800D01*
Y691903D01*
X768677Y692140D01*
X768722Y692422D01*
X768796Y692718D01*
X768885Y693014D01*
X769018Y693310D01*
Y693325D01*
X769033Y693340D01*
X769092Y693429D01*
X769181Y693577D01*
X769299Y693740D01*
X769462Y693917D01*
X769640Y694110D01*
X769862Y694287D01*
X770114Y694450D01*
X770128D01*
X770143Y694465D01*
X770188Y694480D01*
X770247Y694510D01*
X770395Y694569D01*
X770587Y694643D01*
X770839Y694717D01*
X771121Y694776D01*
X771432Y694821D01*
X771772Y694835D01*
X771950D01*
X772024Y694821D01*
D02*
G37*
D10*
X588500Y290000D02*
D03*
X569500D02*
D03*
X530500Y270000D02*
D03*
X549500D02*
D03*
X549500Y290000D02*
D03*
X530500D02*
D03*
D11*
X555950Y546965D02*
D03*
X568650D02*
D03*
X581350D02*
D03*
Y493035D02*
D03*
X568650D02*
D03*
X555950D02*
D03*
X594050D02*
D03*
Y546965D02*
D03*
D12*
X1139000Y681500D02*
D03*
Y518500D02*
D03*
D13*
X1115000Y650000D02*
D03*
Y640000D02*
D03*
Y630000D02*
D03*
Y620000D02*
D03*
Y610000D02*
D03*
Y600000D02*
D03*
Y590000D02*
D03*
Y580000D02*
D03*
Y570000D02*
D03*
Y560000D02*
D03*
Y550000D02*
D03*
D14*
X742000Y159975D02*
D03*
X734000D02*
D03*
X726000D02*
D03*
X718000D02*
D03*
X710000D02*
D03*
X702000D02*
D03*
Y138025D02*
D03*
X710000D02*
D03*
X718000D02*
D03*
X726000D02*
D03*
X734000D02*
D03*
X742000D02*
D03*
D15*
X742975Y149000D02*
D03*
X701025D02*
D03*
D16*
X695250Y215000D02*
D03*
X695250Y220000D02*
D03*
X695250Y210000D02*
D03*
X724750D02*
D03*
Y220000D02*
D03*
Y215000D02*
D03*
D17*
X720000Y200250D02*
D03*
X715000D02*
D03*
X710000D02*
D03*
X705000D02*
D03*
X700000D02*
D03*
Y229750D02*
D03*
X705000D02*
D03*
X710000D02*
D03*
X715000D02*
D03*
X720000D02*
D03*
D18*
X503500Y347500D02*
D03*
X513000D02*
D03*
X522500D02*
D03*
X503500Y320500D02*
D03*
X522500D02*
D03*
X563500Y253500D02*
D03*
X573000D02*
D03*
X582500D02*
D03*
X563500Y226500D02*
D03*
X582500D02*
D03*
D19*
X481400Y540000D02*
D03*
Y535000D02*
D03*
Y530000D02*
D03*
Y520000D02*
D03*
Y525000D02*
D03*
X438600D02*
D03*
Y520000D02*
D03*
Y530000D02*
D03*
Y535000D02*
D03*
Y540000D02*
D03*
D20*
X822250Y301250D02*
D03*
X661750Y279250D02*
D03*
D21*
X828750Y301250D02*
D03*
X835250D02*
D03*
X841750D02*
D03*
X848250D02*
D03*
X854750D02*
D03*
X861250D02*
D03*
X867750D02*
D03*
X822250Y366750D02*
D03*
X828750D02*
D03*
X835250D02*
D03*
X841750D02*
D03*
X848250D02*
D03*
X854750D02*
D03*
X861250D02*
D03*
X867750D02*
D03*
X668250Y279250D02*
D03*
X674750D02*
D03*
X681250D02*
D03*
X687750D02*
D03*
X694250D02*
D03*
X700750D02*
D03*
X707250D02*
D03*
X713750D02*
D03*
X720250D02*
D03*
X661750Y344750D02*
D03*
X668250D02*
D03*
X674750D02*
D03*
X681250D02*
D03*
X687750D02*
D03*
X694250D02*
D03*
X700750D02*
D03*
X707250D02*
D03*
X713750D02*
D03*
X720250D02*
D03*
X746250Y279250D02*
D03*
X739750D02*
D03*
X733250D02*
D03*
X726750D02*
D03*
X746250Y344750D02*
D03*
X739750D02*
D03*
X733250D02*
D03*
X726750D02*
D03*
D22*
X515000Y548000D02*
D03*
Y492000D02*
D03*
D23*
X915000Y656000D02*
D03*
Y684000D02*
D03*
X945000Y656000D02*
D03*
Y684000D02*
D03*
X975000Y656000D02*
D03*
Y684000D02*
D03*
X1005000Y656000D02*
D03*
Y684000D02*
D03*
X599000Y454000D02*
D03*
Y426000D02*
D03*
X742000Y453000D02*
D03*
Y425000D02*
D03*
X702000Y453000D02*
D03*
Y425000D02*
D03*
X664000Y453000D02*
D03*
Y425000D02*
D03*
D24*
X1055000Y665500D02*
D03*
Y684500D02*
D03*
X660000Y130500D02*
D03*
Y149500D02*
D03*
X1080000Y665500D02*
D03*
Y684500D02*
D03*
D25*
X685000Y680000D02*
D03*
Y580000D02*
D03*
D26*
X639000Y510000D02*
D03*
X711000D02*
D03*
D27*
X1028500Y440000D02*
D03*
X991500D02*
D03*
D28*
X783000Y505000D02*
D03*
X847000D02*
D03*
X783000Y580000D02*
D03*
X847000D02*
D03*
D29*
X590000Y615000D02*
D03*
Y645000D02*
D03*
X550000D02*
D03*
Y615000D02*
D03*
D30*
X726000Y380000D02*
D03*
X754000D02*
D03*
D31*
X238200Y670000D02*
D03*
D32*
X301800D02*
D03*
D33*
X1044000Y494750D02*
D03*
Y501250D02*
D03*
Y507750D02*
D03*
Y527250D02*
D03*
Y520750D02*
D03*
Y514250D02*
D03*
Y553250D02*
D03*
Y559750D02*
D03*
Y566250D02*
D03*
Y546750D02*
D03*
Y540250D02*
D03*
Y533750D02*
D03*
Y592250D02*
D03*
Y598750D02*
D03*
Y605250D02*
D03*
Y585750D02*
D03*
Y579250D02*
D03*
Y572750D02*
D03*
X906000D02*
D03*
Y579250D02*
D03*
Y585750D02*
D03*
Y605250D02*
D03*
Y598750D02*
D03*
Y592250D02*
D03*
Y533750D02*
D03*
Y540250D02*
D03*
Y546750D02*
D03*
Y566250D02*
D03*
Y559750D02*
D03*
Y553250D02*
D03*
Y514250D02*
D03*
Y520750D02*
D03*
Y527250D02*
D03*
Y507750D02*
D03*
Y501250D02*
D03*
Y494750D02*
D03*
D34*
X975000Y550000D02*
D03*
D35*
Y484500D02*
D03*
Y615500D02*
D03*
D36*
X950500Y607500D02*
D03*
X999500D02*
D03*
Y492500D02*
D03*
X950500D02*
D03*
D37*
X834390Y386080D02*
X835250Y385220D01*
X739750Y290170D02*
X744220Y294640D01*
X700685Y161290D02*
X702000Y159975D01*
X690025Y161290D02*
X700685D01*
X651510Y335280D02*
X652280D01*
X661750Y344750D01*
X739750Y264820D02*
X740410Y264160D01*
X739750Y264820D02*
Y279250D01*
Y290170D01*
X815340Y363220D02*
X818720D01*
X822250Y366750D01*
X1115000Y550000D02*
X1116000Y549000D01*
Y532000D02*
Y549000D01*
X1084000Y506000D02*
Y512000D01*
X1064000Y486000D02*
X1084000Y506000D01*
X1127000Y590000D02*
X1132000Y595000D01*
X1115000Y590000D02*
X1127000D01*
X1034621Y440000D02*
X1043000D01*
X1026000Y495000D02*
X1026250Y494750D01*
X1044000D01*
X711000Y479000D02*
Y510000D01*
X470000Y491000D02*
Y528000D01*
X594050Y480050D02*
Y493035D01*
X591000Y477000D02*
X594050Y480050D01*
X484000Y477000D02*
X591000D01*
X470000Y491000D02*
X484000Y477000D01*
X470000Y528000D02*
X472000Y530000D01*
X466000Y540000D02*
X481400D01*
X1005000Y650000D02*
Y656000D01*
X906000Y605250D02*
X921750D01*
X906000Y494750D02*
X921250D01*
X906000Y533750D02*
X924750D01*
X928750Y537750D02*
Y554250D01*
X1023000Y534000D02*
Y541000D01*
Y534000D02*
X1043750D01*
X1044000Y533750D01*
X758000Y580000D02*
X783000D01*
X783000Y580000D01*
X758000Y505000D02*
X783000D01*
X783000Y505000D01*
X835250Y366750D02*
Y385220D01*
X822250Y366750D02*
X828750D01*
X991500Y429500D02*
Y440000D01*
X990500Y429500D02*
X991500D01*
X924750Y533750D02*
X928750Y537750D01*
X1006000Y430000D02*
Y455000D01*
X1035000Y486000D02*
X1064000D01*
X699000Y467000D02*
X711000Y479000D01*
X501000Y467000D02*
X699000D01*
X1025000Y384000D02*
Y397961D01*
D38*
X699000Y305300D02*
Y313000D01*
X687750Y294050D02*
X699000Y305300D01*
X687750Y279250D02*
Y294050D01*
X710400Y304000D02*
X757000D01*
X700750Y294350D02*
X710400Y304000D01*
X700750Y279250D02*
Y294350D01*
X708050Y308000D02*
X765000D01*
X694250Y294200D02*
X708050Y308000D01*
X694250Y279250D02*
Y294200D01*
X1063940Y559750D02*
X1065530Y561340D01*
X858520Y545520D02*
X866000Y553000D01*
X858520Y527480D02*
Y545520D01*
Y527480D02*
X864000Y522000D01*
X862330Y541330D02*
X866000Y545000D01*
X862330Y532670D02*
Y541330D01*
Y532670D02*
X868000Y527000D01*
X680000Y155660D02*
Y169630D01*
X674630Y175000D02*
X680000Y169630D01*
X651000Y175000D02*
X674630D01*
X686660Y149000D02*
X701025D01*
X680000Y155660D02*
X686660Y149000D01*
X749300Y184150D02*
X750285Y185135D01*
X749300Y155325D02*
Y184150D01*
X742975Y149000D02*
X749300Y155325D01*
X701000Y177000D02*
X727710D01*
X697000Y173000D02*
X701000Y177000D01*
X724750Y190750D02*
Y210000D01*
X713750Y262900D02*
Y279250D01*
X700000Y249150D02*
X713750Y262900D01*
X700000Y229750D02*
Y249150D01*
X709470Y251000D02*
X769000D01*
X705000Y246530D02*
X709470Y251000D01*
X705000Y229750D02*
Y246530D01*
X710000Y241370D02*
X714630Y246000D01*
X710000Y229750D02*
Y241370D01*
X715000Y229750D02*
Y236210D01*
X719790Y241000D01*
X774000D01*
X780000Y231360D02*
X784860Y236220D01*
X723900Y394970D02*
X729930Y401000D01*
X803000D01*
X813000Y411000D01*
X743000Y393000D02*
X883000D01*
X740000Y390000D02*
X743000Y393000D01*
X681250Y279250D02*
Y291570D01*
X647700Y325120D02*
X681250Y291570D01*
X642000Y280050D02*
X643890Y281940D01*
X646580Y279250D01*
X674750Y344750D02*
Y361570D01*
X671070Y365250D02*
X674750Y361570D01*
X654750Y365250D02*
X671070D01*
X822960Y280670D02*
X828750Y286460D01*
X818330Y280670D02*
X822960D01*
X812000Y287000D02*
X818330Y280670D01*
X828750Y286460D02*
Y301250D01*
X808960Y397000D02*
X822960Y411000D01*
X788730Y409000D02*
X802640Y422910D01*
X454660Y535660D02*
Y541020D01*
X549500Y290000D02*
X569500D01*
X796000Y263000D02*
X815000Y244000D01*
X1078000Y579000D02*
X1081000Y576000D01*
Y543000D02*
Y576000D01*
X1078000Y540000D02*
X1081000Y543000D01*
X1067000Y540000D02*
X1078000D01*
X1073750Y546750D02*
X1074000Y547000D01*
X1069000Y546750D02*
X1073750D01*
X1130000Y570000D02*
X1132000Y572000D01*
X1115000Y570000D02*
X1130000D01*
X1115000Y560000D02*
X1132000D01*
X1128000Y580000D02*
X1132000Y584000D01*
X1115000Y580000D02*
X1128000D01*
X1074000Y557000D02*
Y567000D01*
X1070250Y553250D02*
X1074000Y557000D01*
X687000Y216000D02*
Y255000D01*
X733000Y279000D02*
X733250Y279250D01*
X733000Y261000D02*
Y279000D01*
X764000Y255000D02*
X769000Y260000D01*
X724000Y255000D02*
X764000D01*
X720250Y258750D02*
X724000Y255000D01*
X642000Y224000D02*
Y280050D01*
X646580Y279250D02*
X661750D01*
X781406Y263406D02*
Y263594D01*
X779780Y265220D02*
X781406Y263594D01*
X789000Y250000D02*
X795000D01*
X770000Y231000D02*
X789000Y250000D01*
X770000Y210000D02*
Y231000D01*
X1080000Y684500D02*
X1080000Y684500D01*
X455000Y520500D02*
X461000Y526500D01*
Y531000D01*
X465500Y540500D02*
X466000Y540000D01*
X410000Y530000D02*
X415000D01*
X420000Y535000D01*
X438600D01*
X410000Y540000D02*
X438600D01*
X413000Y516000D02*
Y522000D01*
X416000Y525000D01*
X438600D01*
Y520000D02*
X439100Y520500D01*
X455000D01*
X515000Y538000D02*
Y548000D01*
X502000Y525000D02*
X515000Y538000D01*
X481400Y525000D02*
X502000D01*
X515000Y492000D02*
Y507000D01*
X502000Y520000D02*
X515000Y507000D01*
X481400Y520000D02*
X502000D01*
X1044000Y553250D02*
X1070250D01*
X887250Y559750D02*
X906000D01*
X887250Y553250D02*
X906000D01*
X889250Y546750D02*
X906000D01*
X889250Y540250D02*
X906000D01*
X876000Y527000D02*
X889250Y540250D01*
X872000Y529500D02*
X889250Y546750D01*
X871000Y537000D02*
X887250Y553250D01*
X870000Y537000D02*
X871000D01*
X866000Y545000D02*
X872500D01*
X868000Y482000D02*
Y527000D01*
X872500Y545000D02*
X887250Y559750D01*
X872500Y545000D02*
X873500Y546000D01*
X1044250Y540000D02*
X1067000D01*
X1044000Y540250D02*
X1044250Y540000D01*
X1044000Y546750D02*
X1069000D01*
X1055000Y665500D02*
X1080000D01*
X1080000Y665500D01*
X1044000Y572750D02*
X1063750D01*
X1064000Y573000D01*
X1067000Y649000D02*
Y665500D01*
X688000Y215000D02*
X695250D01*
X687000Y216000D02*
X688000Y215000D01*
X746250Y344750D02*
X773250D01*
X796000Y322000D01*
Y263000D02*
Y322000D01*
X739750Y332250D02*
Y344750D01*
Y332250D02*
X741000Y331000D01*
X780000D01*
X792000Y319000D01*
Y259000D02*
Y319000D01*
X733250Y328750D02*
Y344750D01*
Y328750D02*
X735000Y327000D01*
X778000D01*
X788000Y263000D02*
Y317000D01*
X714630Y246000D02*
X771000D01*
X726750Y328250D02*
Y344750D01*
X732000Y323000D02*
X776000D01*
X784000Y266000D02*
Y315000D01*
X769000Y251000D02*
X784000Y266000D01*
X674750Y252750D02*
Y279250D01*
X778000Y327000D02*
X788000Y317000D01*
X776000Y323000D02*
X784000Y315000D01*
X774000Y241000D02*
X792000Y259000D01*
X726750Y328250D02*
X732000Y323000D01*
X720250Y258750D02*
Y279250D01*
X736000Y120000D02*
X761000D01*
X763000Y122000D02*
Y164000D01*
X734000Y122000D02*
Y138025D01*
Y122000D02*
X736000Y120000D01*
X771000Y246000D02*
X788000Y263000D01*
X702000Y125000D02*
Y138025D01*
Y125000D02*
X711000Y116000D01*
X768000D01*
X770000Y118000D01*
X841750Y353250D02*
Y366750D01*
X853000Y342000D02*
X916000D01*
X854750Y285250D02*
Y301250D01*
Y285250D02*
X865000Y275000D01*
X873000D01*
X848250Y285250D02*
Y301250D01*
X838000Y275000D02*
X848250Y285250D01*
X828000Y275000D02*
X838000D01*
X841750Y315750D02*
X844500Y318500D01*
X841750Y301250D02*
Y315750D01*
X861250Y301250D02*
Y314250D01*
X866000Y319000D01*
X879000D01*
X835250Y329250D02*
X841000Y335000D01*
X835250Y301250D02*
Y329250D01*
X841750Y353250D02*
X853000Y342000D01*
X854750Y352250D02*
Y366750D01*
Y352250D02*
X855000Y352000D01*
X916000Y342000D02*
X920000Y338000D01*
Y334000D02*
Y338000D01*
X654000Y366000D02*
X654750Y365250D01*
X713750Y344750D02*
Y375750D01*
X715000Y377000D01*
X687750Y344750D02*
Y406250D01*
X720000Y215000D02*
X724750D01*
X714000Y209000D02*
X720000Y215000D01*
X720000Y200250D02*
Y205000D01*
X716000Y209000D02*
X720000Y205000D01*
X714000Y209000D02*
X716000D01*
X882000Y575000D02*
X884250Y572750D01*
X906000D01*
X894250Y585750D02*
X906000D01*
X886000Y594000D02*
X894250Y585750D01*
X870000Y594000D02*
X886000D01*
X866000Y553000D02*
Y590000D01*
X864000Y487000D02*
Y522000D01*
X866000Y590000D02*
X870000Y594000D01*
X687750Y406250D02*
X694500Y413000D01*
X779000D01*
X707250Y344750D02*
Y401250D01*
X1044000Y559750D02*
X1063940D01*
X867750Y366750D02*
Y381750D01*
X868000Y382000D01*
X715000Y377000D02*
X718000Y380000D01*
X726000D01*
X700750Y344750D02*
Y364750D01*
X701000Y365000D01*
X681250Y344750D02*
Y360750D01*
X681000Y361000D02*
X681250Y360750D01*
X692000Y329000D02*
X694250Y331250D01*
Y344750D01*
X715000Y409000D02*
X788730D01*
X717000Y400000D02*
X722000Y405000D01*
X796000D01*
X734000Y394000D02*
X737000Y397000D01*
X740000Y385000D02*
Y390000D01*
X707250Y401250D02*
X715000Y409000D01*
X779000Y413000D02*
X789000Y423000D01*
X790000D01*
X796000Y405000D02*
X813000Y422000D01*
X883000Y393000D02*
X895000Y405000D01*
Y409000D01*
X857000Y480000D02*
X864000Y487000D01*
X845000Y480000D02*
X857000D01*
X865000Y457000D02*
X876000Y468000D01*
X865000Y466000D02*
X865000D01*
X872000Y473000D01*
X845000Y471000D02*
X857000D01*
X868000Y482000D01*
X872000Y473000D02*
Y529500D01*
X651000Y216000D02*
Y229000D01*
X674750Y252750D01*
X774000Y241000D02*
X774438Y241438D01*
X770000Y118000D02*
Y180000D01*
X746250Y279250D02*
X772992D01*
X780000Y210000D02*
Y231360D01*
X765000Y308000D02*
X768000Y305000D01*
Y303000D02*
Y305000D01*
X767000Y303000D02*
X768000D01*
X757000Y304000D02*
X766000Y295000D01*
X768000D01*
X772992Y279250D02*
X773000Y279000D01*
X867750Y301250D02*
X895750D01*
X912250D01*
X913000Y302000D01*
X760000Y210000D02*
Y241000D01*
X726750Y279250D02*
Y297250D01*
X726000Y298000D02*
X726750Y297250D01*
X660000Y216000D02*
Y227000D01*
X678000Y245000D01*
X668250Y261250D02*
Y279250D01*
X666000Y259000D02*
X668250Y261250D01*
X650000Y259000D02*
X666000D01*
X549500Y270000D02*
X589000D01*
X549500Y270000D02*
Y290000D01*
X549500Y270000D02*
X549500Y270000D01*
X642000Y429000D02*
X646000D01*
X630000Y417000D02*
X642000Y429000D01*
X630000Y364000D02*
Y417000D01*
X737000Y397000D02*
X808960D01*
X873000Y584000D02*
X882000Y575000D01*
X873000Y584000D02*
Y586000D01*
X876000Y468000D02*
Y527000D01*
X763000Y164000D02*
X764000Y165000D01*
Y174000D01*
X438600Y530000D02*
X449000D01*
X454660Y535660D01*
X761000Y120000D02*
X763000Y122000D01*
X931931Y270069D02*
X936644Y274781D01*
X934287Y272425D01*
X941356Y265356D01*
X939000Y277138D02*
X946069Y270069D01*
X942534Y273603D01*
X942534Y275959D01*
X944891Y278316D01*
X947247D01*
X950781Y274781D01*
X956672Y280672D02*
X954316Y278316D01*
X951959D01*
X949603Y280672D01*
X949603Y283028D01*
X951960Y285385D01*
X954316D01*
X955494Y284206D01*
X950781Y279494D01*
X953138Y291275D02*
X955494Y293631D01*
X954316Y292453D01*
X961385Y285385D01*
X960206Y284206D01*
X962563Y286563D01*
X966097Y290097D02*
X961385Y294809D01*
X964919Y298344D01*
X967275D01*
X970809Y294809D01*
X973166Y306591D02*
X969631Y303057D01*
X969631Y300700D01*
X971988Y298344D01*
X974344D01*
X977878Y301878D01*
X980235Y304235D02*
X979056Y305413D01*
X980235Y306591D01*
X981413Y305413D01*
X980235Y304235D01*
X983769Y321907D02*
X981413Y319550D01*
X982591Y320728D01*
X988482Y314838D01*
Y312481D01*
X987303Y311303D01*
X984947D01*
X992016Y327797D02*
X989660D01*
X987303Y325441D01*
Y323085D01*
X988482Y321907D01*
X990838Y321907D01*
X993194Y324263D01*
X995550Y324263D01*
X996728Y323085D01*
Y320728D01*
X994372Y318372D01*
X992016D01*
X999085Y334866D02*
X996728Y334866D01*
X994372Y332510D01*
Y330154D01*
X999085Y325441D01*
X1001441D01*
X1003797Y327797D01*
Y330154D01*
X1001441Y332510D01*
X999085Y330154D01*
X600000Y110000D02*
X707000D01*
X814000D02*
X1224000Y520000D01*
X190000D02*
X600000Y110000D01*
X1224000Y520000D02*
Y705000D01*
X190000Y520000D02*
Y705000D01*
X1224000D01*
X707000Y110000D02*
X814000D01*
D39*
X647700Y149860D02*
X671830D01*
X656500Y127000D02*
X660000Y130500D01*
X648970Y127000D02*
X656500D01*
X742000Y159975D02*
Y169230D01*
X742950Y170180D01*
X734000Y159975D02*
Y170120D01*
X734060Y170180D01*
X718000Y159975D02*
Y169730D01*
X717550Y170180D02*
X718000Y169730D01*
X709930Y160045D02*
Y170180D01*
X554990Y227000D02*
X563000D01*
X582500Y226000D02*
X601000D01*
X588500Y290000D02*
X588940Y289560D01*
X599440D01*
X589280Y290780D02*
Y302260D01*
X588500Y290000D02*
X589280Y290780D01*
X530060Y289560D02*
X530500Y290000D01*
X519430Y289560D02*
X530060D01*
X513000Y347500D02*
Y356790D01*
X848250Y382160D02*
X848360Y382270D01*
X740410Y426590D02*
X742000Y425000D01*
X740410Y426590D02*
Y436880D01*
X742000Y453000D02*
X748910D01*
X755650Y459740D01*
X701040Y425960D02*
X702000Y425000D01*
X701040Y425960D02*
Y436880D01*
X702000Y453000D02*
X708270D01*
X715010Y459740D01*
X664000Y425000D02*
X664210Y424790D01*
Y412750D02*
Y424790D01*
X670170Y453000D02*
X676910Y459740D01*
X664000Y453000D02*
X670170D01*
X611590Y426000D02*
X612140Y425450D01*
X599000Y426000D02*
X611590D01*
X585470Y459740D02*
X591210Y454000D01*
X599000D01*
X1080000Y684500D02*
X1080030Y684530D01*
X1093470D01*
X1055000Y684500D02*
X1080000D01*
X1054970Y684530D02*
X1055000Y684500D01*
X1041400Y684530D02*
X1054970D01*
X1044540Y605790D02*
X1057910D01*
X573000Y253500D02*
Y263000D01*
D40*
X679000Y183000D02*
X690025Y171975D01*
Y161290D02*
Y171975D01*
X709930Y160045D02*
X710000Y159975D01*
X563000Y227000D02*
X563500Y226500D01*
X693420Y221830D02*
Y227330D01*
Y208170D02*
X695250Y210000D01*
X693420Y199390D02*
Y208170D01*
X709930Y219710D02*
X710220Y220000D01*
X724750D01*
X601000Y226000D02*
X644000Y183000D01*
X742000Y138025D02*
X742000Y138025D01*
Y127000D02*
Y138025D01*
X707250Y279250D02*
Y290250D01*
X712000Y295000D01*
X644000Y183000D02*
X679000D01*
X693420Y221830D02*
X695250Y220000D01*
X495300Y321000D02*
X503000D01*
X503500Y320500D01*
X573000Y263000D02*
X573000Y263000D01*
D41*
X582500Y245540D02*
Y253500D01*
Y245540D02*
X584200Y243840D01*
X581360Y241000D02*
X584200Y243840D01*
X561340D02*
X564180Y241000D01*
X563500Y246000D02*
Y253500D01*
X561340Y243840D02*
X563500Y246000D01*
X526160Y243840D02*
X561340D01*
X501000Y269000D02*
X526160Y243840D01*
X564180Y241000D02*
X581360D01*
X503500Y339670D02*
Y347500D01*
X501650Y337820D02*
X503500Y339670D01*
X501650Y337820D02*
X505470Y334000D01*
X522500Y339830D02*
Y347500D01*
Y339830D02*
X524510Y337820D01*
X520690Y334000D02*
X524510Y337820D01*
X1115000Y600000D02*
Y610000D01*
X1098000Y605000D02*
X1115000D01*
X1098000Y503000D02*
Y605000D01*
X1115000Y620000D02*
Y630000D01*
X1090000Y625000D02*
X1115000D01*
X1087000Y622000D02*
X1090000Y625000D01*
X1087000Y537750D02*
Y622000D01*
X1070000Y520750D02*
X1087000Y537750D01*
X1060750Y585750D02*
X1070250Y595250D01*
X1115000Y640000D02*
Y650000D01*
X1091000Y645000D02*
X1115000D01*
X1070250Y624250D02*
X1091000Y645000D01*
X1070250Y595250D02*
Y624250D01*
X1045000Y475000D02*
X1070000D01*
X1033000Y463000D02*
X1045000Y475000D01*
X891000Y519000D02*
X892750Y520750D01*
X1070000Y475000D02*
X1098000Y503000D01*
X905000Y450000D02*
Y470000D01*
X891000Y484000D02*
X905000Y470000D01*
X891000Y484000D02*
Y519000D01*
X1014000Y463000D02*
X1033000D01*
X1006000Y455000D02*
X1014000Y463000D01*
X423481Y347500D02*
X503500D01*
X422991Y347009D02*
X423481Y347500D01*
X501000Y269000D02*
X530860D01*
X500000Y270000D02*
X501000Y269000D01*
X505470Y334000D02*
X520690D01*
D42*
X513000Y356790D02*
X513080Y356870D01*
X668250Y344750D02*
Y359180D01*
X668020Y359410D02*
X668250Y359180D01*
X720090Y344590D02*
X720250Y344750D01*
X720090Y330200D02*
Y344590D01*
X744220Y367030D02*
X754000Y376810D01*
Y380000D01*
X820420Y287020D02*
X822250Y288850D01*
Y301250D01*
X848250Y366750D02*
Y382160D01*
X1044000Y605250D02*
X1044540Y605790D01*
D43*
X422991Y347009D02*
X500000Y270000D01*
X365000Y405000D02*
X422991Y347009D01*
X914000Y683000D02*
X915000Y684000D01*
X365000Y405000D02*
Y630000D01*
X500000Y270000D02*
Y270000D01*
X365000Y630000D02*
X391000D01*
D44*
X472000Y530000D02*
X481400D01*
D45*
Y535000D02*
Y540000D01*
D46*
X816000Y544998D02*
X842000D01*
X639000Y548998D02*
Y564000D01*
Y510000D02*
Y548998D01*
X340800Y656000D02*
X412000D01*
X480000Y623000D02*
X518000Y661000D01*
X635000D01*
X654000Y680000D01*
X685000D01*
X655000Y580000D02*
X685000D01*
X639000Y564000D02*
X655000Y580000D01*
X412000Y656000D02*
X433000Y635000D01*
Y595000D02*
Y635000D01*
X480000Y595000D02*
Y623000D01*
X301800Y670000D02*
X315800Y656000D01*
X340800D01*
X238200Y610800D02*
Y670000D01*
Y610800D02*
X278600Y570400D01*
X311600D01*
X312000Y570000D01*
D47*
X1044000Y585750D02*
X1060750D01*
X1044000Y520750D02*
X1070000D01*
X892750D02*
X906000D01*
D48*
X896000Y683000D02*
X914000D01*
X847000Y634000D02*
X896000Y683000D01*
X847000Y505000D02*
Y634000D01*
X915000Y684000D02*
X1005000D01*
D49*
X786731Y696677D02*
X779960D01*
Y686520D01*
X786731D01*
X779960Y691598D02*
X783346D01*
X790117Y696677D02*
Y686520D01*
X796888D01*
X807045Y696677D02*
X800274D01*
Y686520D01*
X807045D01*
X800274Y691598D02*
X803659D01*
X810430Y696677D02*
Y686520D01*
Y689906D01*
X817201Y696677D01*
X812123Y691598D01*
X817201Y686520D01*
X820587Y696677D02*
X827358D01*
X823972D01*
Y686520D01*
X835822Y696677D02*
X832436D01*
X830744Y694984D01*
Y688213D01*
X832436Y686520D01*
X835822D01*
X837515Y688213D01*
Y694984D01*
X835822Y696677D01*
X840900Y686520D02*
Y696677D01*
X845979D01*
X847672Y694984D01*
Y691598D01*
X845979Y689906D01*
X840900D01*
X844286D02*
X847672Y686520D01*
X766150Y663451D02*
X769536Y656680D01*
X772921Y663451D01*
X783078Y656680D02*
X776307D01*
X783078Y663451D01*
Y665144D01*
X781385Y666837D01*
X777999D01*
X776307Y665144D01*
X786463Y656680D02*
Y658373D01*
X788156D01*
Y656680D01*
X786463D01*
X794927Y665144D02*
X796620Y666837D01*
X800006D01*
X801699Y665144D01*
Y658373D01*
X800006Y656680D01*
X796620D01*
X794927Y658373D01*
Y665144D01*
X766150Y671600D02*
X769536D01*
X767843D01*
Y681757D01*
X766150Y680064D01*
X781385Y681757D02*
X774614D01*
Y676678D01*
X777999Y678371D01*
X779692D01*
X781385Y676678D01*
Y673293D01*
X779692Y671600D01*
X776307D01*
X774614Y673293D01*
X784771Y680064D02*
X786463Y681757D01*
X789849D01*
X791542Y680064D01*
Y673293D01*
X789849Y671600D01*
X786463D01*
X784771Y673293D01*
Y680064D01*
X794927Y671600D02*
X798313D01*
X796620D01*
Y681757D01*
X794927Y680064D01*
X803391Y681757D02*
X810163D01*
Y680064D01*
X803391Y673293D01*
Y671600D01*
X820319Y681757D02*
X813548D01*
Y676678D01*
X816934Y678371D01*
X818626D01*
X820319Y676678D01*
Y673293D01*
X818626Y671600D01*
X815241D01*
X813548Y673293D01*
X823705Y676678D02*
X830476D01*
X833861Y671600D02*
X837247D01*
X835554D01*
Y681757D01*
X833861Y680064D01*
D50*
X906941Y243980D02*
D03*
X1042961Y380000D02*
D03*
D51*
X888980Y226020D02*
D03*
X871020Y208059D02*
D03*
X853059Y226020D02*
D03*
X871020Y243980D02*
D03*
X888980Y261941D02*
D03*
X1025000Y362039D02*
D03*
X1007039Y380000D02*
D03*
X1025000Y397961D02*
D03*
D52*
X987500Y600000D02*
D03*
X962500D02*
D03*
X975000D02*
D03*
X1000000Y575000D02*
D03*
X987500D02*
D03*
X975000D02*
D03*
X962500D02*
D03*
X950000D02*
D03*
X1000000Y550000D02*
D03*
X987500D02*
D03*
X975000D02*
D03*
X962500D02*
D03*
X950000D02*
D03*
X987500Y500000D02*
D03*
X975000D02*
D03*
X962500D02*
D03*
X1000000Y525000D02*
D03*
X987500D02*
D03*
X975000D02*
D03*
X962500D02*
D03*
X950000D02*
D03*
D53*
X366970Y690250D02*
D03*
X499050D02*
D03*
D54*
X386000Y596000D02*
D03*
X433000Y595000D02*
D03*
X480000D02*
D03*
D55*
X312000Y570000D02*
D03*
D56*
Y595000D02*
D03*
D57*
X561340Y243840D02*
D03*
X709930Y219710D02*
D03*
X648970Y127000D02*
D03*
X727710Y176530D02*
D03*
X697000Y173000D02*
D03*
X642000Y224000D02*
D03*
X779780Y265220D02*
D03*
X795000Y250000D02*
D03*
X647700Y149860D02*
D03*
X671830D02*
D03*
X755650Y161290D02*
D03*
Y138430D02*
D03*
X690025Y161290D02*
D03*
X689610Y138430D02*
D03*
X748030Y224790D02*
D03*
X736600Y234950D02*
D03*
X742000Y127000D02*
D03*
X651000Y175000D02*
D03*
X724750Y190750D02*
D03*
X651510Y293370D02*
D03*
Y335280D02*
D03*
X745490Y314960D02*
D03*
X720090Y330200D02*
D03*
X668020Y359410D02*
D03*
X740410Y264160D02*
D03*
X712470Y297180D02*
D03*
X744220Y294640D02*
D03*
X699000Y313000D02*
D03*
X769000Y260000D02*
D03*
X733000Y261000D02*
D03*
X773000Y279000D02*
D03*
X712470Y243840D02*
D03*
X687000Y255000D02*
D03*
X873000Y275000D02*
D03*
X828000D02*
D03*
X812000Y287000D02*
D03*
X844500Y318500D02*
D03*
X879000Y319000D02*
D03*
X841000Y335000D02*
D03*
X834390Y386080D02*
D03*
X815340Y363220D02*
D03*
X848360Y382270D02*
D03*
X855000Y352000D02*
D03*
X868000Y382000D02*
D03*
X920000Y334000D02*
D03*
X654000Y366000D02*
D03*
X726000Y298000D02*
D03*
X714000Y209000D02*
D03*
X768000Y295000D02*
D03*
Y303000D02*
D03*
X734060Y170180D02*
D03*
X742950D02*
D03*
X717550D02*
D03*
X709930D02*
D03*
X633730Y344170D02*
D03*
X701000Y365000D02*
D03*
X681000Y361000D02*
D03*
X692000Y329000D02*
D03*
X790000Y423000D02*
D03*
X802640Y422910D02*
D03*
X717000Y400000D02*
D03*
X723900Y394970D02*
D03*
X734000Y394000D02*
D03*
X740000Y385000D02*
D03*
X813000Y422000D02*
D03*
Y411000D02*
D03*
X822960D02*
D03*
X895000Y409000D02*
D03*
X845000Y480000D02*
D03*
Y471000D02*
D03*
X865000Y466000D02*
D03*
Y457000D02*
D03*
X643890Y281940D02*
D03*
X820420Y287020D02*
D03*
X647700Y325120D02*
D03*
X651000Y216000D02*
D03*
X750000Y185420D02*
D03*
X760000Y210000D02*
D03*
X764000Y174000D02*
D03*
X770000Y180000D02*
D03*
Y210000D02*
D03*
X780000D02*
D03*
X784860Y236220D02*
D03*
X815000Y244000D02*
D03*
X913000Y302000D02*
D03*
X679000Y183000D02*
D03*
X693420Y199390D02*
D03*
Y227330D02*
D03*
X660000Y216000D02*
D03*
X678000Y245000D02*
D03*
X543560Y307340D02*
D03*
X556260Y318770D02*
D03*
X543560Y331470D02*
D03*
X495300Y321000D02*
D03*
X501650Y337820D02*
D03*
X524510D02*
D03*
X584200Y243840D02*
D03*
X554990Y227330D02*
D03*
X573000Y263000D02*
D03*
X513080Y356870D02*
D03*
X589280Y226060D02*
D03*
X650000Y259000D02*
D03*
X519430Y289560D02*
D03*
Y269240D02*
D03*
X676910Y459740D02*
D03*
X715010D02*
D03*
X755650D02*
D03*
X630000Y364000D02*
D03*
X646000Y429000D02*
D03*
X585470Y459740D02*
D03*
X612140Y425450D02*
D03*
X664210Y412750D02*
D03*
X701040Y436880D02*
D03*
X740410D02*
D03*
X744220Y367030D02*
D03*
X576580Y419100D02*
D03*
X789940Y369570D02*
D03*
X589280Y302260D02*
D03*
X599440Y289560D02*
D03*
D58*
X1116000Y532000D02*
D03*
X1078000Y579000D02*
D03*
X1074000Y547000D02*
D03*
X1132000Y572000D02*
D03*
Y560000D02*
D03*
Y584000D02*
D03*
X1074000Y567000D02*
D03*
X461000Y531000D02*
D03*
X444500Y566420D02*
D03*
X465500Y540500D02*
D03*
X410000Y540000D02*
D03*
Y530000D02*
D03*
X413000Y516000D02*
D03*
X816000Y500000D02*
D03*
Y580000D02*
D03*
X1057910Y605790D02*
D03*
X921750Y605250D02*
D03*
X921250Y494750D02*
D03*
X873000Y586000D02*
D03*
X870000Y537000D02*
D03*
X816000Y560000D02*
D03*
Y540000D02*
D03*
Y520000D02*
D03*
X1065530Y561340D02*
D03*
X928750Y554250D02*
D03*
X1023000Y541000D02*
D03*
X1043000Y440000D02*
D03*
X1064000Y573000D02*
D03*
X1067000Y649000D02*
D03*
X758000Y580000D02*
D03*
Y505000D02*
D03*
X589000Y270000D02*
D03*
X1026000Y495000D02*
D03*
X990500Y429500D02*
D03*
X905000Y470000D02*
D03*
Y460000D02*
D03*
Y450000D02*
D03*
X1006000D02*
D03*
Y440000D02*
D03*
Y430000D02*
D03*
X928000Y509000D02*
D03*
X1084000Y512000D02*
D03*
X660000Y620000D02*
D03*
X817000Y599000D02*
D03*
Y620000D02*
D03*
X800000D02*
D03*
X780000D02*
D03*
X680000D02*
D03*
X640000D02*
D03*
X760000D02*
D03*
X620000D02*
D03*
X740000D02*
D03*
X700000D02*
D03*
X720000D02*
D03*
X590000Y590000D02*
D03*
X550000D02*
D03*
X570000D02*
D03*
X454660Y541020D02*
D03*
X610000Y600000D02*
D03*
X313000Y609000D02*
D03*
X345000Y630000D02*
D03*
X395000Y530000D02*
D03*
X453390Y509270D02*
D03*
X414020Y494030D02*
D03*
X464820Y566420D02*
D03*
X510000Y570000D02*
D03*
X530000Y580000D02*
D03*
X304380Y524000D02*
D03*
X395000Y490000D02*
D03*
Y510000D02*
D03*
Y550000D02*
D03*
X400000Y570000D02*
D03*
X350000Y492000D02*
D03*
X1041400Y684530D02*
D03*
X1093470D02*
D03*
X1132000Y595000D02*
D03*
X501000Y467000D02*
D03*
X391000Y630000D02*
D03*
X380000D02*
D03*
X370000D02*
D03*
X973000Y440000D02*
D03*
M02*
